%TF.GenerationSoftware,KiCad,Pcbnew,7.0.9*%
%TF.CreationDate,2024-04-20T19:42:18-07:00*%
%TF.ProjectId,mini_lipo_v1,6d696e69-5f6c-4697-906f-5f76312e6b69,rev?*%
%TF.SameCoordinates,Original*%
%TF.FileFunction,Soldermask,Bot*%
%TF.FilePolarity,Negative*%
%FSLAX46Y46*%
G04 Gerber Fmt 4.6, Leading zero omitted, Abs format (unit mm)*
G04 Created by KiCad (PCBNEW 7.0.9) date 2024-04-20 19:42:18*
%MOMM*%
%LPD*%
G01*
G04 APERTURE LIST*
G04 Aperture macros list*
%AMRoundRect*
0 Rectangle with rounded corners*
0 $1 Rounding radius*
0 $2 $3 $4 $5 $6 $7 $8 $9 X,Y pos of 4 corners*
0 Add a 4 corners polygon primitive as box body*
4,1,4,$2,$3,$4,$5,$6,$7,$8,$9,$2,$3,0*
0 Add four circle primitives for the rounded corners*
1,1,$1+$1,$2,$3*
1,1,$1+$1,$4,$5*
1,1,$1+$1,$6,$7*
1,1,$1+$1,$8,$9*
0 Add four rect primitives between the rounded corners*
20,1,$1+$1,$2,$3,$4,$5,0*
20,1,$1+$1,$4,$5,$6,$7,0*
20,1,$1+$1,$6,$7,$8,$9,0*
20,1,$1+$1,$8,$9,$2,$3,0*%
G04 Aperture macros list end*
%ADD10R,1.800000X1.800000*%
%ADD11C,1.800000*%
%ADD12RoundRect,0.250000X-0.350000X-0.450000X0.350000X-0.450000X0.350000X0.450000X-0.350000X0.450000X0*%
%ADD13RoundRect,0.250000X-0.337500X-0.475000X0.337500X-0.475000X0.337500X0.475000X-0.337500X0.475000X0*%
%ADD14RoundRect,0.250000X0.450000X-0.350000X0.450000X0.350000X-0.450000X0.350000X-0.450000X-0.350000X0*%
%ADD15R,1.700000X1.700000*%
%ADD16O,1.700000X1.700000*%
%ADD17RoundRect,0.250000X0.350000X0.450000X-0.350000X0.450000X-0.350000X-0.450000X0.350000X-0.450000X0*%
%ADD18RoundRect,0.250000X0.475000X-0.337500X0.475000X0.337500X-0.475000X0.337500X-0.475000X-0.337500X0*%
%ADD19C,1.524000*%
%ADD20R,1.981200X0.558800*%
%ADD21RoundRect,0.250000X-0.450000X0.350000X-0.450000X-0.350000X0.450000X-0.350000X0.450000X0.350000X0*%
%ADD22R,3.556000X1.778000*%
%ADD23RoundRect,0.102000X-0.515000X-0.310000X0.515000X-0.310000X0.515000X0.310000X-0.515000X0.310000X0*%
%ADD24RoundRect,0.102000X-0.515000X-0.250000X0.515000X-0.250000X0.515000X0.250000X-0.515000X0.250000X0*%
G04 APERTURE END LIST*
D10*
%TO.C,D1*%
X113802500Y-55283000D03*
D11*
X116342500Y-55283000D03*
%TD*%
D12*
%TO.C,R1*%
X98060000Y-54356000D03*
X100060000Y-54356000D03*
%TD*%
D13*
%TO.C,C3*%
X92769500Y-58928000D03*
X94844500Y-58928000D03*
%TD*%
D14*
%TO.C,Rf2*%
X107823000Y-58404000D03*
X107823000Y-56404000D03*
%TD*%
D15*
%TO.C,J1*%
X115824000Y-47884000D03*
D16*
X115824000Y-45344000D03*
%TD*%
D17*
%TO.C,Rs1*%
X94837000Y-56881000D03*
X92837000Y-56881000D03*
%TD*%
D18*
%TO.C,C1*%
X86741000Y-45085000D03*
X86741000Y-43010000D03*
%TD*%
D19*
%TO.C,C2*%
X94361000Y-66802000D03*
X94361000Y-64262000D03*
%TD*%
D12*
%TO.C,Rf1*%
X92837000Y-54737000D03*
X94837000Y-54737000D03*
%TD*%
D20*
%TO.C,U2*%
X103632000Y-56896000D03*
X103632000Y-58166000D03*
X103632000Y-59436000D03*
X103632000Y-60706000D03*
X98704400Y-60706000D03*
X98704400Y-59436000D03*
X98704400Y-58166000D03*
X98704400Y-56896000D03*
%TD*%
D12*
%TO.C,R2*%
X102362000Y-54356000D03*
X104362000Y-54356000D03*
%TD*%
D21*
%TO.C,Rb1*%
X112395000Y-45593000D03*
X112395000Y-47593000D03*
%TD*%
D22*
%TO.C,U1*%
X108839000Y-35052000D03*
X108839000Y-37592000D03*
X108839000Y-40132000D03*
X108839000Y-42672000D03*
X108839000Y-45212000D03*
X108839000Y-47752000D03*
X108839000Y-50292000D03*
X92075000Y-35052000D03*
X92075000Y-37592000D03*
X92075000Y-40132000D03*
X92075000Y-42672000D03*
X92075000Y-45212000D03*
X92075000Y-47752000D03*
X92075000Y-50292000D03*
%TD*%
D12*
%TO.C,Rg1*%
X107712000Y-54356000D03*
X109712000Y-54356000D03*
%TD*%
D23*
%TO.C,MK1*%
X83604000Y-51045000D03*
D24*
X83604000Y-50165000D03*
D23*
X83604000Y-49285000D03*
X85814000Y-49285000D03*
D24*
X85814000Y-50165000D03*
D23*
X85814000Y-51045000D03*
%TD*%
M02*
