%TF.GenerationSoftware,KiCad,Pcbnew,7.0.9*%
%TF.CreationDate,2024-04-20T19:42:18-07:00*%
%TF.ProjectId,mini_lipo_v1,6d696e69-5f6c-4697-906f-5f76312e6b69,rev?*%
%TF.SameCoordinates,Original*%
%TF.FileFunction,Copper,L1,Top*%
%TF.FilePolarity,Positive*%
%FSLAX46Y46*%
G04 Gerber Fmt 4.6, Leading zero omitted, Abs format (unit mm)*
G04 Created by KiCad (PCBNEW 7.0.9) date 2024-04-20 19:42:18*
%MOMM*%
%LPD*%
G01*
G04 APERTURE LIST*
G04 Aperture macros list*
%AMRoundRect*
0 Rectangle with rounded corners*
0 $1 Rounding radius*
0 $2 $3 $4 $5 $6 $7 $8 $9 X,Y pos of 4 corners*
0 Add a 4 corners polygon primitive as box body*
4,1,4,$2,$3,$4,$5,$6,$7,$8,$9,$2,$3,0*
0 Add four circle primitives for the rounded corners*
1,1,$1+$1,$2,$3*
1,1,$1+$1,$4,$5*
1,1,$1+$1,$6,$7*
1,1,$1+$1,$8,$9*
0 Add four rect primitives between the rounded corners*
20,1,$1+$1,$2,$3,$4,$5,0*
20,1,$1+$1,$4,$5,$6,$7,0*
20,1,$1+$1,$6,$7,$8,$9,0*
20,1,$1+$1,$8,$9,$2,$3,0*%
G04 Aperture macros list end*
%TA.AperFunction,SMDPad,CuDef*%
%ADD10RoundRect,0.250000X-0.337500X-0.475000X0.337500X-0.475000X0.337500X0.475000X-0.337500X0.475000X0*%
%TD*%
%TA.AperFunction,ComponentPad*%
%ADD11R,1.800000X1.800000*%
%TD*%
%TA.AperFunction,ComponentPad*%
%ADD12C,1.800000*%
%TD*%
%TA.AperFunction,ComponentPad*%
%ADD13R,1.700000X1.700000*%
%TD*%
%TA.AperFunction,ComponentPad*%
%ADD14O,1.700000X1.700000*%
%TD*%
%TA.AperFunction,ComponentPad*%
%ADD15C,1.524000*%
%TD*%
%TA.AperFunction,ViaPad*%
%ADD16C,0.800000*%
%TD*%
%TA.AperFunction,Conductor*%
%ADD17C,0.500000*%
%TD*%
%TA.AperFunction,Conductor*%
%ADD18C,0.250000*%
%TD*%
G04 APERTURE END LIST*
D10*
%TO.P,Rled1,1*%
%TO.N,Net-(D1-K)*%
X113495000Y-59563000D03*
%TO.P,Rled1,2*%
%TO.N,GND*%
X115570000Y-59563000D03*
%TD*%
D11*
%TO.P,D1,1,K*%
%TO.N,Net-(D1-K)*%
X113802500Y-55283000D03*
D12*
%TO.P,D1,2,A*%
%TO.N,/D2*%
X116342500Y-55283000D03*
%TD*%
D13*
%TO.P,J1,1,Pin_1*%
%TO.N,/1{slash}2 3V3*%
X115824000Y-47884000D03*
D14*
%TO.P,J1,2,Pin_2*%
%TO.N,/Piezo+*%
X115824000Y-45344000D03*
%TD*%
D15*
%TO.P,C2,1*%
%TO.N,/3V3*%
X94361000Y-66802000D03*
%TO.P,C2,2*%
%TO.N,GND*%
X94361000Y-64262000D03*
%TD*%
D16*
%TO.N,/D2*%
X113665000Y-41910000D03*
%TO.N,GND*%
X105664000Y-54356000D03*
X88392000Y-40386000D03*
%TO.N,/3V3*%
X88646000Y-43180000D03*
X98044000Y-52832000D03*
%TO.N,/1{slash}2 3V3*%
X105410000Y-52832000D03*
X112395000Y-49276000D03*
%TO.N,/A0*%
X105029000Y-36322000D03*
X105664000Y-56388000D03*
%TO.N,/IN2-*%
X96393000Y-59182000D03*
X91313000Y-54737000D03*
%TD*%
D17*
%TO.N,/D2*%
X116342500Y-55283000D02*
X114649000Y-53589500D01*
X114649000Y-50768000D02*
X113665000Y-49784000D01*
X114649000Y-53589500D02*
X114649000Y-50768000D01*
X113665000Y-49784000D02*
X113665000Y-41910000D01*
%TO.N,Net-(D1-K)*%
X113495000Y-59563000D02*
X113495000Y-55590500D01*
D18*
X113495000Y-55590500D02*
X113802500Y-55283000D01*
D17*
%TO.N,GND*%
X88392000Y-40386000D02*
X88392000Y-41529000D01*
X104423541Y-57560541D02*
X105693541Y-57560541D01*
X88392000Y-41529000D02*
X104423541Y-57560541D01*
X106514000Y-56740082D02*
X105693541Y-57560541D01*
X105664000Y-54356000D02*
X106514000Y-55206000D01*
X106514000Y-55206000D02*
X106514000Y-56740082D01*
%TO.N,/3V3*%
X98044000Y-52832000D02*
X98044000Y-63119000D01*
X98044000Y-63119000D02*
X94361000Y-66802000D01*
X88646000Y-43434000D02*
X98044000Y-52832000D01*
X88646000Y-43180000D02*
X88646000Y-43434000D01*
%TO.N,/1{slash}2 3V3*%
X108839000Y-52832000D02*
X112395000Y-49276000D01*
X105410000Y-52832000D02*
X108839000Y-52832000D01*
%TO.N,/A0*%
X100797000Y-38428183D02*
X102903183Y-36322000D01*
X102903183Y-36322000D02*
X105029000Y-36322000D01*
X105664000Y-56388000D02*
X100797000Y-51521000D01*
X100797000Y-51521000D02*
X100797000Y-38428183D01*
%TO.N,/IN2-*%
X91313000Y-54737000D02*
X95758000Y-59182000D01*
X95758000Y-59182000D02*
X96393000Y-59182000D01*
%TD*%
%TA.AperFunction,Conductor*%
%TO.N,GND*%
G36*
X101264403Y-30244620D02*
G01*
X101443950Y-30252684D01*
X102160049Y-30300964D01*
X102339089Y-30317079D01*
X103052233Y-30397431D01*
X103052242Y-30397432D01*
X103230386Y-30421562D01*
X103864526Y-30522000D01*
X103939220Y-30533831D01*
X103974222Y-30540182D01*
X104116148Y-30565938D01*
X104819220Y-30709893D01*
X104994454Y-30749888D01*
X105690422Y-30925257D01*
X105863692Y-30973076D01*
X106485725Y-31159863D01*
X106551060Y-31179483D01*
X106722050Y-31235040D01*
X107399462Y-31472077D01*
X107567745Y-31535234D01*
X108233847Y-31802427D01*
X108399173Y-31873091D01*
X108847183Y-32076586D01*
X109052557Y-32169872D01*
X109052582Y-32169883D01*
X109214585Y-32247900D01*
X109854029Y-32573713D01*
X109958011Y-32629669D01*
X110012335Y-32658902D01*
X110636494Y-33013061D01*
X110790884Y-33105304D01*
X111398487Y-33487087D01*
X111398518Y-33487106D01*
X111548573Y-33586156D01*
X112138539Y-33994886D01*
X112283916Y-34100509D01*
X112854975Y-34535314D01*
X112995522Y-34647398D01*
X113546405Y-35107308D01*
X113681827Y-35225623D01*
X114211538Y-35709800D01*
X114341489Y-35834046D01*
X114848953Y-36341510D01*
X114973199Y-36471461D01*
X115457376Y-37001172D01*
X115575691Y-37136594D01*
X116035615Y-37687493D01*
X116147701Y-37828045D01*
X116293096Y-38019002D01*
X116549027Y-38355134D01*
X116582479Y-38399068D01*
X116631001Y-38465853D01*
X116688122Y-38544473D01*
X117096840Y-39134422D01*
X117195893Y-39284481D01*
X117577694Y-39892114D01*
X117669931Y-40046492D01*
X118024097Y-40670664D01*
X118109290Y-40828977D01*
X118435099Y-41468414D01*
X118513116Y-41630417D01*
X118809908Y-42283826D01*
X118880572Y-42449152D01*
X119147758Y-43115237D01*
X119210921Y-43283534D01*
X119447958Y-43960946D01*
X119503515Y-44131935D01*
X119709917Y-44819285D01*
X119757741Y-44992572D01*
X119933100Y-45688499D01*
X119960297Y-45807655D01*
X119973107Y-45863781D01*
X120117060Y-46566845D01*
X120149168Y-46743779D01*
X120261432Y-47452583D01*
X120285567Y-47630757D01*
X120365920Y-48343909D01*
X120382036Y-48522974D01*
X120430313Y-49239012D01*
X120438379Y-49418613D01*
X120456468Y-50224608D01*
X120456468Y-50227390D01*
X120438379Y-51033386D01*
X120430313Y-51212987D01*
X120382036Y-51929025D01*
X120365920Y-52108090D01*
X120285567Y-52821242D01*
X120261432Y-52999416D01*
X120149168Y-53708220D01*
X120117060Y-53885154D01*
X119973107Y-54588218D01*
X119933107Y-54763470D01*
X119860480Y-55051702D01*
X119757742Y-55459425D01*
X119709917Y-55632714D01*
X119503515Y-56320064D01*
X119447958Y-56491053D01*
X119210921Y-57168465D01*
X119147758Y-57336762D01*
X118880572Y-58002847D01*
X118809908Y-58168173D01*
X118513116Y-58821582D01*
X118435099Y-58983585D01*
X118109290Y-59623022D01*
X118024097Y-59781335D01*
X117669931Y-60405507D01*
X117577694Y-60559885D01*
X117195893Y-61167518D01*
X117096840Y-61317577D01*
X116688122Y-61907526D01*
X116582486Y-62052922D01*
X116147701Y-62623954D01*
X116035615Y-62764506D01*
X115575691Y-63315405D01*
X115457376Y-63450827D01*
X114973199Y-63980538D01*
X114848953Y-64110489D01*
X114341489Y-64617953D01*
X114211538Y-64742199D01*
X113681827Y-65226376D01*
X113546405Y-65344691D01*
X112995506Y-65804615D01*
X112854954Y-65916701D01*
X112283922Y-66351486D01*
X112138526Y-66457122D01*
X111548577Y-66865840D01*
X111398518Y-66964893D01*
X110790885Y-67346694D01*
X110636507Y-67438931D01*
X110012335Y-67793097D01*
X109854022Y-67878290D01*
X109214585Y-68204099D01*
X109052582Y-68282116D01*
X108399173Y-68578908D01*
X108233847Y-68649572D01*
X107567762Y-68916758D01*
X107399465Y-68979921D01*
X106722053Y-69216958D01*
X106551064Y-69272515D01*
X105863714Y-69478917D01*
X105690425Y-69526742D01*
X104994511Y-69702097D01*
X104888289Y-69726342D01*
X104819218Y-69742107D01*
X104116154Y-69886060D01*
X103939220Y-69918168D01*
X103230416Y-70030432D01*
X103052242Y-70054567D01*
X102339090Y-70134920D01*
X102160025Y-70151036D01*
X101443987Y-70199313D01*
X101264386Y-70207379D01*
X100546870Y-70223483D01*
X100367130Y-70223483D01*
X99649613Y-70207379D01*
X99470012Y-70199313D01*
X98753974Y-70151036D01*
X98574909Y-70134920D01*
X97861757Y-70054567D01*
X97683583Y-70030432D01*
X96974779Y-69918168D01*
X96797845Y-69886060D01*
X96094781Y-69742107D01*
X96074397Y-69737454D01*
X95919499Y-69702100D01*
X95223572Y-69526741D01*
X95050285Y-69478917D01*
X94362935Y-69272515D01*
X94191946Y-69216958D01*
X93514534Y-68979921D01*
X93346237Y-68916758D01*
X92680152Y-68649572D01*
X92514826Y-68578908D01*
X91861417Y-68282116D01*
X91699414Y-68204099D01*
X91059989Y-67878296D01*
X91015473Y-67854341D01*
X90901664Y-67793097D01*
X90277492Y-67438931D01*
X90123114Y-67346694D01*
X89515481Y-66964893D01*
X89365422Y-66865840D01*
X88775473Y-66457122D01*
X88768033Y-66451717D01*
X88630068Y-66351479D01*
X88059045Y-65916701D01*
X88007234Y-65875383D01*
X87918493Y-65804615D01*
X87595160Y-65534677D01*
X87367594Y-65344691D01*
X87232172Y-65226376D01*
X86702461Y-64742199D01*
X86572510Y-64617953D01*
X86065046Y-64110489D01*
X85940800Y-63980538D01*
X85456623Y-63450827D01*
X85338308Y-63315405D01*
X84878398Y-62764522D01*
X84766298Y-62623954D01*
X84752678Y-62606067D01*
X84331509Y-62052916D01*
X84225877Y-61907526D01*
X83817156Y-61317573D01*
X83718106Y-61167518D01*
X83479638Y-60787999D01*
X83336304Y-60559884D01*
X83244068Y-60405507D01*
X82889902Y-59781335D01*
X82860669Y-59727011D01*
X82804710Y-59623022D01*
X82478900Y-58983585D01*
X82400883Y-58821582D01*
X82376847Y-58768666D01*
X82250638Y-58490807D01*
X82104091Y-58168173D01*
X82033427Y-58002847D01*
X81766234Y-57336745D01*
X81703077Y-57168462D01*
X81466040Y-56491050D01*
X81410483Y-56320060D01*
X81358259Y-56146147D01*
X81204076Y-55632692D01*
X81156257Y-55459422D01*
X80980888Y-54763454D01*
X80940893Y-54588218D01*
X80796938Y-53885148D01*
X80764831Y-53708220D01*
X80702543Y-53314951D01*
X80652564Y-52999399D01*
X80628432Y-52821242D01*
X80588149Y-52463722D01*
X80548078Y-52108081D01*
X80543554Y-52057818D01*
X80531963Y-51929025D01*
X80483684Y-51212950D01*
X80475620Y-51033403D01*
X80459517Y-50315869D01*
X80459517Y-50136130D01*
X80462758Y-49991707D01*
X80475620Y-49418596D01*
X80483687Y-49239012D01*
X80531964Y-48522962D01*
X80534764Y-48491851D01*
X80548079Y-48343909D01*
X80628432Y-47630751D01*
X80652562Y-47452617D01*
X80764831Y-46743777D01*
X80796931Y-46566886D01*
X80940894Y-45863771D01*
X80980893Y-45688524D01*
X81156259Y-44992567D01*
X81204083Y-44819285D01*
X81410489Y-44131919D01*
X81430576Y-44070098D01*
X81466028Y-43960984D01*
X81703079Y-43283532D01*
X81741935Y-43180000D01*
X87740540Y-43180000D01*
X87760326Y-43368256D01*
X87760327Y-43368259D01*
X87818818Y-43548277D01*
X87818821Y-43548284D01*
X87913467Y-43712216D01*
X87971140Y-43776268D01*
X87982591Y-43791101D01*
X88012964Y-43837283D01*
X88053287Y-43902655D01*
X88057766Y-43908319D01*
X88057719Y-43908356D01*
X88062482Y-43914202D01*
X88062528Y-43914164D01*
X88067173Y-43919700D01*
X88123017Y-43972385D01*
X97131228Y-52980596D01*
X97161478Y-53029958D01*
X97216819Y-53200280D01*
X97216821Y-53200284D01*
X97276887Y-53304321D01*
X97293500Y-53366321D01*
X97293500Y-58513299D01*
X97273815Y-58580338D01*
X97221011Y-58626093D01*
X97151853Y-58636037D01*
X97088297Y-58607012D01*
X97077350Y-58596272D01*
X97063003Y-58580338D01*
X96998871Y-58509112D01*
X96979844Y-58495288D01*
X96845734Y-58397851D01*
X96845729Y-58397848D01*
X96672807Y-58320857D01*
X96672802Y-58320855D01*
X96527001Y-58289865D01*
X96487646Y-58281500D01*
X96298354Y-58281500D01*
X96258999Y-58289865D01*
X96113198Y-58320855D01*
X96113197Y-58320855D01*
X96083818Y-58333936D01*
X96014568Y-58343219D01*
X95951292Y-58313589D01*
X95945704Y-58308336D01*
X92225770Y-54588402D01*
X92195521Y-54539041D01*
X92140179Y-54368716D01*
X92045533Y-54204784D01*
X91918871Y-54064112D01*
X91918870Y-54064111D01*
X91765734Y-53952851D01*
X91765729Y-53952848D01*
X91592807Y-53875857D01*
X91592802Y-53875855D01*
X91447001Y-53844865D01*
X91407646Y-53836500D01*
X91218354Y-53836500D01*
X91185897Y-53843398D01*
X91033197Y-53875855D01*
X91033192Y-53875857D01*
X90860270Y-53952848D01*
X90860265Y-53952851D01*
X90707129Y-54064111D01*
X90580466Y-54204785D01*
X90485821Y-54368715D01*
X90485818Y-54368722D01*
X90430479Y-54539039D01*
X90427326Y-54548744D01*
X90407540Y-54737000D01*
X90427326Y-54925256D01*
X90427327Y-54925259D01*
X90485818Y-55105277D01*
X90485821Y-55105284D01*
X90580467Y-55269216D01*
X90592884Y-55283006D01*
X90707129Y-55409888D01*
X90860265Y-55521148D01*
X90860270Y-55521151D01*
X91033191Y-55598142D01*
X91033193Y-55598142D01*
X91033197Y-55598144D01*
X91098329Y-55611987D01*
X91159809Y-55645178D01*
X91160228Y-55645596D01*
X95182267Y-59667634D01*
X95194048Y-59681266D01*
X95208390Y-59700530D01*
X95248420Y-59734119D01*
X95252392Y-59737759D01*
X95258223Y-59743590D01*
X95258222Y-59743590D01*
X95283944Y-59763927D01*
X95342786Y-59813302D01*
X95342794Y-59813306D01*
X95348824Y-59817273D01*
X95348790Y-59817323D01*
X95355137Y-59821366D01*
X95355169Y-59821316D01*
X95361318Y-59825108D01*
X95361320Y-59825109D01*
X95361323Y-59825111D01*
X95430930Y-59857569D01*
X95499567Y-59892040D01*
X95499576Y-59892042D01*
X95506355Y-59894510D01*
X95506334Y-59894567D01*
X95513451Y-59897040D01*
X95513470Y-59896984D01*
X95520330Y-59899257D01*
X95595532Y-59914784D01*
X95670279Y-59932500D01*
X95670288Y-59932500D01*
X95677452Y-59933338D01*
X95677445Y-59933397D01*
X95684946Y-59934163D01*
X95684952Y-59934104D01*
X95692140Y-59934733D01*
X95692143Y-59934732D01*
X95692144Y-59934733D01*
X95768898Y-59932500D01*
X95853663Y-59932500D01*
X95920702Y-59952185D01*
X95926548Y-59956182D01*
X95940265Y-59966148D01*
X95940270Y-59966151D01*
X96113192Y-60043142D01*
X96113197Y-60043144D01*
X96298354Y-60082500D01*
X96298355Y-60082500D01*
X96487644Y-60082500D01*
X96487646Y-60082500D01*
X96672803Y-60043144D01*
X96845730Y-59966151D01*
X96998871Y-59854888D01*
X97077350Y-59767727D01*
X97136837Y-59731079D01*
X97206694Y-59732410D01*
X97264742Y-59771296D01*
X97292552Y-59835393D01*
X97293500Y-59850700D01*
X97293500Y-62756769D01*
X97273815Y-62823808D01*
X97257181Y-62844450D01*
X95832893Y-64268737D01*
X95771570Y-64302222D01*
X95701878Y-64297238D01*
X95645945Y-64255366D01*
X95621684Y-64191863D01*
X95608575Y-64042024D01*
X95608573Y-64042013D01*
X95551424Y-63828729D01*
X95551420Y-63828720D01*
X95458098Y-63628590D01*
X95412740Y-63563811D01*
X94745903Y-64230648D01*
X94745949Y-64230102D01*
X94714734Y-64106838D01*
X94645187Y-64000388D01*
X94544843Y-63922287D01*
X94424578Y-63881000D01*
X94388447Y-63881000D01*
X95059187Y-63210258D01*
X94994409Y-63164900D01*
X94994407Y-63164899D01*
X94794284Y-63071580D01*
X94794270Y-63071575D01*
X94580986Y-63014426D01*
X94580976Y-63014424D01*
X94361001Y-62995179D01*
X94360999Y-62995179D01*
X94141023Y-63014424D01*
X94141013Y-63014426D01*
X93927729Y-63071575D01*
X93927720Y-63071579D01*
X93727586Y-63164903D01*
X93662812Y-63210257D01*
X93662811Y-63210258D01*
X94333554Y-63881000D01*
X94329431Y-63881000D01*
X94235579Y-63896661D01*
X94123749Y-63957180D01*
X94037629Y-64050731D01*
X93986552Y-64167177D01*
X93980894Y-64235447D01*
X93309258Y-63563811D01*
X93309257Y-63563812D01*
X93263903Y-63628586D01*
X93170579Y-63828720D01*
X93170575Y-63828729D01*
X93113426Y-64042013D01*
X93113424Y-64042023D01*
X93094179Y-64261999D01*
X93094179Y-64262000D01*
X93113424Y-64481976D01*
X93113426Y-64481986D01*
X93170575Y-64695270D01*
X93170580Y-64695284D01*
X93263899Y-64895407D01*
X93263900Y-64895409D01*
X93309258Y-64960187D01*
X93976096Y-64293349D01*
X93976051Y-64293898D01*
X94007266Y-64417162D01*
X94076813Y-64523612D01*
X94177157Y-64601713D01*
X94297422Y-64643000D01*
X94333553Y-64643000D01*
X93662811Y-65313741D01*
X93727582Y-65359094D01*
X93727588Y-65359098D01*
X93856781Y-65419342D01*
X93909220Y-65465514D01*
X93928372Y-65532708D01*
X93908156Y-65599589D01*
X93856781Y-65644106D01*
X93727340Y-65704465D01*
X93727338Y-65704466D01*
X93546377Y-65831175D01*
X93390175Y-65987377D01*
X93263466Y-66168338D01*
X93263465Y-66168340D01*
X93170107Y-66368548D01*
X93170104Y-66368554D01*
X93112930Y-66581929D01*
X93112929Y-66581937D01*
X93093677Y-66801997D01*
X93093677Y-66802002D01*
X93112929Y-67022062D01*
X93112930Y-67022070D01*
X93170104Y-67235445D01*
X93170105Y-67235447D01*
X93170106Y-67235450D01*
X93221980Y-67346694D01*
X93263466Y-67435662D01*
X93263468Y-67435666D01*
X93390170Y-67616615D01*
X93390175Y-67616621D01*
X93546378Y-67772824D01*
X93546384Y-67772829D01*
X93727333Y-67899531D01*
X93727335Y-67899532D01*
X93727338Y-67899534D01*
X93927550Y-67992894D01*
X94140932Y-68050070D01*
X94298123Y-68063822D01*
X94360998Y-68069323D01*
X94361000Y-68069323D01*
X94361002Y-68069323D01*
X94416017Y-68064509D01*
X94581068Y-68050070D01*
X94794450Y-67992894D01*
X94994662Y-67899534D01*
X95175620Y-67772826D01*
X95331826Y-67616620D01*
X95458534Y-67435662D01*
X95551894Y-67235450D01*
X95609070Y-67022068D01*
X95628323Y-66802000D01*
X95616793Y-66670213D01*
X95630559Y-66601715D01*
X95652637Y-66571729D01*
X98529638Y-63694727D01*
X98543267Y-63682950D01*
X98562530Y-63668610D01*
X98562532Y-63668606D01*
X98562534Y-63668606D01*
X98580663Y-63646999D01*
X98596113Y-63628585D01*
X98599767Y-63624599D01*
X98605591Y-63618776D01*
X98625930Y-63593052D01*
X98675302Y-63534214D01*
X98675306Y-63534205D01*
X98679274Y-63528175D01*
X98679325Y-63528208D01*
X98683369Y-63521860D01*
X98683317Y-63521828D01*
X98687104Y-63515685D01*
X98687111Y-63515677D01*
X98719572Y-63446063D01*
X98754040Y-63377433D01*
X98754041Y-63377427D01*
X98756508Y-63370650D01*
X98756566Y-63370671D01*
X98759043Y-63363544D01*
X98758986Y-63363526D01*
X98761255Y-63356679D01*
X98761256Y-63356674D01*
X98761257Y-63356672D01*
X98776790Y-63281441D01*
X98794500Y-63206721D01*
X98794500Y-63206719D01*
X98795339Y-63199548D01*
X98795398Y-63199554D01*
X98796164Y-63192054D01*
X98796105Y-63192049D01*
X98796734Y-63184859D01*
X98794500Y-63108082D01*
X98794500Y-53366321D01*
X98811113Y-53304321D01*
X98871179Y-53200284D01*
X98929674Y-53020256D01*
X98949460Y-52832000D01*
X98929674Y-52643744D01*
X98871179Y-52463716D01*
X98776533Y-52299784D01*
X98649871Y-52159112D01*
X98649870Y-52159111D01*
X98496734Y-52047851D01*
X98496729Y-52047848D01*
X98323807Y-51970857D01*
X98323803Y-51970856D01*
X98258669Y-51957011D01*
X98197188Y-51923818D01*
X98196770Y-51923402D01*
X97772393Y-51499025D01*
X100041710Y-51499025D01*
X100046264Y-51551064D01*
X100046500Y-51556470D01*
X100046500Y-51564709D01*
X100050306Y-51597274D01*
X100057000Y-51673791D01*
X100058461Y-51680867D01*
X100058403Y-51680878D01*
X100060034Y-51688237D01*
X100060092Y-51688224D01*
X100061757Y-51695250D01*
X100088025Y-51767424D01*
X100112185Y-51840331D01*
X100115236Y-51846874D01*
X100115182Y-51846898D01*
X100118470Y-51853688D01*
X100118521Y-51853663D01*
X100121761Y-51860113D01*
X100121762Y-51860114D01*
X100121763Y-51860117D01*
X100163386Y-51923402D01*
X100163965Y-51924283D01*
X100204287Y-51989655D01*
X100208766Y-51995319D01*
X100208719Y-51995356D01*
X100213482Y-52001202D01*
X100213528Y-52001164D01*
X100218173Y-52006700D01*
X100274018Y-52059386D01*
X104751228Y-56536595D01*
X104781478Y-56585958D01*
X104836818Y-56756277D01*
X104836821Y-56756284D01*
X104931467Y-56920216D01*
X105058129Y-57060888D01*
X105211265Y-57172148D01*
X105211270Y-57172151D01*
X105384192Y-57249142D01*
X105384197Y-57249144D01*
X105569354Y-57288500D01*
X105569355Y-57288500D01*
X105758644Y-57288500D01*
X105758646Y-57288500D01*
X105943803Y-57249144D01*
X106116730Y-57172151D01*
X106269871Y-57060888D01*
X106396533Y-56920216D01*
X106491179Y-56756284D01*
X106549674Y-56576256D01*
X106569460Y-56388000D01*
X106549674Y-56199744D01*
X106491179Y-56019716D01*
X106396533Y-55855784D01*
X106269871Y-55715112D01*
X106269870Y-55715111D01*
X106116734Y-55603851D01*
X106116729Y-55603848D01*
X105943807Y-55526857D01*
X105943802Y-55526855D01*
X105878669Y-55513011D01*
X105817187Y-55479818D01*
X105816769Y-55479402D01*
X103169368Y-52832000D01*
X104504540Y-52832000D01*
X104524326Y-53020256D01*
X104524327Y-53020259D01*
X104582818Y-53200277D01*
X104582821Y-53200284D01*
X104677467Y-53364216D01*
X104727945Y-53420277D01*
X104804129Y-53504888D01*
X104957265Y-53616148D01*
X104957270Y-53616151D01*
X105130192Y-53693142D01*
X105130197Y-53693144D01*
X105315354Y-53732500D01*
X105315355Y-53732500D01*
X105504644Y-53732500D01*
X105504646Y-53732500D01*
X105689803Y-53693144D01*
X105862730Y-53616151D01*
X105864776Y-53614664D01*
X105876452Y-53606182D01*
X105942258Y-53582702D01*
X105949337Y-53582500D01*
X108775295Y-53582500D01*
X108793265Y-53583809D01*
X108817023Y-53587289D01*
X108869068Y-53582735D01*
X108874470Y-53582500D01*
X108882704Y-53582500D01*
X108882709Y-53582500D01*
X108894327Y-53581141D01*
X108915276Y-53578693D01*
X108928028Y-53577577D01*
X108991797Y-53571999D01*
X108991805Y-53571996D01*
X108998866Y-53570539D01*
X108998878Y-53570598D01*
X109006243Y-53568965D01*
X109006229Y-53568906D01*
X109013246Y-53567241D01*
X109013255Y-53567241D01*
X109085423Y-53540974D01*
X109158334Y-53516814D01*
X109158343Y-53516807D01*
X109164882Y-53513760D01*
X109164908Y-53513816D01*
X109171690Y-53510532D01*
X109171663Y-53510478D01*
X109178106Y-53507240D01*
X109178117Y-53507237D01*
X109242283Y-53465034D01*
X109307656Y-53424712D01*
X109307662Y-53424705D01*
X109313325Y-53420229D01*
X109313362Y-53420277D01*
X109319204Y-53415518D01*
X109319164Y-53415471D01*
X109324691Y-53410832D01*
X109324696Y-53410830D01*
X109377386Y-53354981D01*
X112547770Y-50184595D01*
X112609091Y-50151112D01*
X112609427Y-50151039D01*
X112674803Y-50137144D01*
X112829839Y-50068116D01*
X112899086Y-50058831D01*
X112962363Y-50088459D01*
X112984877Y-50117688D01*
X112985796Y-50117085D01*
X113031965Y-50187283D01*
X113072287Y-50252655D01*
X113076766Y-50258319D01*
X113076719Y-50258356D01*
X113081482Y-50264202D01*
X113081528Y-50264164D01*
X113086173Y-50269700D01*
X113117598Y-50299347D01*
X113142019Y-50322387D01*
X113511337Y-50691705D01*
X113862181Y-51042548D01*
X113895666Y-51103871D01*
X113898500Y-51130229D01*
X113898500Y-53525794D01*
X113897191Y-53543763D01*
X113893710Y-53567525D01*
X113898264Y-53619564D01*
X113898500Y-53624970D01*
X113898500Y-53633209D01*
X113902306Y-53665774D01*
X113909472Y-53747694D01*
X113895705Y-53816194D01*
X113847089Y-53866376D01*
X113785944Y-53882500D01*
X112854629Y-53882500D01*
X112854623Y-53882501D01*
X112795016Y-53888908D01*
X112660171Y-53939202D01*
X112660164Y-53939206D01*
X112544955Y-54025452D01*
X112544952Y-54025455D01*
X112458706Y-54140664D01*
X112458702Y-54140671D01*
X112408408Y-54275517D01*
X112402001Y-54335116D01*
X112402000Y-54335135D01*
X112402000Y-56230870D01*
X112402001Y-56230876D01*
X112408408Y-56290483D01*
X112458702Y-56425328D01*
X112458706Y-56425335D01*
X112544952Y-56540544D01*
X112544955Y-56540547D01*
X112660165Y-56626794D01*
X112660167Y-56626794D01*
X112660169Y-56626796D01*
X112663829Y-56628161D01*
X112666960Y-56630504D01*
X112667952Y-56631046D01*
X112667874Y-56631188D01*
X112719763Y-56670028D01*
X112744184Y-56735492D01*
X112744500Y-56744344D01*
X112744500Y-58391752D01*
X112724815Y-58458791D01*
X112693502Y-58489531D01*
X112694511Y-58490807D01*
X112688843Y-58495288D01*
X112564789Y-58619342D01*
X112472687Y-58768663D01*
X112472685Y-58768668D01*
X112472615Y-58768880D01*
X112417501Y-58935203D01*
X112417501Y-58935204D01*
X112417500Y-58935204D01*
X112407000Y-59037983D01*
X112407000Y-60088001D01*
X112407001Y-60088019D01*
X112417500Y-60190796D01*
X112417501Y-60190799D01*
X112472615Y-60357119D01*
X112472686Y-60357334D01*
X112564788Y-60506656D01*
X112688844Y-60630712D01*
X112838166Y-60722814D01*
X113004703Y-60777999D01*
X113107491Y-60788500D01*
X113882508Y-60788499D01*
X113882516Y-60788498D01*
X113882519Y-60788498D01*
X113938802Y-60782748D01*
X113985297Y-60777999D01*
X114151834Y-60722814D01*
X114301156Y-60630712D01*
X114425212Y-60506656D01*
X114427252Y-60503347D01*
X114429245Y-60501555D01*
X114429693Y-60500989D01*
X114429789Y-60501065D01*
X114479194Y-60456623D01*
X114548156Y-60445395D01*
X114612240Y-60473234D01*
X114638329Y-60503339D01*
X114640181Y-60506341D01*
X114640183Y-60506344D01*
X114764154Y-60630315D01*
X114913375Y-60722356D01*
X114913380Y-60722358D01*
X115079802Y-60777505D01*
X115079809Y-60777506D01*
X115182519Y-60787999D01*
X115319999Y-60787999D01*
X115320000Y-60787998D01*
X115320000Y-59813000D01*
X115820000Y-59813000D01*
X115820000Y-60787999D01*
X115957472Y-60787999D01*
X115957486Y-60787998D01*
X116060197Y-60777505D01*
X116226619Y-60722358D01*
X116226624Y-60722356D01*
X116375845Y-60630315D01*
X116499815Y-60506345D01*
X116591856Y-60357124D01*
X116591858Y-60357119D01*
X116647005Y-60190697D01*
X116647006Y-60190690D01*
X116657499Y-60087986D01*
X116657500Y-60087973D01*
X116657500Y-59813000D01*
X115820000Y-59813000D01*
X115320000Y-59813000D01*
X115320000Y-58338000D01*
X115820000Y-58338000D01*
X115820000Y-59313000D01*
X116657499Y-59313000D01*
X116657499Y-59038028D01*
X116657498Y-59038013D01*
X116647005Y-58935302D01*
X116591858Y-58768880D01*
X116591856Y-58768875D01*
X116499815Y-58619654D01*
X116375845Y-58495684D01*
X116226624Y-58403643D01*
X116226619Y-58403641D01*
X116060197Y-58348494D01*
X116060190Y-58348493D01*
X115957486Y-58338000D01*
X115820000Y-58338000D01*
X115320000Y-58338000D01*
X115182527Y-58338000D01*
X115182512Y-58338001D01*
X115079802Y-58348494D01*
X114913380Y-58403641D01*
X114913375Y-58403643D01*
X114764154Y-58495684D01*
X114640183Y-58619655D01*
X114640179Y-58619660D01*
X114638326Y-58622665D01*
X114636518Y-58624290D01*
X114635702Y-58625323D01*
X114635525Y-58625183D01*
X114586374Y-58669385D01*
X114517411Y-58680601D01*
X114453331Y-58652752D01*
X114427253Y-58622653D01*
X114427237Y-58622628D01*
X114425212Y-58619344D01*
X114301156Y-58495288D01*
X114295489Y-58490807D01*
X114296930Y-58488984D01*
X114257675Y-58445335D01*
X114245500Y-58391752D01*
X114245500Y-56807499D01*
X114265185Y-56740460D01*
X114317989Y-56694705D01*
X114369500Y-56683499D01*
X114750371Y-56683499D01*
X114750372Y-56683499D01*
X114809983Y-56677091D01*
X114944831Y-56626796D01*
X115060046Y-56540546D01*
X115146296Y-56425331D01*
X115174955Y-56348493D01*
X115216826Y-56292559D01*
X115282290Y-56268141D01*
X115350563Y-56282992D01*
X115382366Y-56307843D01*
X115389802Y-56315920D01*
X115390715Y-56316912D01*
X115390722Y-56316918D01*
X115573865Y-56459464D01*
X115573871Y-56459468D01*
X115573874Y-56459470D01*
X115716388Y-56536595D01*
X115763733Y-56562217D01*
X115777997Y-56569936D01*
X115891987Y-56609068D01*
X115997515Y-56645297D01*
X115997517Y-56645297D01*
X115997519Y-56645298D01*
X116226451Y-56683500D01*
X116226452Y-56683500D01*
X116458548Y-56683500D01*
X116458549Y-56683500D01*
X116687481Y-56645298D01*
X116907003Y-56569936D01*
X117111126Y-56459470D01*
X117294284Y-56316913D01*
X117451479Y-56146153D01*
X117578424Y-55951849D01*
X117671657Y-55739300D01*
X117728634Y-55514305D01*
X117728635Y-55514297D01*
X117747800Y-55283006D01*
X117747800Y-55282993D01*
X117728635Y-55051702D01*
X117728633Y-55051691D01*
X117671657Y-54826699D01*
X117578424Y-54614151D01*
X117451483Y-54419852D01*
X117451480Y-54419849D01*
X117451479Y-54419847D01*
X117294284Y-54249087D01*
X117294279Y-54249083D01*
X117294277Y-54249081D01*
X117111134Y-54106535D01*
X117111128Y-54106531D01*
X116907004Y-53996064D01*
X116906995Y-53996061D01*
X116687484Y-53920702D01*
X116474603Y-53885179D01*
X116458549Y-53882500D01*
X116226451Y-53882500D01*
X116098225Y-53903896D01*
X116028860Y-53895514D01*
X115990135Y-53869268D01*
X115435819Y-53314951D01*
X115402334Y-53253628D01*
X115399500Y-53227270D01*
X115399500Y-50831705D01*
X115400809Y-50813735D01*
X115404289Y-50789974D01*
X115399736Y-50737939D01*
X115399500Y-50732532D01*
X115399500Y-50724296D01*
X115399500Y-50724291D01*
X115395691Y-50691705D01*
X115388998Y-50615203D01*
X115388995Y-50615194D01*
X115387538Y-50608135D01*
X115387598Y-50608122D01*
X115385966Y-50600764D01*
X115385908Y-50600778D01*
X115384241Y-50593747D01*
X115384241Y-50593745D01*
X115357969Y-50521563D01*
X115333814Y-50448666D01*
X115330762Y-50442121D01*
X115330815Y-50442095D01*
X115327531Y-50435311D01*
X115327479Y-50435338D01*
X115324236Y-50428882D01*
X115282034Y-50364716D01*
X115241714Y-50299347D01*
X115237234Y-50293681D01*
X115237280Y-50293643D01*
X115232519Y-50287799D01*
X115232474Y-50287838D01*
X115227834Y-50282308D01*
X115171982Y-50229613D01*
X114451819Y-49509450D01*
X114418334Y-49448127D01*
X114415500Y-49421769D01*
X114415500Y-49188833D01*
X114435185Y-49121794D01*
X114487989Y-49076039D01*
X114557147Y-49066095D01*
X114613812Y-49089567D01*
X114616451Y-49091543D01*
X114616454Y-49091546D01*
X114731665Y-49177793D01*
X114731668Y-49177795D01*
X114731671Y-49177797D01*
X114866517Y-49228091D01*
X114866516Y-49228091D01*
X114873444Y-49228835D01*
X114926127Y-49234500D01*
X116721872Y-49234499D01*
X116781483Y-49228091D01*
X116916331Y-49177796D01*
X117031546Y-49091546D01*
X117117796Y-48976331D01*
X117168091Y-48841483D01*
X117174500Y-48781873D01*
X117174499Y-46986128D01*
X117168091Y-46926517D01*
X117117796Y-46791669D01*
X117117795Y-46791668D01*
X117117793Y-46791664D01*
X117031547Y-46676455D01*
X117031544Y-46676452D01*
X116916335Y-46590206D01*
X116916328Y-46590202D01*
X116784917Y-46541189D01*
X116728983Y-46499318D01*
X116704566Y-46433853D01*
X116719418Y-46365580D01*
X116740563Y-46337332D01*
X116862495Y-46215401D01*
X116998035Y-46021830D01*
X117097903Y-45807663D01*
X117159063Y-45579408D01*
X117179659Y-45344000D01*
X117159063Y-45108592D01*
X117112626Y-44935285D01*
X117097905Y-44880344D01*
X117097904Y-44880343D01*
X117097903Y-44880337D01*
X116998035Y-44666171D01*
X116993880Y-44660236D01*
X116862494Y-44472597D01*
X116695402Y-44305506D01*
X116695395Y-44305501D01*
X116501834Y-44169967D01*
X116501830Y-44169965D01*
X116501828Y-44169964D01*
X116287663Y-44070097D01*
X116287659Y-44070096D01*
X116287655Y-44070094D01*
X116059413Y-44008938D01*
X116059403Y-44008936D01*
X115824001Y-43988341D01*
X115823999Y-43988341D01*
X115588596Y-44008936D01*
X115588586Y-44008938D01*
X115360344Y-44070094D01*
X115360335Y-44070098D01*
X115146171Y-44169964D01*
X115146169Y-44169965D01*
X114952597Y-44305505D01*
X114785505Y-44472597D01*
X114649965Y-44666169D01*
X114647257Y-44670861D01*
X114645191Y-44669668D01*
X114605679Y-44714518D01*
X114538480Y-44733650D01*
X114471604Y-44713414D01*
X114426286Y-44660236D01*
X114415500Y-44609654D01*
X114415500Y-42444321D01*
X114432113Y-42382321D01*
X114492179Y-42278284D01*
X114550674Y-42098256D01*
X114570460Y-41910000D01*
X114550674Y-41721744D01*
X114492179Y-41541716D01*
X114397533Y-41377784D01*
X114270871Y-41237112D01*
X114270870Y-41237111D01*
X114117734Y-41125851D01*
X114117729Y-41125848D01*
X113944807Y-41048857D01*
X113944802Y-41048855D01*
X113799001Y-41017865D01*
X113759646Y-41009500D01*
X113570354Y-41009500D01*
X113537897Y-41016398D01*
X113385197Y-41048855D01*
X113385192Y-41048857D01*
X113212270Y-41125848D01*
X113212265Y-41125851D01*
X113059129Y-41237111D01*
X112932466Y-41377785D01*
X112837821Y-41541715D01*
X112837818Y-41541722D01*
X112779327Y-41721740D01*
X112779326Y-41721744D01*
X112759540Y-41910000D01*
X112779326Y-42098256D01*
X112779327Y-42098259D01*
X112837818Y-42278277D01*
X112837821Y-42278284D01*
X112888288Y-42365696D01*
X112897887Y-42382321D01*
X112914500Y-42444321D01*
X112914500Y-48330633D01*
X112894815Y-48397672D01*
X112842011Y-48443427D01*
X112772853Y-48453371D01*
X112740064Y-48443912D01*
X112674807Y-48414857D01*
X112674802Y-48414855D01*
X112529001Y-48383865D01*
X112489646Y-48375500D01*
X112300354Y-48375500D01*
X112267897Y-48382398D01*
X112115197Y-48414855D01*
X112115192Y-48414857D01*
X111942270Y-48491848D01*
X111942265Y-48491851D01*
X111789129Y-48603111D01*
X111662466Y-48743785D01*
X111567821Y-48907715D01*
X111567819Y-48907719D01*
X111512478Y-49078041D01*
X111482228Y-49127403D01*
X108564451Y-52045181D01*
X108503128Y-52078666D01*
X108476770Y-52081500D01*
X105949337Y-52081500D01*
X105882298Y-52061815D01*
X105876452Y-52057818D01*
X105862734Y-52047851D01*
X105862729Y-52047848D01*
X105689807Y-51970857D01*
X105689802Y-51970855D01*
X105544001Y-51939865D01*
X105504646Y-51931500D01*
X105315354Y-51931500D01*
X105282897Y-51938398D01*
X105130197Y-51970855D01*
X105130192Y-51970857D01*
X104957270Y-52047848D01*
X104957265Y-52047851D01*
X104804129Y-52159111D01*
X104677466Y-52299785D01*
X104582821Y-52463715D01*
X104582818Y-52463722D01*
X104524327Y-52643740D01*
X104524326Y-52643744D01*
X104504540Y-52832000D01*
X103169368Y-52832000D01*
X101583819Y-51246451D01*
X101550334Y-51185128D01*
X101547500Y-51158770D01*
X101547500Y-44828500D01*
X101567185Y-44761461D01*
X101619989Y-44715706D01*
X101671500Y-44704500D01*
X106909240Y-44704500D01*
X106909383Y-44704528D01*
X106909384Y-44704524D01*
X106933997Y-44704539D01*
X106934000Y-44704541D01*
X106934383Y-44704383D01*
X106934500Y-44704099D01*
X106934541Y-44704000D01*
X106934540Y-44703997D01*
X106934583Y-44679889D01*
X106934500Y-44679467D01*
X106934500Y-38632759D01*
X106934528Y-38632616D01*
X106934524Y-38632616D01*
X106934539Y-38608002D01*
X106934541Y-38608000D01*
X106934462Y-38607808D01*
X106934384Y-38607618D01*
X106934382Y-38607616D01*
X106934099Y-38607500D01*
X106934000Y-38607459D01*
X106909446Y-38607459D01*
X106909240Y-38607500D01*
X101978413Y-38607500D01*
X101911374Y-38587815D01*
X101865619Y-38535011D01*
X101855675Y-38465853D01*
X101884700Y-38402297D01*
X101890732Y-38395819D01*
X103177731Y-37108819D01*
X103239054Y-37075334D01*
X103265412Y-37072500D01*
X104489663Y-37072500D01*
X104556702Y-37092185D01*
X104562548Y-37096182D01*
X104576265Y-37106148D01*
X104576270Y-37106151D01*
X104749192Y-37183142D01*
X104749197Y-37183144D01*
X104934354Y-37222500D01*
X104934355Y-37222500D01*
X105123644Y-37222500D01*
X105123646Y-37222500D01*
X105308803Y-37183144D01*
X105481730Y-37106151D01*
X105634871Y-36994888D01*
X105761533Y-36854216D01*
X105856179Y-36690284D01*
X105914674Y-36510256D01*
X105934460Y-36322000D01*
X105914674Y-36133744D01*
X105856179Y-35953716D01*
X105761533Y-35789784D01*
X105634871Y-35649112D01*
X105634870Y-35649111D01*
X105481734Y-35537851D01*
X105481729Y-35537848D01*
X105308807Y-35460857D01*
X105308802Y-35460855D01*
X105163001Y-35429865D01*
X105123646Y-35421500D01*
X104934354Y-35421500D01*
X104901897Y-35428398D01*
X104749197Y-35460855D01*
X104749192Y-35460857D01*
X104576270Y-35537848D01*
X104576265Y-35537851D01*
X104562548Y-35547818D01*
X104496742Y-35571298D01*
X104489663Y-35571500D01*
X102966888Y-35571500D01*
X102948918Y-35570191D01*
X102925155Y-35566710D01*
X102879716Y-35570686D01*
X102873114Y-35571264D01*
X102867713Y-35571500D01*
X102859472Y-35571500D01*
X102837762Y-35574037D01*
X102826907Y-35575306D01*
X102811602Y-35576645D01*
X102750382Y-35582001D01*
X102743315Y-35583460D01*
X102743303Y-35583404D01*
X102735946Y-35585035D01*
X102735960Y-35585092D01*
X102728926Y-35586759D01*
X102656758Y-35613025D01*
X102583858Y-35637181D01*
X102577309Y-35640236D01*
X102577284Y-35640183D01*
X102570491Y-35643471D01*
X102570517Y-35643523D01*
X102564063Y-35646764D01*
X102499891Y-35688971D01*
X102434530Y-35729285D01*
X102428866Y-35733765D01*
X102428830Y-35733719D01*
X102422981Y-35738484D01*
X102423018Y-35738528D01*
X102417493Y-35743164D01*
X102364780Y-35799035D01*
X100311358Y-37852455D01*
X100297729Y-37864234D01*
X100278468Y-37878573D01*
X100244898Y-37918580D01*
X100241253Y-37922559D01*
X100235409Y-37928405D01*
X100215059Y-37954142D01*
X100165695Y-38012972D01*
X100161729Y-38019002D01*
X100161682Y-38018971D01*
X100157630Y-38025330D01*
X100157679Y-38025360D01*
X100153889Y-38031504D01*
X100121424Y-38101124D01*
X100086960Y-38169749D01*
X100084488Y-38176540D01*
X100084432Y-38176519D01*
X100081960Y-38183633D01*
X100082015Y-38183652D01*
X100079742Y-38190510D01*
X100071975Y-38228129D01*
X100064207Y-38265748D01*
X100051001Y-38321467D01*
X100046498Y-38340469D01*
X100045661Y-38347637D01*
X100045601Y-38347630D01*
X100044835Y-38355128D01*
X100044895Y-38355134D01*
X100044265Y-38362323D01*
X100046500Y-38439099D01*
X100046500Y-51457294D01*
X100045191Y-51475263D01*
X100041710Y-51499025D01*
X97772393Y-51499025D01*
X89583952Y-43310584D01*
X89550467Y-43249261D01*
X89548313Y-43209939D01*
X89551460Y-43180003D01*
X89551460Y-43180002D01*
X89544649Y-43115200D01*
X89531674Y-42991744D01*
X89473179Y-42811716D01*
X89378533Y-42647784D01*
X89251871Y-42507112D01*
X89172096Y-42449152D01*
X89098734Y-42395851D01*
X89098729Y-42395848D01*
X88925807Y-42318857D01*
X88925802Y-42318855D01*
X88760998Y-42283826D01*
X88740646Y-42279500D01*
X88551354Y-42279500D01*
X88531025Y-42283821D01*
X88366197Y-42318855D01*
X88366192Y-42318857D01*
X88193270Y-42395848D01*
X88193265Y-42395851D01*
X88040129Y-42507111D01*
X87913466Y-42647785D01*
X87818821Y-42811715D01*
X87818818Y-42811722D01*
X87760327Y-42991740D01*
X87760326Y-42991744D01*
X87740540Y-43180000D01*
X81741935Y-43180000D01*
X81766229Y-43115269D01*
X82033434Y-42449135D01*
X82056211Y-42395848D01*
X82104069Y-42283872D01*
X82400900Y-41630380D01*
X82478880Y-41468453D01*
X82804710Y-40828976D01*
X82889904Y-40670660D01*
X83244084Y-40046464D01*
X83336281Y-39892152D01*
X83718135Y-39284436D01*
X83817132Y-39134462D01*
X84225896Y-38544446D01*
X84331521Y-38399068D01*
X84766315Y-37828023D01*
X84878350Y-37687534D01*
X85338315Y-37136585D01*
X85362575Y-37108819D01*
X85456623Y-37001172D01*
X85479039Y-36976646D01*
X85940818Y-36471441D01*
X86065024Y-36341532D01*
X86572532Y-35834024D01*
X86702441Y-35709818D01*
X87232172Y-35225623D01*
X87367594Y-35107308D01*
X87918534Y-34647350D01*
X88059023Y-34535315D01*
X88630082Y-34100509D01*
X88775446Y-33994896D01*
X89365462Y-33586132D01*
X89515436Y-33487135D01*
X90123152Y-33105281D01*
X90277464Y-33013084D01*
X90901668Y-32658899D01*
X91059976Y-32573710D01*
X91699453Y-32247880D01*
X91861380Y-32169900D01*
X92514830Y-31873089D01*
X92680153Y-31802427D01*
X93346269Y-31535229D01*
X93514532Y-31472079D01*
X94191984Y-31235028D01*
X94362927Y-31179486D01*
X95050290Y-30973081D01*
X95223567Y-30925259D01*
X95919524Y-30749893D01*
X96094771Y-30709894D01*
X96797886Y-30565931D01*
X96974742Y-30533836D01*
X97683617Y-30421562D01*
X97861737Y-30397434D01*
X98574934Y-30317076D01*
X98753958Y-30300964D01*
X99470013Y-30252686D01*
X99649596Y-30244620D01*
X100367130Y-30228517D01*
X100546870Y-30228517D01*
X101264403Y-30244620D01*
G37*
%TD.AperFunction*%
%TD*%
M02*
