%TF.GenerationSoftware,KiCad,Pcbnew,7.0.9*%
%TF.CreationDate,2024-04-20T20:01:19-07:00*%
%TF.ProjectId,mini_v1,6d696e69-5f76-4312-9e6b-696361645f70,rev?*%
%TF.SameCoordinates,Original*%
%TF.FileFunction,Legend,Bot*%
%TF.FilePolarity,Positive*%
%FSLAX46Y46*%
G04 Gerber Fmt 4.6, Leading zero omitted, Abs format (unit mm)*
G04 Created by KiCad (PCBNEW 7.0.9) date 2024-04-20 20:01:19*
%MOMM*%
%LPD*%
G01*
G04 APERTURE LIST*
%ADD10C,0.150000*%
%ADD11C,0.100000*%
%ADD12C,0.120000*%
%ADD13C,0.152400*%
%ADD14C,0.200000*%
%ADD15C,0.127000*%
G04 APERTURE END LIST*
D10*
X88742217Y-38945072D02*
X88496491Y-38418301D01*
X89027932Y-38450200D02*
X88161906Y-37950200D01*
X88161906Y-37950200D02*
X87971430Y-38280115D01*
X87971430Y-38280115D02*
X87965050Y-38386403D01*
X87965050Y-38386403D02*
X87982480Y-38451452D01*
X87982480Y-38451452D02*
X88041149Y-38540310D01*
X88041149Y-38540310D02*
X88164867Y-38611739D01*
X88164867Y-38611739D02*
X88271155Y-38618118D01*
X88271155Y-38618118D02*
X88336204Y-38600688D01*
X88336204Y-38600688D02*
X88425062Y-38542019D01*
X88425062Y-38542019D02*
X88615539Y-38212105D01*
X87709525Y-38733747D02*
X87400002Y-39269858D01*
X87400002Y-39269858D02*
X87896583Y-39171659D01*
X87896583Y-39171659D02*
X87825154Y-39295377D01*
X87825154Y-39295377D02*
X87818774Y-39401665D01*
X87818774Y-39401665D02*
X87836204Y-39466714D01*
X87836204Y-39466714D02*
X87894873Y-39555572D01*
X87894873Y-39555572D02*
X88101070Y-39674620D01*
X88101070Y-39674620D02*
X88207358Y-39681000D01*
X88207358Y-39681000D02*
X88272407Y-39663570D01*
X88272407Y-39663570D02*
X88361265Y-39604901D01*
X88361265Y-39604901D02*
X88504122Y-39357465D01*
X88504122Y-39357465D02*
X88510502Y-39251177D01*
X88510502Y-39251177D02*
X88493072Y-39186128D01*
X99480666Y-53159819D02*
X99813999Y-52683628D01*
X100052094Y-53159819D02*
X100052094Y-52159819D01*
X100052094Y-52159819D02*
X99671142Y-52159819D01*
X99671142Y-52159819D02*
X99575904Y-52207438D01*
X99575904Y-52207438D02*
X99528285Y-52255057D01*
X99528285Y-52255057D02*
X99480666Y-52350295D01*
X99480666Y-52350295D02*
X99480666Y-52493152D01*
X99480666Y-52493152D02*
X99528285Y-52588390D01*
X99528285Y-52588390D02*
X99575904Y-52636009D01*
X99575904Y-52636009D02*
X99671142Y-52683628D01*
X99671142Y-52683628D02*
X100052094Y-52683628D01*
X98528285Y-53159819D02*
X99099713Y-53159819D01*
X98813999Y-53159819D02*
X98813999Y-52159819D01*
X98813999Y-52159819D02*
X98909237Y-52302676D01*
X98909237Y-52302676D02*
X99004475Y-52397914D01*
X99004475Y-52397914D02*
X99099713Y-52445533D01*
X96305666Y-60938580D02*
X96353285Y-60986200D01*
X96353285Y-60986200D02*
X96496142Y-61033819D01*
X96496142Y-61033819D02*
X96591380Y-61033819D01*
X96591380Y-61033819D02*
X96734237Y-60986200D01*
X96734237Y-60986200D02*
X96829475Y-60890961D01*
X96829475Y-60890961D02*
X96877094Y-60795723D01*
X96877094Y-60795723D02*
X96924713Y-60605247D01*
X96924713Y-60605247D02*
X96924713Y-60462390D01*
X96924713Y-60462390D02*
X96877094Y-60271914D01*
X96877094Y-60271914D02*
X96829475Y-60176676D01*
X96829475Y-60176676D02*
X96734237Y-60081438D01*
X96734237Y-60081438D02*
X96591380Y-60033819D01*
X96591380Y-60033819D02*
X96496142Y-60033819D01*
X96496142Y-60033819D02*
X96353285Y-60081438D01*
X96353285Y-60081438D02*
X96305666Y-60129057D01*
X95972332Y-60033819D02*
X95353285Y-60033819D01*
X95353285Y-60033819D02*
X95686618Y-60414771D01*
X95686618Y-60414771D02*
X95543761Y-60414771D01*
X95543761Y-60414771D02*
X95448523Y-60462390D01*
X95448523Y-60462390D02*
X95400904Y-60510009D01*
X95400904Y-60510009D02*
X95353285Y-60605247D01*
X95353285Y-60605247D02*
X95353285Y-60843342D01*
X95353285Y-60843342D02*
X95400904Y-60938580D01*
X95400904Y-60938580D02*
X95448523Y-60986200D01*
X95448523Y-60986200D02*
X95543761Y-61033819D01*
X95543761Y-61033819D02*
X95829475Y-61033819D01*
X95829475Y-61033819D02*
X95924713Y-60986200D01*
X95924713Y-60986200D02*
X95972332Y-60938580D01*
X110055819Y-56951618D02*
X109579628Y-56618285D01*
X110055819Y-56380190D02*
X109055819Y-56380190D01*
X109055819Y-56380190D02*
X109055819Y-56761142D01*
X109055819Y-56761142D02*
X109103438Y-56856380D01*
X109103438Y-56856380D02*
X109151057Y-56903999D01*
X109151057Y-56903999D02*
X109246295Y-56951618D01*
X109246295Y-56951618D02*
X109389152Y-56951618D01*
X109389152Y-56951618D02*
X109484390Y-56903999D01*
X109484390Y-56903999D02*
X109532009Y-56856380D01*
X109532009Y-56856380D02*
X109579628Y-56761142D01*
X109579628Y-56761142D02*
X109579628Y-56380190D01*
X109389152Y-57237333D02*
X109389152Y-57618285D01*
X110055819Y-57380190D02*
X109198676Y-57380190D01*
X109198676Y-57380190D02*
X109103438Y-57427809D01*
X109103438Y-57427809D02*
X109055819Y-57523047D01*
X109055819Y-57523047D02*
X109055819Y-57618285D01*
X109151057Y-57904000D02*
X109103438Y-57951619D01*
X109103438Y-57951619D02*
X109055819Y-58046857D01*
X109055819Y-58046857D02*
X109055819Y-58284952D01*
X109055819Y-58284952D02*
X109103438Y-58380190D01*
X109103438Y-58380190D02*
X109151057Y-58427809D01*
X109151057Y-58427809D02*
X109246295Y-58475428D01*
X109246295Y-58475428D02*
X109341533Y-58475428D01*
X109341533Y-58475428D02*
X109484390Y-58427809D01*
X109484390Y-58427809D02*
X110055819Y-57856381D01*
X110055819Y-57856381D02*
X110055819Y-58475428D01*
X116157333Y-49668819D02*
X116157333Y-50383104D01*
X116157333Y-50383104D02*
X116204952Y-50525961D01*
X116204952Y-50525961D02*
X116300190Y-50621200D01*
X116300190Y-50621200D02*
X116443047Y-50668819D01*
X116443047Y-50668819D02*
X116538285Y-50668819D01*
X115157333Y-50668819D02*
X115728761Y-50668819D01*
X115443047Y-50668819D02*
X115443047Y-49668819D01*
X115443047Y-49668819D02*
X115538285Y-49811676D01*
X115538285Y-49811676D02*
X115633523Y-49906914D01*
X115633523Y-49906914D02*
X115728761Y-49954533D01*
X91122428Y-55318819D02*
X91455761Y-54842628D01*
X91693856Y-55318819D02*
X91693856Y-54318819D01*
X91693856Y-54318819D02*
X91312904Y-54318819D01*
X91312904Y-54318819D02*
X91217666Y-54366438D01*
X91217666Y-54366438D02*
X91170047Y-54414057D01*
X91170047Y-54414057D02*
X91122428Y-54509295D01*
X91122428Y-54509295D02*
X91122428Y-54652152D01*
X91122428Y-54652152D02*
X91170047Y-54747390D01*
X91170047Y-54747390D02*
X91217666Y-54795009D01*
X91217666Y-54795009D02*
X91312904Y-54842628D01*
X91312904Y-54842628D02*
X91693856Y-54842628D01*
X90741475Y-55271200D02*
X90646237Y-55318819D01*
X90646237Y-55318819D02*
X90455761Y-55318819D01*
X90455761Y-55318819D02*
X90360523Y-55271200D01*
X90360523Y-55271200D02*
X90312904Y-55175961D01*
X90312904Y-55175961D02*
X90312904Y-55128342D01*
X90312904Y-55128342D02*
X90360523Y-55033104D01*
X90360523Y-55033104D02*
X90455761Y-54985485D01*
X90455761Y-54985485D02*
X90598618Y-54985485D01*
X90598618Y-54985485D02*
X90693856Y-54937866D01*
X90693856Y-54937866D02*
X90741475Y-54842628D01*
X90741475Y-54842628D02*
X90741475Y-54795009D01*
X90741475Y-54795009D02*
X90693856Y-54699771D01*
X90693856Y-54699771D02*
X90598618Y-54652152D01*
X90598618Y-54652152D02*
X90455761Y-54652152D01*
X90455761Y-54652152D02*
X90360523Y-54699771D01*
X89360523Y-55318819D02*
X89931951Y-55318819D01*
X89646237Y-55318819D02*
X89646237Y-54318819D01*
X89646237Y-54318819D02*
X89741475Y-54461676D01*
X89741475Y-54461676D02*
X89836713Y-54556914D01*
X89836713Y-54556914D02*
X89931951Y-54604533D01*
X89415580Y-43753833D02*
X89463200Y-43706214D01*
X89463200Y-43706214D02*
X89510819Y-43563357D01*
X89510819Y-43563357D02*
X89510819Y-43468119D01*
X89510819Y-43468119D02*
X89463200Y-43325262D01*
X89463200Y-43325262D02*
X89367961Y-43230024D01*
X89367961Y-43230024D02*
X89272723Y-43182405D01*
X89272723Y-43182405D02*
X89082247Y-43134786D01*
X89082247Y-43134786D02*
X88939390Y-43134786D01*
X88939390Y-43134786D02*
X88748914Y-43182405D01*
X88748914Y-43182405D02*
X88653676Y-43230024D01*
X88653676Y-43230024D02*
X88558438Y-43325262D01*
X88558438Y-43325262D02*
X88510819Y-43468119D01*
X88510819Y-43468119D02*
X88510819Y-43563357D01*
X88510819Y-43563357D02*
X88558438Y-43706214D01*
X88558438Y-43706214D02*
X88606057Y-43753833D01*
X89510819Y-44706214D02*
X89510819Y-44134786D01*
X89510819Y-44420500D02*
X88510819Y-44420500D01*
X88510819Y-44420500D02*
X88653676Y-44325262D01*
X88653676Y-44325262D02*
X88748914Y-44230024D01*
X88748914Y-44230024D02*
X88796533Y-44134786D01*
X91257381Y-57350819D02*
X91590714Y-56874628D01*
X91828809Y-57350819D02*
X91828809Y-56350819D01*
X91828809Y-56350819D02*
X91447857Y-56350819D01*
X91447857Y-56350819D02*
X91352619Y-56398438D01*
X91352619Y-56398438D02*
X91305000Y-56446057D01*
X91305000Y-56446057D02*
X91257381Y-56541295D01*
X91257381Y-56541295D02*
X91257381Y-56684152D01*
X91257381Y-56684152D02*
X91305000Y-56779390D01*
X91305000Y-56779390D02*
X91352619Y-56827009D01*
X91352619Y-56827009D02*
X91447857Y-56874628D01*
X91447857Y-56874628D02*
X91828809Y-56874628D01*
X90971666Y-56684152D02*
X90590714Y-56684152D01*
X90828809Y-57350819D02*
X90828809Y-56493676D01*
X90828809Y-56493676D02*
X90781190Y-56398438D01*
X90781190Y-56398438D02*
X90685952Y-56350819D01*
X90685952Y-56350819D02*
X90590714Y-56350819D01*
X89733571Y-57350819D02*
X90304999Y-57350819D01*
X90019285Y-57350819D02*
X90019285Y-56350819D01*
X90019285Y-56350819D02*
X90114523Y-56493676D01*
X90114523Y-56493676D02*
X90209761Y-56588914D01*
X90209761Y-56588914D02*
X90304999Y-56636533D01*
X101930104Y-58255819D02*
X101930104Y-59065342D01*
X101930104Y-59065342D02*
X101882485Y-59160580D01*
X101882485Y-59160580D02*
X101834866Y-59208200D01*
X101834866Y-59208200D02*
X101739628Y-59255819D01*
X101739628Y-59255819D02*
X101549152Y-59255819D01*
X101549152Y-59255819D02*
X101453914Y-59208200D01*
X101453914Y-59208200D02*
X101406295Y-59160580D01*
X101406295Y-59160580D02*
X101358676Y-59065342D01*
X101358676Y-59065342D02*
X101358676Y-58255819D01*
X100930104Y-58351057D02*
X100882485Y-58303438D01*
X100882485Y-58303438D02*
X100787247Y-58255819D01*
X100787247Y-58255819D02*
X100549152Y-58255819D01*
X100549152Y-58255819D02*
X100453914Y-58303438D01*
X100453914Y-58303438D02*
X100406295Y-58351057D01*
X100406295Y-58351057D02*
X100358676Y-58446295D01*
X100358676Y-58446295D02*
X100358676Y-58541533D01*
X100358676Y-58541533D02*
X100406295Y-58684390D01*
X100406295Y-58684390D02*
X100977723Y-59255819D01*
X100977723Y-59255819D02*
X100358676Y-59255819D01*
X103544666Y-53286819D02*
X103877999Y-52810628D01*
X104116094Y-53286819D02*
X104116094Y-52286819D01*
X104116094Y-52286819D02*
X103735142Y-52286819D01*
X103735142Y-52286819D02*
X103639904Y-52334438D01*
X103639904Y-52334438D02*
X103592285Y-52382057D01*
X103592285Y-52382057D02*
X103544666Y-52477295D01*
X103544666Y-52477295D02*
X103544666Y-52620152D01*
X103544666Y-52620152D02*
X103592285Y-52715390D01*
X103592285Y-52715390D02*
X103639904Y-52763009D01*
X103639904Y-52763009D02*
X103735142Y-52810628D01*
X103735142Y-52810628D02*
X104116094Y-52810628D01*
X103163713Y-52382057D02*
X103116094Y-52334438D01*
X103116094Y-52334438D02*
X103020856Y-52286819D01*
X103020856Y-52286819D02*
X102782761Y-52286819D01*
X102782761Y-52286819D02*
X102687523Y-52334438D01*
X102687523Y-52334438D02*
X102639904Y-52382057D01*
X102639904Y-52382057D02*
X102592285Y-52477295D01*
X102592285Y-52477295D02*
X102592285Y-52572533D01*
X102592285Y-52572533D02*
X102639904Y-52715390D01*
X102639904Y-52715390D02*
X103211332Y-53286819D01*
X103211332Y-53286819D02*
X102592285Y-53286819D01*
X112849819Y-42687952D02*
X112373628Y-42354619D01*
X112849819Y-42116524D02*
X111849819Y-42116524D01*
X111849819Y-42116524D02*
X111849819Y-42497476D01*
X111849819Y-42497476D02*
X111897438Y-42592714D01*
X111897438Y-42592714D02*
X111945057Y-42640333D01*
X111945057Y-42640333D02*
X112040295Y-42687952D01*
X112040295Y-42687952D02*
X112183152Y-42687952D01*
X112183152Y-42687952D02*
X112278390Y-42640333D01*
X112278390Y-42640333D02*
X112326009Y-42592714D01*
X112326009Y-42592714D02*
X112373628Y-42497476D01*
X112373628Y-42497476D02*
X112373628Y-42116524D01*
X112849819Y-43116524D02*
X111849819Y-43116524D01*
X112230771Y-43116524D02*
X112183152Y-43211762D01*
X112183152Y-43211762D02*
X112183152Y-43402238D01*
X112183152Y-43402238D02*
X112230771Y-43497476D01*
X112230771Y-43497476D02*
X112278390Y-43545095D01*
X112278390Y-43545095D02*
X112373628Y-43592714D01*
X112373628Y-43592714D02*
X112659342Y-43592714D01*
X112659342Y-43592714D02*
X112754580Y-43545095D01*
X112754580Y-43545095D02*
X112802200Y-43497476D01*
X112802200Y-43497476D02*
X112849819Y-43402238D01*
X112849819Y-43402238D02*
X112849819Y-43211762D01*
X112849819Y-43211762D02*
X112802200Y-43116524D01*
X112849819Y-44545095D02*
X112849819Y-43973667D01*
X112849819Y-44259381D02*
X111849819Y-44259381D01*
X111849819Y-44259381D02*
X111992676Y-44164143D01*
X111992676Y-44164143D02*
X112087914Y-44068905D01*
X112087914Y-44068905D02*
X112135533Y-43973667D01*
D11*
X99948904Y-27929419D02*
X99948904Y-28738942D01*
X99948904Y-28738942D02*
X99901285Y-28834180D01*
X99901285Y-28834180D02*
X99853666Y-28881800D01*
X99853666Y-28881800D02*
X99758428Y-28929419D01*
X99758428Y-28929419D02*
X99567952Y-28929419D01*
X99567952Y-28929419D02*
X99472714Y-28881800D01*
X99472714Y-28881800D02*
X99425095Y-28834180D01*
X99425095Y-28834180D02*
X99377476Y-28738942D01*
X99377476Y-28738942D02*
X99377476Y-27929419D01*
X98377476Y-28929419D02*
X98948904Y-28929419D01*
X98663190Y-28929419D02*
X98663190Y-27929419D01*
X98663190Y-27929419D02*
X98758428Y-28072276D01*
X98758428Y-28072276D02*
X98853666Y-28167514D01*
X98853666Y-28167514D02*
X98948904Y-28215133D01*
D10*
X109204047Y-52905819D02*
X109537380Y-52429628D01*
X109775475Y-52905819D02*
X109775475Y-51905819D01*
X109775475Y-51905819D02*
X109394523Y-51905819D01*
X109394523Y-51905819D02*
X109299285Y-51953438D01*
X109299285Y-51953438D02*
X109251666Y-52001057D01*
X109251666Y-52001057D02*
X109204047Y-52096295D01*
X109204047Y-52096295D02*
X109204047Y-52239152D01*
X109204047Y-52239152D02*
X109251666Y-52334390D01*
X109251666Y-52334390D02*
X109299285Y-52382009D01*
X109299285Y-52382009D02*
X109394523Y-52429628D01*
X109394523Y-52429628D02*
X109775475Y-52429628D01*
X108346904Y-52239152D02*
X108346904Y-53048676D01*
X108346904Y-53048676D02*
X108394523Y-53143914D01*
X108394523Y-53143914D02*
X108442142Y-53191533D01*
X108442142Y-53191533D02*
X108537380Y-53239152D01*
X108537380Y-53239152D02*
X108680237Y-53239152D01*
X108680237Y-53239152D02*
X108775475Y-53191533D01*
X108346904Y-52858200D02*
X108442142Y-52905819D01*
X108442142Y-52905819D02*
X108632618Y-52905819D01*
X108632618Y-52905819D02*
X108727856Y-52858200D01*
X108727856Y-52858200D02*
X108775475Y-52810580D01*
X108775475Y-52810580D02*
X108823094Y-52715342D01*
X108823094Y-52715342D02*
X108823094Y-52429628D01*
X108823094Y-52429628D02*
X108775475Y-52334390D01*
X108775475Y-52334390D02*
X108727856Y-52286771D01*
X108727856Y-52286771D02*
X108632618Y-52239152D01*
X108632618Y-52239152D02*
X108442142Y-52239152D01*
X108442142Y-52239152D02*
X108346904Y-52286771D01*
X107346904Y-52905819D02*
X107918332Y-52905819D01*
X107632618Y-52905819D02*
X107632618Y-51905819D01*
X107632618Y-51905819D02*
X107727856Y-52048676D01*
X107727856Y-52048676D02*
X107823094Y-52143914D01*
X107823094Y-52143914D02*
X107918332Y-52191533D01*
X88738523Y-51924819D02*
X88738523Y-50924819D01*
X88738523Y-50924819D02*
X88405190Y-51639104D01*
X88405190Y-51639104D02*
X88071857Y-50924819D01*
X88071857Y-50924819D02*
X88071857Y-51924819D01*
X87595666Y-51924819D02*
X87595666Y-50924819D01*
X87024238Y-51924819D02*
X87452809Y-51353390D01*
X87024238Y-50924819D02*
X87595666Y-51496247D01*
X86071857Y-51924819D02*
X86643285Y-51924819D01*
X86357571Y-51924819D02*
X86357571Y-50924819D01*
X86357571Y-50924819D02*
X86452809Y-51067676D01*
X86452809Y-51067676D02*
X86548047Y-51162914D01*
X86548047Y-51162914D02*
X86643285Y-51210533D01*
D12*
%TO.C,R3*%
X86495653Y-40208250D02*
X86756905Y-39755748D01*
X85222595Y-39473250D02*
X85483847Y-39020748D01*
%TO.C,R1*%
X98832936Y-53621000D02*
X99287064Y-53621000D01*
X98832936Y-55091000D02*
X99287064Y-55091000D01*
%TO.C,C3*%
X93545748Y-58193000D02*
X94068252Y-58193000D01*
X93545748Y-59663000D02*
X94068252Y-59663000D01*
%TO.C,Rf2*%
X107088000Y-57631064D02*
X107088000Y-57176936D01*
X108558000Y-57631064D02*
X108558000Y-57176936D01*
%TO.C,J1*%
X114494000Y-44014000D02*
X117154000Y-44014000D01*
X114494000Y-46614000D02*
X114494000Y-44014000D01*
X114494000Y-46614000D02*
X117154000Y-46614000D01*
X114494000Y-47884000D02*
X114494000Y-49214000D01*
X114494000Y-49214000D02*
X115824000Y-49214000D01*
X117154000Y-46614000D02*
X117154000Y-44014000D01*
%TO.C,Rs1*%
X94064064Y-57616000D02*
X93609936Y-57616000D01*
X94064064Y-56146000D02*
X93609936Y-56146000D01*
%TO.C,C1*%
X88111000Y-44181752D02*
X88111000Y-43659248D01*
X86641000Y-44181752D02*
X86641000Y-43659248D01*
%TO.C,Rf1*%
X93609936Y-54002000D02*
X94064064Y-54002000D01*
X93609936Y-55472000D02*
X94064064Y-55472000D01*
D13*
%TO.C,U2*%
X102541853Y-61302900D02*
X99794547Y-61302900D01*
X99794547Y-56299100D02*
X102541853Y-56299100D01*
X100863400Y-56299100D02*
G75*
G03*
X101473000Y-56299100I304800J0D01*
G01*
D12*
%TO.C,R2*%
X103134936Y-53621000D02*
X103589064Y-53621000D01*
X103134936Y-55091000D02*
X103589064Y-55091000D01*
%TO.C,Rb1*%
X113130000Y-46365936D02*
X113130000Y-46820064D01*
X111660000Y-46365936D02*
X111660000Y-46820064D01*
D11*
%TO.C,U1*%
X104267000Y-36322000D02*
X96647000Y-36322000D01*
X104267000Y-32512000D02*
X104267000Y-36322000D01*
X96647000Y-36322000D02*
X96647000Y-32512000D01*
D12*
%TO.C,Rg1*%
X108484936Y-53621000D02*
X108939064Y-53621000D01*
X108484936Y-55091000D02*
X108939064Y-55091000D01*
D14*
%TO.C,MK1*%
X83979000Y-49180000D02*
G75*
G03*
X83979000Y-49180000I-100000J0D01*
G01*
D15*
X86054000Y-49585000D02*
X86454000Y-49585000D01*
X86054000Y-46935000D02*
X86454000Y-46935000D01*
%TD*%
M02*
