%TF.GenerationSoftware,KiCad,Pcbnew,7.0.9*%
%TF.CreationDate,2024-04-20T20:01:19-07:00*%
%TF.ProjectId,mini_v1,6d696e69-5f76-4312-9e6b-696361645f70,rev?*%
%TF.SameCoordinates,Original*%
%TF.FileFunction,Copper,L2,Bot*%
%TF.FilePolarity,Positive*%
%FSLAX46Y46*%
G04 Gerber Fmt 4.6, Leading zero omitted, Abs format (unit mm)*
G04 Created by KiCad (PCBNEW 7.0.9) date 2024-04-20 20:01:19*
%MOMM*%
%LPD*%
G01*
G04 APERTURE LIST*
G04 Aperture macros list*
%AMRoundRect*
0 Rectangle with rounded corners*
0 $1 Rounding radius*
0 $2 $3 $4 $5 $6 $7 $8 $9 X,Y pos of 4 corners*
0 Add a 4 corners polygon primitive as box body*
4,1,4,$2,$3,$4,$5,$6,$7,$8,$9,$2,$3,0*
0 Add four circle primitives for the rounded corners*
1,1,$1+$1,$2,$3*
1,1,$1+$1,$4,$5*
1,1,$1+$1,$6,$7*
1,1,$1+$1,$8,$9*
0 Add four rect primitives between the rounded corners*
20,1,$1+$1,$2,$3,$4,$5,0*
20,1,$1+$1,$4,$5,$6,$7,0*
20,1,$1+$1,$6,$7,$8,$9,0*
20,1,$1+$1,$8,$9,$2,$3,0*%
G04 Aperture macros list end*
%TA.AperFunction,SMDPad,CuDef*%
%ADD10RoundRect,0.250000X0.242612X-0.529784X0.580112X0.054784X-0.242612X0.529784X-0.580112X-0.054784X0*%
%TD*%
%TA.AperFunction,ComponentPad*%
%ADD11C,1.800000*%
%TD*%
%TA.AperFunction,ComponentPad*%
%ADD12R,1.800000X1.800000*%
%TD*%
%TA.AperFunction,ComponentPad*%
%ADD13C,1.320800*%
%TD*%
%TA.AperFunction,ComponentPad*%
%ADD14C,2.006600*%
%TD*%
%TA.AperFunction,ComponentPad*%
%ADD15C,1.524000*%
%TD*%
%TA.AperFunction,ComponentPad*%
%ADD16C,2.280000*%
%TD*%
%TA.AperFunction,SMDPad,CuDef*%
%ADD17RoundRect,0.250000X-0.350000X-0.450000X0.350000X-0.450000X0.350000X0.450000X-0.350000X0.450000X0*%
%TD*%
%TA.AperFunction,SMDPad,CuDef*%
%ADD18RoundRect,0.250000X-0.337500X-0.475000X0.337500X-0.475000X0.337500X0.475000X-0.337500X0.475000X0*%
%TD*%
%TA.AperFunction,SMDPad,CuDef*%
%ADD19RoundRect,0.250000X0.450000X-0.350000X0.450000X0.350000X-0.450000X0.350000X-0.450000X-0.350000X0*%
%TD*%
%TA.AperFunction,ComponentPad*%
%ADD20R,1.700000X1.700000*%
%TD*%
%TA.AperFunction,ComponentPad*%
%ADD21O,1.700000X1.700000*%
%TD*%
%TA.AperFunction,SMDPad,CuDef*%
%ADD22RoundRect,0.250000X0.350000X0.450000X-0.350000X0.450000X-0.350000X-0.450000X0.350000X-0.450000X0*%
%TD*%
%TA.AperFunction,SMDPad,CuDef*%
%ADD23RoundRect,0.250000X0.475000X-0.337500X0.475000X0.337500X-0.475000X0.337500X-0.475000X-0.337500X0*%
%TD*%
%TA.AperFunction,SMDPad,CuDef*%
%ADD24R,1.981200X0.558800*%
%TD*%
%TA.AperFunction,SMDPad,CuDef*%
%ADD25RoundRect,0.250000X-0.450000X0.350000X-0.450000X-0.350000X0.450000X-0.350000X0.450000X0.350000X0*%
%TD*%
%TA.AperFunction,SMDPad,CuDef*%
%ADD26R,3.556000X1.778000*%
%TD*%
%TA.AperFunction,SMDPad,CuDef*%
%ADD27R,1.030000X0.620000*%
%TD*%
%TA.AperFunction,SMDPad,CuDef*%
%ADD28R,1.030000X0.500000*%
%TD*%
%TA.AperFunction,ViaPad*%
%ADD29C,0.800000*%
%TD*%
%TA.AperFunction,Conductor*%
%ADD30C,0.500000*%
%TD*%
%TA.AperFunction,Conductor*%
%ADD31C,0.250000*%
%TD*%
G04 APERTURE END LIST*
D10*
%TO.P,R3,1*%
%TO.N,Net-(D1-K)*%
X85471000Y-40513000D03*
%TO.P,R3,2*%
%TO.N,GND*%
X86508500Y-38715998D03*
%TD*%
D11*
%TO.P,D1,2,A*%
%TO.N,/D2*%
X85217000Y-45212000D03*
D12*
%TO.P,D1,1,K*%
%TO.N,Net-(D1-K)*%
X85217000Y-42672000D03*
%TD*%
D13*
%TO.P,SW1,1,A*%
%TO.N,VCC*%
X87311714Y-54934939D03*
%TO.P,SW1,2,B*%
%TO.N,Net-(BT1-+)*%
X88458867Y-56573244D03*
%TO.P,SW1,3,C*%
%TO.N,unconnected-(SW1-C-Pad3)*%
X89606021Y-58211549D03*
D14*
%TO.P,SW1,4*%
%TO.N,N/C*%
X86106000Y-53213000D03*
%TO.P,SW1,5*%
X90811735Y-59933488D03*
%TD*%
D15*
%TO.P,C2,2*%
%TO.N,GND*%
X93853000Y-63119000D03*
%TO.P,C2,1*%
%TO.N,/3V3*%
X93853000Y-60579000D03*
%TD*%
D16*
%TO.P,BT1,1,+*%
%TO.N,Net-(BT1-+)*%
X112467386Y-55317386D03*
%TO.P,BT1,2,-*%
%TO.N,GND*%
X97978768Y-40828768D03*
%TD*%
D17*
%TO.P,R1,1*%
%TO.N,/3V3*%
X98060000Y-54356000D03*
%TO.P,R1,2*%
%TO.N,/1{slash}2 3V3*%
X100060000Y-54356000D03*
%TD*%
D18*
%TO.P,C3,1*%
%TO.N,Net-(MK1-OUT)*%
X92769500Y-58928000D03*
%TO.P,C3,2*%
%TO.N,/VMM out*%
X94844500Y-58928000D03*
%TD*%
D19*
%TO.P,Rf2,1*%
%TO.N,/IN1-*%
X107823000Y-58404000D03*
%TO.P,Rf2,2*%
%TO.N,/A0*%
X107823000Y-56404000D03*
%TD*%
D20*
%TO.P,J1,1,Pin_1*%
%TO.N,/1{slash}2 3V3*%
X115824000Y-47884000D03*
D21*
%TO.P,J1,2,Pin_2*%
%TO.N,/Piezo+*%
X115824000Y-45344000D03*
%TD*%
D22*
%TO.P,Rs1,1*%
%TO.N,/VMM out*%
X94837000Y-56881000D03*
%TO.P,Rs1,2*%
%TO.N,/IN2-*%
X92837000Y-56881000D03*
%TD*%
D23*
%TO.P,C1,2*%
%TO.N,GND*%
X87376000Y-42883000D03*
%TO.P,C1,1*%
%TO.N,/3V3*%
X87376000Y-44958000D03*
%TD*%
D17*
%TO.P,Rf1,1*%
%TO.N,/IN2-*%
X92837000Y-54737000D03*
%TO.P,Rf1,2*%
%TO.N,/A1*%
X94837000Y-54737000D03*
%TD*%
D24*
%TO.P,U2,1,1OUT*%
%TO.N,/A0*%
X103632000Y-56896000D03*
%TO.P,U2,2,1IN-*%
%TO.N,/IN1-*%
X103632000Y-58166000D03*
%TO.P,U2,3,1IN+*%
%TO.N,/Piezo+*%
X103632000Y-59436000D03*
%TO.P,U2,4,GND*%
%TO.N,GND*%
X103632000Y-60706000D03*
%TO.P,U2,5,2IN+*%
%TO.N,/1{slash}2 3V3*%
X98704400Y-60706000D03*
%TO.P,U2,6,2IN-*%
%TO.N,/IN2-*%
X98704400Y-59436000D03*
%TO.P,U2,7,2OUT*%
%TO.N,/A1*%
X98704400Y-58166000D03*
%TO.P,U2,8,VDD*%
%TO.N,/3V3*%
X98704400Y-56896000D03*
%TD*%
D17*
%TO.P,R2,1*%
%TO.N,/1{slash}2 3V3*%
X102362000Y-54356000D03*
%TO.P,R2,2*%
%TO.N,GND*%
X104362000Y-54356000D03*
%TD*%
D25*
%TO.P,Rb1,1*%
%TO.N,/Piezo+*%
X112395000Y-45593000D03*
%TO.P,Rb1,2*%
%TO.N,/1{slash}2 3V3*%
X112395000Y-47593000D03*
%TD*%
D26*
%TO.P,U1,1,GPIO1_A0_D0*%
%TO.N,/A0*%
X108839000Y-35052000D03*
%TO.P,U1,2,GPIO2_A1_D1*%
%TO.N,/A1*%
X108839000Y-37592000D03*
%TO.P,U1,3,GPIO3_A2_D2*%
%TO.N,/D2*%
X108839000Y-40132000D03*
%TO.P,U1,4,GPIO4_A3_D3*%
%TO.N,unconnected-(U1-GPIO4_A3_D3-Pad4)*%
X108839000Y-42672000D03*
%TO.P,U1,5,GPIO4_A3_D3_SDA*%
%TO.N,unconnected-(U1-GPIO4_A3_D3_SDA-Pad5)*%
X108839000Y-45212000D03*
%TO.P,U1,6,GPIO6_A5_D5_SCL*%
%TO.N,unconnected-(U1-GPIO6_A5_D5_SCL-Pad6)*%
X108839000Y-47752000D03*
%TO.P,U1,7,GPIO43_TX_D6*%
%TO.N,unconnected-(U1-GPIO43_TX_D6-Pad7)*%
X108839000Y-50292000D03*
%TO.P,U1,8,5V*%
%TO.N,VCC*%
X92075000Y-35052000D03*
%TO.P,U1,9,GND*%
%TO.N,GND*%
X92075000Y-37592000D03*
%TO.P,U1,10,3V3*%
%TO.N,/3V3*%
X92075000Y-40132000D03*
%TO.P,U1,11,GPIO9_A10_D10_COPI*%
%TO.N,unconnected-(U1-GPIO9_A10_D10_COPI-Pad11)*%
X92075000Y-42672000D03*
%TO.P,U1,12,GPIO8_A9_D9_CIPO*%
%TO.N,unconnected-(U1-GPIO8_A9_D9_CIPO-Pad12)*%
X92075000Y-45212000D03*
%TO.P,U1,13,GPIO7_A8_D8_SCK*%
%TO.N,unconnected-(U1-GPIO7_A8_D8_SCK-Pad13)*%
X92075000Y-47752000D03*
%TO.P,U1,14,GPIO44_D7_RX*%
%TO.N,unconnected-(U1-GPIO44_D7_RX-Pad14)*%
X92075000Y-50292000D03*
%TD*%
D17*
%TO.P,Rg1,1*%
%TO.N,/1{slash}2 3V3*%
X107712000Y-54356000D03*
%TO.P,Rg1,2*%
%TO.N,/IN1-*%
X109712000Y-54356000D03*
%TD*%
D27*
%TO.P,MK1,6,OUT*%
%TO.N,Net-(MK1-OUT)*%
X87359000Y-49140000D03*
D28*
%TO.P,MK1,5,GND__3*%
%TO.N,GND*%
X87359000Y-48260000D03*
D27*
%TO.P,MK1,4,GND__2*%
X87359000Y-47380000D03*
%TO.P,MK1,3,VDD*%
%TO.N,/3V3*%
X85149000Y-47380000D03*
D28*
%TO.P,MK1,2,GND__1*%
%TO.N,GND*%
X85149000Y-48260000D03*
D27*
%TO.P,MK1,1,GND*%
X85149000Y-49140000D03*
%TD*%
D29*
%TO.N,/D2*%
X111760000Y-40132000D03*
%TO.N,GND*%
X105664000Y-54356000D03*
X89718000Y-39045000D03*
%TO.N,/3V3*%
X89002071Y-43312271D03*
X98044000Y-52832000D03*
%TO.N,/1{slash}2 3V3*%
X105410000Y-52832000D03*
X112395000Y-49276000D03*
%TO.N,VCC*%
X88773000Y-36322000D03*
%TO.N,/A0*%
X105029000Y-36322000D03*
X105664000Y-56388000D03*
%TO.N,/IN2-*%
X96393000Y-59182000D03*
X91313000Y-54737000D03*
%TD*%
D30*
%TO.N,/3V3*%
X85149000Y-47380000D02*
X85208000Y-47380000D01*
X87376000Y-45212000D02*
X87376000Y-44958000D01*
X85208000Y-47380000D02*
X87376000Y-45212000D01*
D31*
%TO.N,/D2*%
X111760000Y-40132000D02*
X108077000Y-40132000D01*
D30*
%TO.N,Net-(D1-K)*%
X85471000Y-40513000D02*
X85471000Y-42418000D01*
D31*
X85471000Y-42418000D02*
X85217000Y-42672000D01*
D30*
%TO.N,/3V3*%
X87376000Y-44958000D02*
X87376000Y-44938342D01*
X87376000Y-44938342D02*
X89002071Y-43312271D01*
%TO.N,GND*%
X87376000Y-41387000D02*
X87376000Y-42883000D01*
X89718000Y-39045000D02*
X87376000Y-41387000D01*
%TO.N,/3V3*%
X89002071Y-43312271D02*
X89002071Y-41934929D01*
X89002071Y-41934929D02*
X90805000Y-40132000D01*
%TO.N,GND*%
X89718000Y-39045000D02*
X91171000Y-37592000D01*
X91171000Y-37592000D02*
X92837000Y-37592000D01*
%TO.N,/Piezo+*%
X112395000Y-45593000D02*
X111379000Y-45593000D01*
X111379000Y-45593000D02*
X111067000Y-45905000D01*
X108569878Y-59454000D02*
X107076122Y-59454000D01*
X111067000Y-45905000D02*
X111067000Y-51631000D01*
X110762000Y-53609122D02*
X110762000Y-57261878D01*
X111067000Y-51631000D02*
X110744000Y-51954000D01*
X110744000Y-51954000D02*
X110744000Y-53591122D01*
X110744000Y-53591122D02*
X110762000Y-53609122D01*
X110762000Y-57261878D02*
X108569878Y-59454000D01*
X107058122Y-59436000D02*
X103632000Y-59436000D01*
X107076122Y-59454000D02*
X107058122Y-59436000D01*
%TO.N,GND*%
X101981000Y-60452000D02*
X102235000Y-60706000D01*
D31*
X85149000Y-48260000D02*
X85149000Y-49140000D01*
D30*
X104362000Y-54356000D02*
X103212000Y-55506000D01*
D31*
X92837000Y-37592000D02*
X92710000Y-37592000D01*
D30*
X102990000Y-55506000D02*
X101981000Y-56515000D01*
D31*
X85149000Y-48260000D02*
X87359000Y-48260000D01*
X87359000Y-48260000D02*
X87359000Y-47380000D01*
D30*
X102235000Y-60706000D02*
X103632000Y-60706000D01*
D31*
X87639000Y-48378000D02*
X87757000Y-48260000D01*
D30*
X103212000Y-55506000D02*
X102990000Y-55506000D01*
X101981000Y-56515000D02*
X101981000Y-60452000D01*
X104362000Y-54356000D02*
X105664000Y-54356000D01*
D31*
%TO.N,/3V3*%
X90805000Y-40132000D02*
X92710000Y-40132000D01*
D30*
X98704400Y-56896000D02*
X98704400Y-55000400D01*
X98060000Y-52848000D02*
X98044000Y-52832000D01*
X98704400Y-55000400D02*
X98060000Y-54356000D01*
X98060000Y-54356000D02*
X98060000Y-52848000D01*
%TO.N,Net-(MK1-OUT)*%
X91787000Y-57945500D02*
X92769500Y-58928000D01*
X87757000Y-53594000D02*
X91787000Y-57624000D01*
X87359000Y-49140000D02*
X87757000Y-49538000D01*
X91787000Y-57624000D02*
X91787000Y-57945500D01*
X87757000Y-49538000D02*
X87757000Y-53594000D01*
%TO.N,/1{slash}2 3V3*%
X101092000Y-56261000D02*
X101092000Y-59029600D01*
X100060000Y-54356000D02*
X100060000Y-55229000D01*
X102362000Y-54356000D02*
X102362000Y-53467000D01*
X100060000Y-55229000D02*
X101092000Y-56261000D01*
X112395000Y-47593000D02*
X115533000Y-47593000D01*
D31*
X99415600Y-60706000D02*
X98704400Y-60706000D01*
D30*
X102362000Y-53467000D02*
X102997000Y-52832000D01*
X106188000Y-52832000D02*
X107712000Y-54356000D01*
X115533000Y-47593000D02*
X115824000Y-47884000D01*
X101092000Y-59029600D02*
X99415600Y-60706000D01*
X112395000Y-47593000D02*
X112395000Y-49276000D01*
X100060000Y-54356000D02*
X102362000Y-54356000D01*
X105410000Y-52832000D02*
X106188000Y-52832000D01*
X102997000Y-52832000D02*
X105410000Y-52832000D01*
%TO.N,/Piezo+*%
X115575000Y-45593000D02*
X115824000Y-45344000D01*
X112395000Y-45593000D02*
X115575000Y-45593000D01*
%TO.N,VCC*%
X88773000Y-36068000D02*
X88773000Y-36322000D01*
X92837000Y-35052000D02*
X89789000Y-35052000D01*
X89789000Y-35052000D02*
X88773000Y-36068000D01*
D31*
%TO.N,/A0*%
X104394000Y-56388000D02*
X104410000Y-56404000D01*
D30*
X103632000Y-56896000D02*
X104140000Y-56388000D01*
X105664000Y-56388000D02*
X105680000Y-56404000D01*
X108077000Y-35052000D02*
X106299000Y-35052000D01*
X104410000Y-56404000D02*
X105648000Y-56404000D01*
X104140000Y-56388000D02*
X104394000Y-56388000D01*
X105648000Y-56404000D02*
X105664000Y-56388000D01*
X105680000Y-56404000D02*
X107823000Y-56404000D01*
X106299000Y-35052000D02*
X105029000Y-36322000D01*
%TO.N,/A1*%
X98054400Y-58166000D02*
X94837000Y-54948600D01*
X94837000Y-50451000D02*
X107696000Y-37592000D01*
X98704400Y-58166000D02*
X98054400Y-58166000D01*
D31*
X94837000Y-54948600D02*
X94837000Y-54737000D01*
D30*
X94837000Y-54737000D02*
X94837000Y-50451000D01*
X107696000Y-37592000D02*
X107950000Y-37592000D01*
D31*
%TO.N,/VMM out*%
X94837000Y-56881000D02*
X94837000Y-58920500D01*
X94844500Y-56888500D02*
X94837000Y-56881000D01*
X94837000Y-58920500D02*
X94844500Y-58928000D01*
D30*
%TO.N,/IN2-*%
X96647000Y-59436000D02*
X96393000Y-59182000D01*
X92837000Y-56881000D02*
X92837000Y-54737000D01*
X92837000Y-54737000D02*
X91313000Y-54737000D01*
X98704400Y-59436000D02*
X96647000Y-59436000D01*
D31*
%TO.N,/IN1-*%
X107585000Y-58166000D02*
X107823000Y-58404000D01*
D30*
X103632000Y-58166000D02*
X107585000Y-58166000D01*
X109712000Y-56515000D02*
X107823000Y-58404000D01*
X109712000Y-54356000D02*
X109712000Y-56515000D01*
%TD*%
%TA.AperFunction,Conductor*%
%TO.N,GND*%
G36*
X100935494Y-30139504D02*
G01*
X101684919Y-30174669D01*
X101780723Y-30180333D01*
X102521732Y-30250028D01*
X102623087Y-30260843D01*
X103354539Y-30364420D01*
X103460682Y-30380846D01*
X104181382Y-30517626D01*
X104291712Y-30540081D01*
X105000442Y-30709354D01*
X105114318Y-30738191D01*
X105810016Y-30939249D01*
X105926663Y-30974728D01*
X106567183Y-31192853D01*
X106608099Y-31206787D01*
X106727013Y-31249186D01*
X107393082Y-31511457D01*
X107513532Y-31560933D01*
X108163183Y-31852612D01*
X108284524Y-31909292D01*
X108916642Y-32229508D01*
X109038270Y-32293484D01*
X109651796Y-32641339D01*
X109741989Y-32694364D01*
X109773129Y-32712671D01*
X110367075Y-33087261D01*
X110443128Y-33136949D01*
X110487410Y-33165879D01*
X110951326Y-33489817D01*
X110961190Y-33496705D01*
X111004886Y-33551224D01*
X111011742Y-33616634D01*
X111078633Y-33602083D01*
X111142437Y-33625278D01*
X111179613Y-33652154D01*
X111731490Y-34077339D01*
X111848187Y-34170402D01*
X112377619Y-34619369D01*
X112491639Y-34719461D01*
X112997764Y-35191184D01*
X113108557Y-35298119D01*
X113590532Y-35791529D01*
X113697596Y-35905110D01*
X114068273Y-36322000D01*
X114154584Y-36419072D01*
X114257440Y-36539070D01*
X114688683Y-37072463D01*
X114714904Y-37106151D01*
X114774828Y-37183142D01*
X114786861Y-37198601D01*
X114959567Y-37433981D01*
X115191621Y-37750247D01*
X115284718Y-37882280D01*
X115427367Y-38097129D01*
X115662310Y-38450987D01*
X115749869Y-38588527D01*
X116099662Y-39173091D01*
X116181330Y-39315840D01*
X116502712Y-39914990D01*
X116578131Y-40062576D01*
X116870575Y-40675081D01*
X116939398Y-40827076D01*
X117202423Y-41451696D01*
X117212196Y-41476311D01*
X117251621Y-41575614D01*
X117264337Y-41607642D01*
X117311118Y-41735135D01*
X117497484Y-42243052D01*
X117552265Y-42402622D01*
X117755131Y-43047497D01*
X117802513Y-43210155D01*
X117974766Y-43863209D01*
X118014559Y-44028528D01*
X118155890Y-44688365D01*
X118187935Y-44855922D01*
X118298112Y-45521232D01*
X118322257Y-45690458D01*
X118401091Y-46359879D01*
X118417248Y-46530374D01*
X118464599Y-47202488D01*
X118472697Y-47373773D01*
X118490465Y-48131546D01*
X118490465Y-48134452D01*
X118472697Y-48892226D01*
X118464599Y-49063511D01*
X118417248Y-49735625D01*
X118401091Y-49906120D01*
X118322257Y-50575541D01*
X118298112Y-50744767D01*
X118187935Y-51410077D01*
X118155890Y-51577634D01*
X118014559Y-52237471D01*
X117974766Y-52402790D01*
X117802513Y-53055844D01*
X117755131Y-53218502D01*
X117552265Y-53863377D01*
X117497484Y-54022947D01*
X117264341Y-54658348D01*
X117202423Y-54814303D01*
X116939398Y-55438923D01*
X116870575Y-55590918D01*
X116578131Y-56203423D01*
X116502712Y-56351009D01*
X116181330Y-56950159D01*
X116099662Y-57092908D01*
X115749869Y-57677472D01*
X115662310Y-57815012D01*
X115284720Y-58383718D01*
X115191621Y-58515752D01*
X114786868Y-59067389D01*
X114688683Y-59193536D01*
X114257440Y-59726929D01*
X114154584Y-59846927D01*
X113697598Y-60360887D01*
X113680776Y-60378735D01*
X113590532Y-60474470D01*
X113108557Y-60967880D01*
X112997764Y-61074815D01*
X112491639Y-61546538D01*
X112377619Y-61646630D01*
X111848187Y-62095597D01*
X111731490Y-62188660D01*
X111179613Y-62613845D01*
X111060828Y-62699720D01*
X110487414Y-63100117D01*
X110367075Y-63178738D01*
X109773129Y-63553328D01*
X109651780Y-63624670D01*
X109038296Y-63972501D01*
X108997474Y-63993974D01*
X108916621Y-64036502D01*
X108284534Y-64356702D01*
X108251250Y-64372250D01*
X108163160Y-64413397D01*
X107513547Y-64705060D01*
X107393066Y-64754548D01*
X106727016Y-65016812D01*
X106608099Y-65059212D01*
X105926676Y-65291267D01*
X105809973Y-65326762D01*
X105114324Y-65527806D01*
X105000436Y-65556647D01*
X104291727Y-65725915D01*
X104181325Y-65748384D01*
X103460694Y-65885151D01*
X103354502Y-65901585D01*
X102623087Y-66005156D01*
X102521715Y-66015972D01*
X101780748Y-66085664D01*
X101684881Y-66091332D01*
X100935502Y-66126495D01*
X100866011Y-66127315D01*
X100845926Y-66127553D01*
X100089287Y-66127553D01*
X100006521Y-66124619D01*
X99243965Y-66088837D01*
X99168582Y-66082591D01*
X98401338Y-66010428D01*
X98343029Y-66002810D01*
X98334154Y-66001650D01*
X98219234Y-65985377D01*
X97563293Y-65892493D01*
X97505023Y-65882061D01*
X96731729Y-65735299D01*
X96682895Y-65724153D01*
X95908442Y-65539182D01*
X95869730Y-65528400D01*
X95095267Y-65304578D01*
X95074137Y-65297603D01*
X95067269Y-65295335D01*
X94294023Y-65032011D01*
X94280951Y-65027000D01*
X94277345Y-65025617D01*
X93506446Y-64722068D01*
X93501590Y-64719937D01*
X92736998Y-64376652D01*
X92734374Y-64375399D01*
X91984140Y-63995349D01*
X91981578Y-63993974D01*
X91249991Y-63579182D01*
X91247513Y-63577700D01*
X90536128Y-63129043D01*
X90533742Y-63127459D01*
X89844176Y-62645957D01*
X89841843Y-62644245D01*
X89635909Y-62485586D01*
X89175617Y-62130961D01*
X89173390Y-62129160D01*
X88531933Y-61585194D01*
X88529805Y-61583302D01*
X87914537Y-61009855D01*
X87912479Y-61007843D01*
X87872045Y-60966450D01*
X87324799Y-60406221D01*
X87322836Y-60404114D01*
X87318843Y-60399623D01*
X86763997Y-59775602D01*
X86762148Y-59773422D01*
X86233382Y-59119406D01*
X86231613Y-59117109D01*
X86017505Y-58825302D01*
X85734089Y-58439035D01*
X85732448Y-58436686D01*
X85267241Y-57736018D01*
X85265710Y-57733590D01*
X84962217Y-57226400D01*
X84833859Y-57011891D01*
X84832425Y-57009362D01*
X84434888Y-56268237D01*
X84433595Y-56265683D01*
X84135490Y-55641322D01*
X84071225Y-55506724D01*
X84070048Y-55504102D01*
X83743647Y-54728980D01*
X83742590Y-54726295D01*
X83452885Y-53936744D01*
X83451952Y-53934003D01*
X83448558Y-53923215D01*
X83199582Y-53131766D01*
X83198784Y-53129008D01*
X82984277Y-52315757D01*
X82983612Y-52312970D01*
X82807469Y-51490607D01*
X82806927Y-51487751D01*
X82684123Y-50746189D01*
X82669525Y-50658038D01*
X82669123Y-50655201D01*
X82570755Y-49819901D01*
X82570490Y-49817080D01*
X82540402Y-49390000D01*
X84134000Y-49390000D01*
X84134000Y-49497844D01*
X84140401Y-49557372D01*
X84140403Y-49557379D01*
X84190645Y-49692086D01*
X84190649Y-49692093D01*
X84276809Y-49807187D01*
X84276812Y-49807190D01*
X84391906Y-49893350D01*
X84391913Y-49893354D01*
X84526620Y-49943596D01*
X84526627Y-49943598D01*
X84586155Y-49949999D01*
X84586172Y-49950000D01*
X84899000Y-49950000D01*
X84899000Y-49390000D01*
X84134000Y-49390000D01*
X82540402Y-49390000D01*
X82511383Y-48978098D01*
X82511249Y-48975234D01*
X82509250Y-48890000D01*
X82500340Y-48510000D01*
X84134000Y-48510000D01*
X84134000Y-48557844D01*
X84140401Y-48617372D01*
X84140403Y-48617382D01*
X84143867Y-48626668D01*
X84148851Y-48696359D01*
X84143867Y-48713332D01*
X84140403Y-48722617D01*
X84140401Y-48722627D01*
X84134000Y-48782155D01*
X84134000Y-48890000D01*
X84899000Y-48890000D01*
X84899000Y-48510000D01*
X84134000Y-48510000D01*
X82500340Y-48510000D01*
X82491534Y-48134449D01*
X82491534Y-48131546D01*
X82493504Y-48047546D01*
X82511249Y-47290756D01*
X82511383Y-47287903D01*
X82570490Y-46448915D01*
X82570754Y-46446102D01*
X82669123Y-45610792D01*
X82669527Y-45607948D01*
X82674253Y-45579413D01*
X82806928Y-44778239D01*
X82807469Y-44775392D01*
X82983613Y-43953020D01*
X82984274Y-43950252D01*
X83198787Y-43136980D01*
X83199583Y-43134232D01*
X83451962Y-42331965D01*
X83452880Y-42329268D01*
X83576089Y-41993478D01*
X83617662Y-41937324D01*
X83682995Y-41912559D01*
X83751346Y-41927047D01*
X83801014Y-41976188D01*
X83816500Y-42036194D01*
X83816500Y-43619870D01*
X83816501Y-43619876D01*
X83822908Y-43679483D01*
X83873202Y-43814328D01*
X83873206Y-43814335D01*
X83959452Y-43929544D01*
X83959455Y-43929547D01*
X84074664Y-44015793D01*
X84074673Y-44015798D01*
X84154904Y-44045722D01*
X84210838Y-44087593D01*
X84235256Y-44153057D01*
X84220405Y-44221330D01*
X84202802Y-44245886D01*
X84108019Y-44348849D01*
X83981075Y-44543151D01*
X83887842Y-44755699D01*
X83830866Y-44980691D01*
X83830864Y-44980702D01*
X83811700Y-45211993D01*
X83811700Y-45212006D01*
X83830864Y-45443297D01*
X83830866Y-45443308D01*
X83887842Y-45668300D01*
X83981075Y-45880848D01*
X84108016Y-46075147D01*
X84108019Y-46075151D01*
X84108021Y-46075153D01*
X84265216Y-46245913D01*
X84265219Y-46245915D01*
X84265222Y-46245918D01*
X84448365Y-46388464D01*
X84452666Y-46391274D01*
X84451537Y-46393002D01*
X84494884Y-46436003D01*
X84510008Y-46504216D01*
X84485854Y-46569778D01*
X84430088Y-46611872D01*
X84429624Y-46612046D01*
X84391676Y-46626200D01*
X84391664Y-46626206D01*
X84276455Y-46712452D01*
X84276452Y-46712455D01*
X84190206Y-46827664D01*
X84190202Y-46827671D01*
X84139910Y-46962513D01*
X84139909Y-46962517D01*
X84133500Y-47022127D01*
X84133500Y-47022134D01*
X84133500Y-47022135D01*
X84133500Y-47737870D01*
X84133501Y-47737876D01*
X84139909Y-47797484D01*
X84143601Y-47807384D01*
X84148583Y-47877076D01*
X84143602Y-47894042D01*
X84140403Y-47902618D01*
X84140401Y-47902627D01*
X84134000Y-47962155D01*
X84134000Y-48010000D01*
X84187546Y-48010000D01*
X84254585Y-48029685D01*
X84275227Y-48046319D01*
X84276455Y-48047547D01*
X84391664Y-48133793D01*
X84391671Y-48133797D01*
X84526517Y-48184091D01*
X84526516Y-48184091D01*
X84533444Y-48184835D01*
X84586127Y-48190500D01*
X85275001Y-48190499D01*
X85342039Y-48210183D01*
X85387794Y-48262987D01*
X85399000Y-48314499D01*
X85399000Y-49950000D01*
X85711828Y-49950000D01*
X85711844Y-49949999D01*
X85771372Y-49943598D01*
X85771379Y-49943596D01*
X85906086Y-49893354D01*
X85906093Y-49893350D01*
X86021187Y-49807190D01*
X86021190Y-49807187D01*
X86107350Y-49692093D01*
X86107355Y-49692084D01*
X86137551Y-49611124D01*
X86179421Y-49555190D01*
X86244885Y-49530772D01*
X86313159Y-49545623D01*
X86362564Y-49595028D01*
X86369915Y-49611123D01*
X86400202Y-49692328D01*
X86400206Y-49692335D01*
X86486452Y-49807544D01*
X86486455Y-49807547D01*
X86601664Y-49893793D01*
X86601671Y-49893797D01*
X86634711Y-49906120D01*
X86736517Y-49944091D01*
X86796127Y-49950500D01*
X86882501Y-49950499D01*
X86949538Y-49970183D01*
X86995294Y-50022986D01*
X87006500Y-50074499D01*
X87006500Y-51779710D01*
X86986815Y-51846749D01*
X86934011Y-51892504D01*
X86864853Y-51902448D01*
X86817712Y-51885438D01*
X86790823Y-51868961D01*
X86572136Y-51778378D01*
X86341977Y-51723122D01*
X86106000Y-51704550D01*
X85870022Y-51723122D01*
X85639863Y-51778378D01*
X85421177Y-51868960D01*
X85219359Y-51992634D01*
X85219358Y-51992635D01*
X85039365Y-52146365D01*
X84885635Y-52326358D01*
X84885634Y-52326359D01*
X84761960Y-52528177D01*
X84671378Y-52746863D01*
X84616122Y-52977022D01*
X84597550Y-53213000D01*
X84616122Y-53448977D01*
X84671378Y-53679136D01*
X84761960Y-53897822D01*
X84885634Y-54099640D01*
X84885635Y-54099641D01*
X84885636Y-54099643D01*
X84885638Y-54099645D01*
X85039365Y-54279635D01*
X85219355Y-54433362D01*
X85219357Y-54433363D01*
X85219358Y-54433364D01*
X85219359Y-54433365D01*
X85421177Y-54557039D01*
X85639863Y-54647621D01*
X85870026Y-54702878D01*
X86039849Y-54716243D01*
X86105137Y-54741127D01*
X86146607Y-54797358D01*
X86153590Y-54851301D01*
X86145841Y-54934936D01*
X86145841Y-54934939D01*
X86165691Y-55149167D01*
X86224569Y-55356098D01*
X86224574Y-55356111D01*
X86320465Y-55548685D01*
X86320467Y-55548688D01*
X86320469Y-55548692D01*
X86320472Y-55548696D01*
X86320474Y-55548699D01*
X86362121Y-55603849D01*
X86450123Y-55720383D01*
X86450126Y-55720385D01*
X86450128Y-55720388D01*
X86609116Y-55865324D01*
X86609118Y-55865325D01*
X86609119Y-55865326D01*
X86792040Y-55978586D01*
X86992658Y-56056306D01*
X87204141Y-56095839D01*
X87223523Y-56095839D01*
X87290562Y-56115524D01*
X87336317Y-56168328D01*
X87346261Y-56237486D01*
X87342789Y-56253773D01*
X87312845Y-56359013D01*
X87312844Y-56359015D01*
X87292994Y-56573243D01*
X87292994Y-56573244D01*
X87312844Y-56787472D01*
X87371722Y-56994403D01*
X87371727Y-56994416D01*
X87467618Y-57186990D01*
X87467620Y-57186993D01*
X87467622Y-57186997D01*
X87467625Y-57187001D01*
X87467627Y-57187004D01*
X87514553Y-57249144D01*
X87597276Y-57358688D01*
X87597279Y-57358690D01*
X87597281Y-57358693D01*
X87756269Y-57503629D01*
X87756271Y-57503630D01*
X87756272Y-57503631D01*
X87939193Y-57616891D01*
X88139811Y-57694611D01*
X88351294Y-57734144D01*
X88370677Y-57734144D01*
X88437716Y-57753829D01*
X88483471Y-57806633D01*
X88493415Y-57875791D01*
X88489943Y-57892078D01*
X88459999Y-57997318D01*
X88459998Y-57997320D01*
X88440148Y-58211548D01*
X88440148Y-58211549D01*
X88459998Y-58425777D01*
X88518876Y-58632708D01*
X88518881Y-58632721D01*
X88614772Y-58825295D01*
X88614774Y-58825298D01*
X88614776Y-58825302D01*
X88744430Y-58996993D01*
X88744433Y-58996995D01*
X88744435Y-58996998D01*
X88903423Y-59141934D01*
X88903425Y-59141935D01*
X88903426Y-59141936D01*
X89086347Y-59255196D01*
X89086348Y-59255196D01*
X89086349Y-59255197D01*
X89135257Y-59274144D01*
X89286965Y-59332916D01*
X89286976Y-59332918D01*
X89287127Y-59332961D01*
X89287199Y-59333006D01*
X89292311Y-59334987D01*
X89291924Y-59335985D01*
X89346228Y-59370227D01*
X89375800Y-59433531D01*
X89373793Y-59481182D01*
X89321857Y-59697510D01*
X89303285Y-59933488D01*
X89321857Y-60169465D01*
X89377113Y-60399624D01*
X89467695Y-60618310D01*
X89591369Y-60820128D01*
X89591370Y-60820129D01*
X89591371Y-60820131D01*
X89591373Y-60820133D01*
X89745100Y-61000123D01*
X89925090Y-61153850D01*
X89925092Y-61153851D01*
X89925093Y-61153852D01*
X89925094Y-61153853D01*
X90126912Y-61277527D01*
X90283982Y-61342587D01*
X90345598Y-61368109D01*
X90575761Y-61423366D01*
X90811735Y-61441938D01*
X91047709Y-61423366D01*
X91277872Y-61368109D01*
X91496557Y-61277527D01*
X91698380Y-61153850D01*
X91878370Y-61000123D01*
X92032097Y-60820133D01*
X92155774Y-60618310D01*
X92246356Y-60399625D01*
X92282625Y-60248549D01*
X92317414Y-60187961D01*
X92379440Y-60155796D01*
X92403188Y-60153499D01*
X92498376Y-60153499D01*
X92565414Y-60173184D01*
X92611169Y-60225988D01*
X92621113Y-60295146D01*
X92618150Y-60309591D01*
X92604931Y-60358926D01*
X92604930Y-60358930D01*
X92604930Y-60358932D01*
X92603194Y-60378772D01*
X92585677Y-60578997D01*
X92585677Y-60579002D01*
X92604929Y-60799062D01*
X92604930Y-60799070D01*
X92662104Y-61012445D01*
X92662105Y-61012447D01*
X92662106Y-61012450D01*
X92728042Y-61153850D01*
X92755466Y-61212662D01*
X92755468Y-61212666D01*
X92882170Y-61393615D01*
X92882175Y-61393621D01*
X93038378Y-61549824D01*
X93038384Y-61549829D01*
X93219333Y-61676531D01*
X93219335Y-61676532D01*
X93219338Y-61676534D01*
X93348781Y-61736894D01*
X93401220Y-61783066D01*
X93420372Y-61850260D01*
X93400156Y-61917141D01*
X93348781Y-61961658D01*
X93219586Y-62021903D01*
X93154812Y-62067257D01*
X93154811Y-62067258D01*
X93825554Y-62738000D01*
X93821431Y-62738000D01*
X93727579Y-62753661D01*
X93615749Y-62814180D01*
X93529629Y-62907731D01*
X93478552Y-63024177D01*
X93472894Y-63092447D01*
X92801258Y-62420811D01*
X92801257Y-62420812D01*
X92755903Y-62485586D01*
X92662579Y-62685720D01*
X92662575Y-62685729D01*
X92605426Y-62899013D01*
X92605424Y-62899023D01*
X92586179Y-63118999D01*
X92586179Y-63119000D01*
X92605424Y-63338976D01*
X92605426Y-63338986D01*
X92662575Y-63552270D01*
X92662580Y-63552284D01*
X92755899Y-63752407D01*
X92755900Y-63752409D01*
X92801258Y-63817187D01*
X93468096Y-63150349D01*
X93468051Y-63150898D01*
X93499266Y-63274162D01*
X93568813Y-63380612D01*
X93669157Y-63458713D01*
X93789422Y-63500000D01*
X93825553Y-63500000D01*
X93154811Y-64170741D01*
X93219582Y-64216094D01*
X93219592Y-64216100D01*
X93419715Y-64309419D01*
X93419729Y-64309424D01*
X93633013Y-64366573D01*
X93633023Y-64366575D01*
X93852999Y-64385821D01*
X93853001Y-64385821D01*
X94072976Y-64366575D01*
X94072986Y-64366573D01*
X94286270Y-64309424D01*
X94286284Y-64309419D01*
X94486408Y-64216100D01*
X94486420Y-64216093D01*
X94551186Y-64170742D01*
X94551187Y-64170740D01*
X93880448Y-63500000D01*
X93884569Y-63500000D01*
X93978421Y-63484339D01*
X94090251Y-63423820D01*
X94176371Y-63330269D01*
X94227448Y-63213823D01*
X94233105Y-63145552D01*
X94904740Y-63817187D01*
X94904742Y-63817186D01*
X94950093Y-63752420D01*
X94950100Y-63752408D01*
X95043419Y-63552284D01*
X95043424Y-63552270D01*
X95100573Y-63338986D01*
X95100575Y-63338976D01*
X95119821Y-63119000D01*
X95119821Y-63118999D01*
X95100575Y-62899023D01*
X95100573Y-62899013D01*
X95043424Y-62685729D01*
X95043420Y-62685720D01*
X94950098Y-62485590D01*
X94904740Y-62420811D01*
X94237903Y-63087648D01*
X94237949Y-63087102D01*
X94206734Y-62963838D01*
X94137187Y-62857388D01*
X94036843Y-62779287D01*
X93916578Y-62738000D01*
X93880447Y-62738000D01*
X94551187Y-62067258D01*
X94486409Y-62021900D01*
X94486407Y-62021899D01*
X94357219Y-61961658D01*
X94304779Y-61915486D01*
X94285627Y-61848293D01*
X94305843Y-61781411D01*
X94357219Y-61736894D01*
X94486662Y-61676534D01*
X94667620Y-61549826D01*
X94823826Y-61393620D01*
X94950534Y-61212662D01*
X95043894Y-61012450D01*
X95101070Y-60799068D01*
X95120323Y-60579000D01*
X95101070Y-60358932D01*
X95087849Y-60309591D01*
X95089512Y-60239743D01*
X95128674Y-60181881D01*
X95192902Y-60154376D01*
X95207624Y-60153499D01*
X95232002Y-60153499D01*
X95232008Y-60153499D01*
X95334797Y-60142999D01*
X95501334Y-60087814D01*
X95650656Y-59995712D01*
X95714765Y-59931602D01*
X95776084Y-59898120D01*
X95845776Y-59903104D01*
X95875324Y-59918965D01*
X95928677Y-59957728D01*
X95940270Y-59966151D01*
X96113192Y-60043142D01*
X96113197Y-60043144D01*
X96212428Y-60064236D01*
X96243489Y-60076678D01*
X96243779Y-60076059D01*
X96250321Y-60079109D01*
X96250323Y-60079111D01*
X96319930Y-60111569D01*
X96388567Y-60146040D01*
X96388576Y-60146042D01*
X96395355Y-60148510D01*
X96395334Y-60148567D01*
X96402451Y-60151040D01*
X96402470Y-60150984D01*
X96409330Y-60153257D01*
X96484532Y-60168784D01*
X96559279Y-60186500D01*
X96559288Y-60186500D01*
X96566452Y-60187338D01*
X96566445Y-60187397D01*
X96573946Y-60188163D01*
X96573952Y-60188104D01*
X96581140Y-60188733D01*
X96581143Y-60188732D01*
X96581144Y-60188733D01*
X96657898Y-60186500D01*
X97095921Y-60186500D01*
X97162960Y-60206185D01*
X97208715Y-60258989D01*
X97219210Y-60323752D01*
X97213300Y-60378727D01*
X97213300Y-60378734D01*
X97213300Y-60378735D01*
X97213300Y-61033270D01*
X97213301Y-61033276D01*
X97219708Y-61092883D01*
X97270002Y-61227728D01*
X97270006Y-61227735D01*
X97356252Y-61342944D01*
X97356255Y-61342947D01*
X97471464Y-61429193D01*
X97471471Y-61429197D01*
X97606317Y-61479491D01*
X97606316Y-61479491D01*
X97613244Y-61480235D01*
X97665927Y-61485900D01*
X99742872Y-61485899D01*
X99802483Y-61479491D01*
X99937331Y-61429196D01*
X100052546Y-61342946D01*
X100138796Y-61227731D01*
X100189091Y-61092883D01*
X100195500Y-61033273D01*
X100195499Y-61033258D01*
X100195549Y-61032345D01*
X100195623Y-61032134D01*
X100195856Y-61029969D01*
X100196367Y-61030023D01*
X100218779Y-60966450D01*
X100227670Y-60956000D01*
X102141400Y-60956000D01*
X102141400Y-61033244D01*
X102147801Y-61092772D01*
X102147803Y-61092779D01*
X102198045Y-61227486D01*
X102198049Y-61227493D01*
X102284209Y-61342587D01*
X102284212Y-61342590D01*
X102399306Y-61428750D01*
X102399313Y-61428754D01*
X102534020Y-61478996D01*
X102534027Y-61478998D01*
X102593555Y-61485399D01*
X102593572Y-61485400D01*
X103382000Y-61485400D01*
X103382000Y-60956000D01*
X103882000Y-60956000D01*
X103882000Y-61485400D01*
X104670428Y-61485400D01*
X104670444Y-61485399D01*
X104729972Y-61478998D01*
X104729979Y-61478996D01*
X104864686Y-61428754D01*
X104864693Y-61428750D01*
X104979787Y-61342590D01*
X104979790Y-61342587D01*
X105065950Y-61227493D01*
X105065954Y-61227486D01*
X105116196Y-61092779D01*
X105116198Y-61092772D01*
X105122599Y-61033244D01*
X105122600Y-61033227D01*
X105122600Y-60956000D01*
X103882000Y-60956000D01*
X103382000Y-60956000D01*
X102141400Y-60956000D01*
X100227670Y-60956000D01*
X100231686Y-60951279D01*
X101577638Y-59605327D01*
X101591267Y-59593550D01*
X101610530Y-59579210D01*
X101610532Y-59579206D01*
X101610534Y-59579206D01*
X101628663Y-59557599D01*
X101644113Y-59539185D01*
X101647767Y-59535199D01*
X101653591Y-59529376D01*
X101673930Y-59503652D01*
X101723302Y-59444814D01*
X101723306Y-59444805D01*
X101727274Y-59438775D01*
X101727325Y-59438808D01*
X101731369Y-59432460D01*
X101731317Y-59432428D01*
X101735104Y-59426285D01*
X101735111Y-59426277D01*
X101767572Y-59356663D01*
X101802040Y-59288033D01*
X101802041Y-59288027D01*
X101804508Y-59281250D01*
X101804566Y-59281271D01*
X101807043Y-59274144D01*
X101806986Y-59274126D01*
X101809255Y-59267279D01*
X101809256Y-59267274D01*
X101809257Y-59267272D01*
X101824790Y-59192041D01*
X101842500Y-59117321D01*
X101842500Y-59117319D01*
X101843339Y-59110148D01*
X101843398Y-59110154D01*
X101844164Y-59102654D01*
X101844105Y-59102649D01*
X101844734Y-59095459D01*
X101843385Y-59049113D01*
X101842500Y-59018682D01*
X101842500Y-56324705D01*
X101843809Y-56306735D01*
X101844223Y-56303905D01*
X101847289Y-56282977D01*
X101846871Y-56278203D01*
X101842736Y-56230939D01*
X101842500Y-56225532D01*
X101842500Y-56217297D01*
X101842500Y-56217291D01*
X101838691Y-56184707D01*
X101837649Y-56172802D01*
X101835837Y-56152082D01*
X101831998Y-56108202D01*
X101831996Y-56108197D01*
X101830538Y-56101133D01*
X101830597Y-56101120D01*
X101828967Y-56093764D01*
X101828908Y-56093779D01*
X101827242Y-56086753D01*
X101827241Y-56086745D01*
X101800973Y-56014573D01*
X101793526Y-55992100D01*
X101776815Y-55941666D01*
X101773763Y-55935121D01*
X101773817Y-55935095D01*
X101770533Y-55928312D01*
X101770480Y-55928340D01*
X101767238Y-55921885D01*
X101750661Y-55896681D01*
X101725029Y-55857709D01*
X101684711Y-55792344D01*
X101684710Y-55792343D01*
X101684709Y-55792341D01*
X101680233Y-55786681D01*
X101680280Y-55786643D01*
X101675519Y-55780799D01*
X101675474Y-55780838D01*
X101670834Y-55775309D01*
X101670832Y-55775307D01*
X101670830Y-55775304D01*
X101639546Y-55745789D01*
X101614965Y-55722597D01*
X101599762Y-55707394D01*
X101566277Y-55646071D01*
X101571261Y-55576379D01*
X101613133Y-55520446D01*
X101678597Y-55496029D01*
X101726442Y-55502006D01*
X101859203Y-55545999D01*
X101961991Y-55556500D01*
X102762008Y-55556499D01*
X102762016Y-55556498D01*
X102762019Y-55556498D01*
X102818302Y-55550748D01*
X102864797Y-55545999D01*
X103031334Y-55490814D01*
X103180656Y-55398712D01*
X103274675Y-55304692D01*
X103335994Y-55271210D01*
X103405686Y-55276194D01*
X103450034Y-55304695D01*
X103543654Y-55398315D01*
X103692875Y-55490356D01*
X103692880Y-55490358D01*
X103746434Y-55508104D01*
X103803879Y-55547876D01*
X103830702Y-55612392D01*
X103818387Y-55681168D01*
X103775571Y-55729409D01*
X103736700Y-55754976D01*
X103671350Y-55795284D01*
X103665682Y-55799766D01*
X103665646Y-55799720D01*
X103659798Y-55804484D01*
X103659835Y-55804528D01*
X103654310Y-55809164D01*
X103601599Y-55865033D01*
X103386850Y-56079781D01*
X103325527Y-56113266D01*
X103299169Y-56116100D01*
X102593529Y-56116100D01*
X102593523Y-56116101D01*
X102533916Y-56122508D01*
X102399071Y-56172802D01*
X102399064Y-56172806D01*
X102283855Y-56259052D01*
X102283852Y-56259055D01*
X102197606Y-56374264D01*
X102197602Y-56374271D01*
X102147310Y-56509113D01*
X102147309Y-56509117D01*
X102140900Y-56568727D01*
X102140900Y-56568734D01*
X102140900Y-56568735D01*
X102140900Y-57223270D01*
X102140901Y-57223276D01*
X102147308Y-57282883D01*
X102197602Y-57417728D01*
X102197603Y-57417730D01*
X102226768Y-57456690D01*
X102251184Y-57522155D01*
X102236332Y-57590428D01*
X102226768Y-57605310D01*
X102197603Y-57644269D01*
X102197602Y-57644271D01*
X102147310Y-57779113D01*
X102147309Y-57779117D01*
X102140900Y-57838727D01*
X102140900Y-57838734D01*
X102140900Y-57838735D01*
X102140900Y-58493270D01*
X102140901Y-58493276D01*
X102147308Y-58552883D01*
X102197602Y-58687728D01*
X102197603Y-58687730D01*
X102226768Y-58726690D01*
X102251184Y-58792155D01*
X102236332Y-58860428D01*
X102226768Y-58875310D01*
X102197603Y-58914269D01*
X102197602Y-58914271D01*
X102147310Y-59049113D01*
X102147309Y-59049117D01*
X102140900Y-59108727D01*
X102140900Y-59108734D01*
X102140900Y-59108735D01*
X102140900Y-59763270D01*
X102140901Y-59763276D01*
X102147308Y-59822883D01*
X102197602Y-59957728D01*
X102197604Y-59957731D01*
X102227079Y-59997104D01*
X102251497Y-60062568D01*
X102236646Y-60130841D01*
X102227080Y-60145726D01*
X102198049Y-60184506D01*
X102198045Y-60184513D01*
X102147803Y-60319220D01*
X102147801Y-60319227D01*
X102141400Y-60378755D01*
X102141400Y-60456000D01*
X105122600Y-60456000D01*
X105122600Y-60378772D01*
X105122599Y-60378758D01*
X105116685Y-60323757D01*
X105129089Y-60254997D01*
X105176699Y-60203859D01*
X105239974Y-60186500D01*
X106897961Y-60186500D01*
X106926558Y-60189843D01*
X106966696Y-60199355D01*
X106988401Y-60204500D01*
X106988402Y-60204500D01*
X106995575Y-60205339D01*
X106995568Y-60205398D01*
X107003066Y-60206164D01*
X107003072Y-60206105D01*
X107010261Y-60206734D01*
X107010265Y-60206733D01*
X107010266Y-60206734D01*
X107087039Y-60204500D01*
X108506173Y-60204500D01*
X108524143Y-60205809D01*
X108547901Y-60209289D01*
X108599946Y-60204735D01*
X108605348Y-60204500D01*
X108613582Y-60204500D01*
X108613587Y-60204500D01*
X108625205Y-60203141D01*
X108646154Y-60200693D01*
X108658906Y-60199577D01*
X108722675Y-60193999D01*
X108722683Y-60193996D01*
X108729744Y-60192539D01*
X108729756Y-60192598D01*
X108737121Y-60190965D01*
X108737107Y-60190906D01*
X108744124Y-60189241D01*
X108744133Y-60189241D01*
X108816301Y-60162974D01*
X108889212Y-60138814D01*
X108889221Y-60138807D01*
X108895760Y-60135760D01*
X108895786Y-60135816D01*
X108902568Y-60132532D01*
X108902541Y-60132478D01*
X108908984Y-60129240D01*
X108908995Y-60129237D01*
X108973161Y-60087034D01*
X109038534Y-60046712D01*
X109038540Y-60046705D01*
X109044203Y-60042229D01*
X109044240Y-60042277D01*
X109050082Y-60037518D01*
X109050042Y-60037471D01*
X109055564Y-60032836D01*
X109055574Y-60032830D01*
X109077276Y-60009825D01*
X109108264Y-59976982D01*
X110873696Y-58211548D01*
X111247638Y-57837605D01*
X111261267Y-57825828D01*
X111261865Y-57825383D01*
X111280530Y-57811488D01*
X111280532Y-57811484D01*
X111280534Y-57811484D01*
X111307695Y-57779113D01*
X111314113Y-57771463D01*
X111317767Y-57767477D01*
X111323591Y-57761654D01*
X111343930Y-57735930D01*
X111393302Y-57677092D01*
X111393306Y-57677083D01*
X111397274Y-57671053D01*
X111397325Y-57671086D01*
X111401369Y-57664738D01*
X111401317Y-57664706D01*
X111405104Y-57658563D01*
X111405111Y-57658555D01*
X111437572Y-57588941D01*
X111472040Y-57520311D01*
X111472041Y-57520305D01*
X111474508Y-57513528D01*
X111474566Y-57513549D01*
X111477043Y-57506422D01*
X111476986Y-57506404D01*
X111479255Y-57499557D01*
X111479256Y-57499552D01*
X111479257Y-57499550D01*
X111494790Y-57424319D01*
X111512500Y-57349599D01*
X111512500Y-57349597D01*
X111513339Y-57342426D01*
X111513398Y-57342432D01*
X111514164Y-57334932D01*
X111514105Y-57334927D01*
X111514734Y-57327737D01*
X111512500Y-57250960D01*
X111512500Y-56877673D01*
X111532185Y-56810634D01*
X111584989Y-56764879D01*
X111654147Y-56754935D01*
X111701288Y-56771945D01*
X111720311Y-56783602D01*
X111958876Y-56882419D01*
X112209962Y-56942699D01*
X112467386Y-56962959D01*
X112724810Y-56942699D01*
X112975896Y-56882419D01*
X113214461Y-56783602D01*
X113434630Y-56648683D01*
X113630982Y-56480982D01*
X113798683Y-56284630D01*
X113933602Y-56064461D01*
X114032419Y-55825896D01*
X114092699Y-55574810D01*
X114112959Y-55317386D01*
X114092699Y-55059962D01*
X114032419Y-54808876D01*
X113933602Y-54570311D01*
X113798683Y-54350142D01*
X113630982Y-54153790D01*
X113434630Y-53986089D01*
X113214461Y-53851170D01*
X113214460Y-53851169D01*
X113214456Y-53851167D01*
X112975898Y-53752354D01*
X112975900Y-53752354D01*
X112975896Y-53752353D01*
X112975892Y-53752352D01*
X112975886Y-53752350D01*
X112724813Y-53692073D01*
X112467386Y-53671813D01*
X112209958Y-53692073D01*
X111958885Y-53752350D01*
X111958873Y-53752354D01*
X111720313Y-53851168D01*
X111701288Y-53862827D01*
X111633842Y-53881069D01*
X111567240Y-53859952D01*
X111522627Y-53806179D01*
X111512500Y-53757098D01*
X111512500Y-53672827D01*
X111513809Y-53654857D01*
X111514191Y-53652249D01*
X111517289Y-53631099D01*
X111516906Y-53626726D01*
X111512736Y-53579056D01*
X111512500Y-53573650D01*
X111512500Y-53565419D01*
X111512500Y-53565413D01*
X111508693Y-53532846D01*
X111501999Y-53456325D01*
X111501999Y-53456323D01*
X111500539Y-53449251D01*
X111500597Y-53449238D01*
X111498965Y-53441876D01*
X111498906Y-53441891D01*
X111497842Y-53437401D01*
X111497696Y-53436152D01*
X111497050Y-53433238D01*
X111496401Y-53427680D01*
X111496701Y-53427644D01*
X111494500Y-53408808D01*
X111494500Y-52316230D01*
X111514185Y-52249191D01*
X111530817Y-52228551D01*
X111552637Y-52206730D01*
X111566275Y-52194944D01*
X111585530Y-52180610D01*
X111611061Y-52150183D01*
X111619101Y-52140601D01*
X111622761Y-52136606D01*
X111628590Y-52130778D01*
X111648941Y-52105039D01*
X111656965Y-52095476D01*
X111698302Y-52046214D01*
X111698306Y-52046205D01*
X111702274Y-52040175D01*
X111702325Y-52040208D01*
X111706372Y-52033856D01*
X111706320Y-52033824D01*
X111710112Y-52027675D01*
X111742575Y-51958058D01*
X111770503Y-51902448D01*
X111777040Y-51889433D01*
X111777042Y-51889421D01*
X111779509Y-51882646D01*
X111779567Y-51882667D01*
X111782043Y-51875546D01*
X111781986Y-51875528D01*
X111784257Y-51868673D01*
X111799792Y-51793434D01*
X111817498Y-51718728D01*
X111817500Y-51718721D01*
X111817500Y-51718710D01*
X111818338Y-51711548D01*
X111818398Y-51711555D01*
X111819164Y-51704055D01*
X111819105Y-51704050D01*
X111819734Y-51696860D01*
X111817500Y-51620083D01*
X111817500Y-50195543D01*
X111837185Y-50128504D01*
X111889989Y-50082749D01*
X111959147Y-50072805D01*
X111991936Y-50082264D01*
X112115197Y-50137144D01*
X112300354Y-50176500D01*
X112300355Y-50176500D01*
X112489644Y-50176500D01*
X112489646Y-50176500D01*
X112674803Y-50137144D01*
X112847730Y-50060151D01*
X113000871Y-49948888D01*
X113127533Y-49808216D01*
X113222179Y-49644284D01*
X113280674Y-49464256D01*
X113300460Y-49276000D01*
X113280674Y-49087744D01*
X113222179Y-48907716D01*
X113211951Y-48890000D01*
X113162113Y-48803677D01*
X113145500Y-48741677D01*
X113145500Y-48708638D01*
X113165185Y-48641599D01*
X113204401Y-48603100D01*
X113313656Y-48535712D01*
X113437712Y-48411656D01*
X113443420Y-48402402D01*
X113495368Y-48355678D01*
X113548958Y-48343500D01*
X114349501Y-48343500D01*
X114416540Y-48363185D01*
X114462295Y-48415989D01*
X114473501Y-48467500D01*
X114473501Y-48781876D01*
X114479908Y-48841483D01*
X114530202Y-48976328D01*
X114530206Y-48976335D01*
X114616452Y-49091544D01*
X114616455Y-49091547D01*
X114731664Y-49177793D01*
X114731671Y-49177797D01*
X114866517Y-49228091D01*
X114866516Y-49228091D01*
X114873444Y-49228835D01*
X114926127Y-49234500D01*
X116721872Y-49234499D01*
X116781483Y-49228091D01*
X116916331Y-49177796D01*
X117031546Y-49091546D01*
X117117796Y-48976331D01*
X117168091Y-48841483D01*
X117174500Y-48781873D01*
X117174499Y-46986128D01*
X117168091Y-46926517D01*
X117131221Y-46827664D01*
X117117797Y-46791671D01*
X117117793Y-46791664D01*
X117031547Y-46676455D01*
X117031544Y-46676452D01*
X116916335Y-46590206D01*
X116916328Y-46590202D01*
X116784917Y-46541189D01*
X116728983Y-46499318D01*
X116704566Y-46433853D01*
X116719418Y-46365580D01*
X116740563Y-46337332D01*
X116862495Y-46215401D01*
X116998035Y-46021830D01*
X117097903Y-45807663D01*
X117159063Y-45579408D01*
X117179659Y-45344000D01*
X117159063Y-45108592D01*
X117097903Y-44880337D01*
X116998035Y-44666171D01*
X116998034Y-44666169D01*
X116862494Y-44472597D01*
X116695402Y-44305506D01*
X116695395Y-44305501D01*
X116501834Y-44169967D01*
X116501830Y-44169965D01*
X116465571Y-44153057D01*
X116287663Y-44070097D01*
X116287659Y-44070096D01*
X116287655Y-44070094D01*
X116059413Y-44008938D01*
X116059403Y-44008936D01*
X115824001Y-43988341D01*
X115823999Y-43988341D01*
X115588596Y-44008936D01*
X115588586Y-44008938D01*
X115360344Y-44070094D01*
X115360335Y-44070098D01*
X115146171Y-44169964D01*
X115146169Y-44169965D01*
X114952597Y-44305505D01*
X114785505Y-44472597D01*
X114649967Y-44666166D01*
X114649965Y-44666170D01*
X114627010Y-44715397D01*
X114601125Y-44770906D01*
X114554955Y-44823344D01*
X114488745Y-44842500D01*
X113548958Y-44842500D01*
X113481919Y-44822815D01*
X113443420Y-44783598D01*
X113437712Y-44774344D01*
X113313657Y-44650289D01*
X113313656Y-44650288D01*
X113164334Y-44558186D01*
X112997797Y-44503001D01*
X112997795Y-44503000D01*
X112895010Y-44492500D01*
X111894998Y-44492500D01*
X111894980Y-44492501D01*
X111792203Y-44503000D01*
X111792200Y-44503001D01*
X111625668Y-44558185D01*
X111625663Y-44558187D01*
X111476342Y-44650289D01*
X111352287Y-44774344D01*
X111347037Y-44782857D01*
X111295088Y-44829581D01*
X111226126Y-44840802D01*
X111162044Y-44812958D01*
X111123189Y-44754889D01*
X111117499Y-44717759D01*
X111117499Y-44275129D01*
X111117498Y-44275123D01*
X111117497Y-44275116D01*
X111111091Y-44215517D01*
X111103399Y-44194895D01*
X111060797Y-44080671D01*
X111060795Y-44080668D01*
X111056440Y-44074850D01*
X111012617Y-44016311D01*
X110988200Y-43950847D01*
X111003051Y-43882574D01*
X111012616Y-43867691D01*
X111060796Y-43803331D01*
X111111091Y-43668483D01*
X111117500Y-43608873D01*
X111117499Y-41735128D01*
X111111091Y-41675517D01*
X111106988Y-41664517D01*
X111060797Y-41540671D01*
X111060795Y-41540668D01*
X111059055Y-41538343D01*
X111012617Y-41476311D01*
X110988200Y-41410847D01*
X111003051Y-41342574D01*
X111012616Y-41327691D01*
X111060796Y-41263331D01*
X111111091Y-41128483D01*
X111117500Y-41068873D01*
X111117499Y-41021360D01*
X111137182Y-40954324D01*
X111189985Y-40908568D01*
X111259144Y-40898623D01*
X111303495Y-40913971D01*
X111307267Y-40916149D01*
X111307270Y-40916151D01*
X111307272Y-40916152D01*
X111307274Y-40916153D01*
X111480192Y-40993142D01*
X111480197Y-40993144D01*
X111665354Y-41032500D01*
X111665355Y-41032500D01*
X111854644Y-41032500D01*
X111854646Y-41032500D01*
X112039803Y-40993144D01*
X112212730Y-40916151D01*
X112365871Y-40804888D01*
X112492533Y-40664216D01*
X112587179Y-40500284D01*
X112645674Y-40320256D01*
X112665460Y-40132000D01*
X112645674Y-39943744D01*
X112587179Y-39763716D01*
X112492533Y-39599784D01*
X112365871Y-39459112D01*
X112365870Y-39459111D01*
X112212734Y-39347851D01*
X112212729Y-39347848D01*
X112039807Y-39270857D01*
X112039802Y-39270855D01*
X111894001Y-39239865D01*
X111854646Y-39231500D01*
X111665354Y-39231500D01*
X111632897Y-39238398D01*
X111480197Y-39270855D01*
X111480192Y-39270857D01*
X111307268Y-39347849D01*
X111303486Y-39350033D01*
X111235584Y-39366497D01*
X111169560Y-39343637D01*
X111126376Y-39288710D01*
X111117499Y-39242638D01*
X111117499Y-39195129D01*
X111117498Y-39195123D01*
X111117497Y-39195116D01*
X111111091Y-39135517D01*
X111060796Y-39000669D01*
X111012617Y-38936311D01*
X110988200Y-38870847D01*
X111003051Y-38802574D01*
X111012618Y-38787688D01*
X111060796Y-38723331D01*
X111111091Y-38588483D01*
X111117500Y-38528873D01*
X111117499Y-36655128D01*
X111111091Y-36595517D01*
X111082909Y-36519958D01*
X111060797Y-36460671D01*
X111060795Y-36460668D01*
X111012618Y-36396312D01*
X110988200Y-36330847D01*
X111003051Y-36262574D01*
X111012616Y-36247691D01*
X111060796Y-36183331D01*
X111111091Y-36048483D01*
X111117500Y-35988873D01*
X111117499Y-34115128D01*
X111111091Y-34055517D01*
X111060796Y-33920669D01*
X111060795Y-33920667D01*
X111060793Y-33920664D01*
X110970522Y-33800078D01*
X110946104Y-33734614D01*
X110953860Y-33698953D01*
X110920545Y-33718601D01*
X110850727Y-33715922D01*
X110846866Y-33714554D01*
X110724482Y-33668908D01*
X110724483Y-33668908D01*
X110664883Y-33662501D01*
X110664881Y-33662500D01*
X110664873Y-33662500D01*
X110664864Y-33662500D01*
X107013129Y-33662500D01*
X107013123Y-33662501D01*
X106953516Y-33668908D01*
X106818671Y-33719202D01*
X106818664Y-33719206D01*
X106703455Y-33805452D01*
X106703452Y-33805455D01*
X106617206Y-33920664D01*
X106617202Y-33920671D01*
X106566908Y-34055517D01*
X106560501Y-34115116D01*
X106560501Y-34115123D01*
X106560500Y-34115135D01*
X106560500Y-34177500D01*
X106540815Y-34244539D01*
X106488011Y-34290294D01*
X106436500Y-34301500D01*
X106362705Y-34301500D01*
X106344735Y-34300191D01*
X106320972Y-34296710D01*
X106275890Y-34300655D01*
X106268933Y-34301264D01*
X106263532Y-34301500D01*
X106255287Y-34301500D01*
X106229222Y-34304546D01*
X106222705Y-34305308D01*
X106217403Y-34305771D01*
X106146201Y-34312001D01*
X106139134Y-34313461D01*
X106139122Y-34313404D01*
X106131753Y-34315038D01*
X106131767Y-34315095D01*
X106124739Y-34316760D01*
X106052576Y-34343025D01*
X106052568Y-34343028D01*
X105979665Y-34367186D01*
X105979663Y-34367186D01*
X105979660Y-34367188D01*
X105973123Y-34370236D01*
X105973098Y-34370184D01*
X105966310Y-34373470D01*
X105966336Y-34373521D01*
X105959885Y-34376761D01*
X105895723Y-34418961D01*
X105830346Y-34459285D01*
X105824682Y-34463765D01*
X105824646Y-34463719D01*
X105818798Y-34468484D01*
X105818835Y-34468528D01*
X105813310Y-34473164D01*
X105760614Y-34529017D01*
X104876228Y-35413402D01*
X104814905Y-35446887D01*
X104814329Y-35447011D01*
X104749196Y-35460856D01*
X104749192Y-35460857D01*
X104576270Y-35537848D01*
X104576265Y-35537851D01*
X104423129Y-35649111D01*
X104296466Y-35789785D01*
X104201821Y-35953715D01*
X104201818Y-35953722D01*
X104158965Y-36085611D01*
X104143326Y-36133744D01*
X104123540Y-36322000D01*
X104143326Y-36510256D01*
X104143327Y-36510259D01*
X104201818Y-36690277D01*
X104201821Y-36690284D01*
X104296467Y-36854216D01*
X104423129Y-36994888D01*
X104576265Y-37106148D01*
X104576270Y-37106151D01*
X104749192Y-37183142D01*
X104749197Y-37183144D01*
X104934354Y-37222500D01*
X104934355Y-37222500D01*
X105123644Y-37222500D01*
X105123646Y-37222500D01*
X105308803Y-37183144D01*
X105481730Y-37106151D01*
X105634871Y-36994888D01*
X105761533Y-36854216D01*
X105856179Y-36690284D01*
X105911522Y-36519955D01*
X105941769Y-36470597D01*
X106375322Y-36037043D01*
X106436643Y-36003560D01*
X106506334Y-36008544D01*
X106562268Y-36050415D01*
X106579183Y-36081393D01*
X106617202Y-36183328D01*
X106617204Y-36183331D01*
X106665382Y-36247689D01*
X106689799Y-36313154D01*
X106674947Y-36381427D01*
X106665382Y-36396311D01*
X106617204Y-36460668D01*
X106617202Y-36460671D01*
X106566908Y-36595517D01*
X106560501Y-36655116D01*
X106560501Y-36655123D01*
X106560500Y-36655135D01*
X106560500Y-37614769D01*
X106540815Y-37681808D01*
X106524181Y-37702450D01*
X94565180Y-49661451D01*
X94503857Y-49694936D01*
X94434165Y-49689952D01*
X94378232Y-49648080D01*
X94353815Y-49582616D01*
X94353499Y-49573770D01*
X94353499Y-49355129D01*
X94353498Y-49355123D01*
X94353497Y-49355116D01*
X94347091Y-49295517D01*
X94324332Y-49234498D01*
X94296797Y-49160671D01*
X94296795Y-49160668D01*
X94282904Y-49142112D01*
X94248617Y-49096311D01*
X94224200Y-49030847D01*
X94239051Y-48962574D01*
X94248616Y-48947691D01*
X94296796Y-48883331D01*
X94347091Y-48748483D01*
X94353500Y-48688873D01*
X94353499Y-46815128D01*
X94347091Y-46755517D01*
X94317602Y-46676454D01*
X94296797Y-46620671D01*
X94296795Y-46620668D01*
X94248617Y-46556311D01*
X94224200Y-46490847D01*
X94239051Y-46422574D01*
X94248616Y-46407691D01*
X94296796Y-46343331D01*
X94347091Y-46208483D01*
X94353500Y-46148873D01*
X94353499Y-44275128D01*
X94347091Y-44215517D01*
X94339399Y-44194895D01*
X94296797Y-44080671D01*
X94296795Y-44080668D01*
X94292440Y-44074850D01*
X94248617Y-44016311D01*
X94224200Y-43950847D01*
X94239051Y-43882574D01*
X94248616Y-43867691D01*
X94296796Y-43803331D01*
X94347091Y-43668483D01*
X94353500Y-43608873D01*
X94353499Y-41735128D01*
X94347091Y-41675517D01*
X94342988Y-41664517D01*
X94296797Y-41540671D01*
X94296795Y-41540668D01*
X94295055Y-41538343D01*
X94248617Y-41476311D01*
X94224200Y-41410847D01*
X94239051Y-41342574D01*
X94248616Y-41327691D01*
X94296796Y-41263331D01*
X94347091Y-41128483D01*
X94352436Y-41078769D01*
X96353372Y-41078769D01*
X96353950Y-41086109D01*
X96414212Y-41337123D01*
X96414212Y-41337124D01*
X96512996Y-41575611D01*
X96512998Y-41575614D01*
X96647875Y-41795713D01*
X96647879Y-41795718D01*
X96815527Y-41992008D01*
X97011817Y-42159656D01*
X97011822Y-42159660D01*
X97231921Y-42294537D01*
X97231924Y-42294539D01*
X97470412Y-42393323D01*
X97721426Y-42453585D01*
X97728766Y-42454163D01*
X97728768Y-42454162D01*
X97728768Y-41550570D01*
X97889937Y-41588768D01*
X98023035Y-41588768D01*
X98155229Y-41573317D01*
X98228768Y-41546550D01*
X98228768Y-42454162D01*
X98228769Y-42454163D01*
X98236109Y-42453585D01*
X98487123Y-42393323D01*
X98487124Y-42393323D01*
X98725611Y-42294539D01*
X98725614Y-42294537D01*
X98945713Y-42159660D01*
X98945718Y-42159656D01*
X99142008Y-41992008D01*
X99309656Y-41795718D01*
X99309660Y-41795713D01*
X99444537Y-41575614D01*
X99444539Y-41575611D01*
X99543323Y-41337124D01*
X99543323Y-41337123D01*
X99603585Y-41086109D01*
X99604163Y-41078769D01*
X99604162Y-41078768D01*
X98697251Y-41078768D01*
X98732317Y-40961639D01*
X98742647Y-40784277D01*
X98711797Y-40609314D01*
X98698621Y-40578768D01*
X99604162Y-40578768D01*
X99604163Y-40578766D01*
X99603585Y-40571426D01*
X99543323Y-40320412D01*
X99543323Y-40320411D01*
X99444539Y-40081924D01*
X99444537Y-40081921D01*
X99309660Y-39861822D01*
X99309656Y-39861817D01*
X99142008Y-39665527D01*
X98945718Y-39497879D01*
X98945713Y-39497875D01*
X98725614Y-39362998D01*
X98725611Y-39362996D01*
X98487123Y-39264212D01*
X98236113Y-39203951D01*
X98228768Y-39203372D01*
X98228768Y-40106965D01*
X98067599Y-40068768D01*
X97934501Y-40068768D01*
X97802307Y-40084219D01*
X97728768Y-40110985D01*
X97728768Y-39203372D01*
X97721422Y-39203951D01*
X97470412Y-39264212D01*
X97470411Y-39264212D01*
X97231924Y-39362996D01*
X97231921Y-39362998D01*
X97011822Y-39497875D01*
X97011817Y-39497879D01*
X96815527Y-39665527D01*
X96647879Y-39861817D01*
X96647875Y-39861822D01*
X96512998Y-40081921D01*
X96512996Y-40081924D01*
X96414212Y-40320411D01*
X96414212Y-40320412D01*
X96353950Y-40571426D01*
X96353372Y-40578766D01*
X96353374Y-40578768D01*
X97260285Y-40578768D01*
X97225219Y-40695897D01*
X97214889Y-40873259D01*
X97245739Y-41048222D01*
X97258915Y-41078768D01*
X96353374Y-41078768D01*
X96353372Y-41078769D01*
X94352436Y-41078769D01*
X94353500Y-41068873D01*
X94353499Y-39195128D01*
X94347091Y-39135517D01*
X94296796Y-39000669D01*
X94296795Y-39000668D01*
X94296793Y-39000664D01*
X94248306Y-38935894D01*
X94223888Y-38870430D01*
X94238739Y-38802157D01*
X94248306Y-38787271D01*
X94296352Y-38723089D01*
X94296354Y-38723086D01*
X94346596Y-38588379D01*
X94346598Y-38588372D01*
X94352999Y-38528844D01*
X94353000Y-38528827D01*
X94353000Y-37842000D01*
X89797000Y-37842000D01*
X89797000Y-38528844D01*
X89803401Y-38588372D01*
X89803403Y-38588379D01*
X89853645Y-38723086D01*
X89853647Y-38723089D01*
X89901694Y-38787272D01*
X89926111Y-38852737D01*
X89911259Y-38921010D01*
X89901694Y-38935893D01*
X89853206Y-39000665D01*
X89853202Y-39000671D01*
X89802908Y-39135517D01*
X89798869Y-39173091D01*
X89796501Y-39195123D01*
X89796500Y-39195135D01*
X89796500Y-40027769D01*
X89776815Y-40094808D01*
X89760181Y-40115450D01*
X88516429Y-41359201D01*
X88502800Y-41370980D01*
X88483539Y-41385319D01*
X88449969Y-41425326D01*
X88446324Y-41429305D01*
X88440480Y-41435151D01*
X88420130Y-41460888D01*
X88370766Y-41519718D01*
X88366800Y-41525748D01*
X88366753Y-41525717D01*
X88362701Y-41532076D01*
X88362750Y-41532106D01*
X88358960Y-41538250D01*
X88326495Y-41607870D01*
X88292031Y-41676495D01*
X88289559Y-41683286D01*
X88289503Y-41683265D01*
X88287031Y-41690379D01*
X88287086Y-41690398D01*
X88284814Y-41697254D01*
X88273972Y-41749760D01*
X88241136Y-41811433D01*
X88180170Y-41845564D01*
X88113531Y-41842389D01*
X88003700Y-41805995D01*
X88003690Y-41805993D01*
X87900986Y-41795500D01*
X87626000Y-41795500D01*
X87626000Y-43009000D01*
X87606315Y-43076039D01*
X87553511Y-43121794D01*
X87502000Y-43133000D01*
X87250000Y-43133000D01*
X87182961Y-43113315D01*
X87137206Y-43060511D01*
X87126000Y-43009000D01*
X87126000Y-41795500D01*
X86851029Y-41795500D01*
X86851010Y-41795501D01*
X86750332Y-41805786D01*
X86681639Y-41793016D01*
X86630755Y-41745135D01*
X86614441Y-41695681D01*
X86611091Y-41664516D01*
X86560797Y-41529671D01*
X86560796Y-41529670D01*
X86560796Y-41529669D01*
X86474546Y-41414454D01*
X86474545Y-41414453D01*
X86474543Y-41414450D01*
X86472776Y-41412683D01*
X86471578Y-41410489D01*
X86469231Y-41407354D01*
X86469681Y-41407016D01*
X86439291Y-41351360D01*
X86444275Y-41281668D01*
X86453066Y-41263009D01*
X86726067Y-40790158D01*
X86768368Y-40695890D01*
X86794067Y-40571426D01*
X86803845Y-40524074D01*
X86798744Y-40348706D01*
X86798744Y-40348704D01*
X86753336Y-40179241D01*
X86751490Y-40175818D01*
X86750934Y-40173195D01*
X86750669Y-40172528D01*
X86750783Y-40172482D01*
X86736997Y-40107471D01*
X86761757Y-40042135D01*
X86817909Y-40000558D01*
X86857033Y-39993017D01*
X86860551Y-39992914D01*
X87029897Y-39947539D01*
X87184219Y-39864328D01*
X87315193Y-39747773D01*
X87315198Y-39747768D01*
X87375637Y-39664071D01*
X87444380Y-39545002D01*
X86538007Y-39021708D01*
X86538004Y-39021707D01*
X86274380Y-38869503D01*
X86226164Y-38818936D01*
X86212942Y-38750329D01*
X86228993Y-38700116D01*
X86272655Y-38624491D01*
X86850005Y-38624491D01*
X87694379Y-39111990D01*
X87694380Y-39111990D01*
X87763115Y-38992938D01*
X87763124Y-38992920D01*
X87805390Y-38898729D01*
X87840844Y-38727028D01*
X87835746Y-38551776D01*
X87790366Y-38382421D01*
X87707157Y-38228101D01*
X87590603Y-38097130D01*
X87590602Y-38097129D01*
X87506901Y-38036689D01*
X87506884Y-38036678D01*
X87268755Y-37899195D01*
X87268754Y-37899195D01*
X86850005Y-38624490D01*
X86850005Y-38624491D01*
X86272655Y-38624491D01*
X86835741Y-37649195D01*
X86835741Y-37649194D01*
X86597608Y-37511709D01*
X86597588Y-37511699D01*
X86503402Y-37469435D01*
X86503403Y-37469435D01*
X86331699Y-37433981D01*
X86269451Y-37435793D01*
X86201867Y-37418066D01*
X86154596Y-37366615D01*
X86142646Y-37297775D01*
X86165868Y-37238493D01*
X86231624Y-37148875D01*
X86233366Y-37146613D01*
X86762166Y-36492555D01*
X86763978Y-36490418D01*
X87322863Y-35861855D01*
X87324779Y-35859799D01*
X87912505Y-35258130D01*
X87914515Y-35256165D01*
X88529828Y-34682676D01*
X88531909Y-34680826D01*
X89173415Y-34136818D01*
X89175591Y-34135058D01*
X89678869Y-33747316D01*
X89743986Y-33721995D01*
X89812459Y-33735900D01*
X89862544Y-33784616D01*
X89878340Y-33852677D01*
X89856930Y-33912600D01*
X89857454Y-33912886D01*
X89855643Y-33916201D01*
X89854832Y-33918473D01*
X89853816Y-33919851D01*
X89853204Y-33920667D01*
X89853202Y-33920671D01*
X89802908Y-34055517D01*
X89796501Y-34115116D01*
X89796501Y-34115123D01*
X89796500Y-34115135D01*
X89796500Y-34184351D01*
X89776815Y-34251390D01*
X89724011Y-34297145D01*
X89683309Y-34307879D01*
X89636198Y-34312001D01*
X89629132Y-34313460D01*
X89629120Y-34313404D01*
X89621763Y-34315035D01*
X89621777Y-34315092D01*
X89614743Y-34316759D01*
X89542575Y-34343025D01*
X89469665Y-34367185D01*
X89463126Y-34370235D01*
X89463101Y-34370183D01*
X89456308Y-34373471D01*
X89456334Y-34373522D01*
X89449884Y-34376761D01*
X89385716Y-34418964D01*
X89320347Y-34459285D01*
X89314677Y-34463769D01*
X89314641Y-34463723D01*
X89308798Y-34468484D01*
X89308835Y-34468528D01*
X89303310Y-34473164D01*
X89250614Y-34529017D01*
X88287358Y-35492272D01*
X88273729Y-35504051D01*
X88254468Y-35518390D01*
X88220898Y-35558397D01*
X88217253Y-35562376D01*
X88211409Y-35568222D01*
X88191059Y-35593959D01*
X88141695Y-35652789D01*
X88137729Y-35658819D01*
X88137682Y-35658788D01*
X88133630Y-35665147D01*
X88133679Y-35665177D01*
X88129886Y-35671326D01*
X88119198Y-35694246D01*
X88098969Y-35724810D01*
X88040466Y-35789784D01*
X88040465Y-35789785D01*
X87945821Y-35953715D01*
X87945818Y-35953722D01*
X87902965Y-36085611D01*
X87887326Y-36133744D01*
X87867540Y-36322000D01*
X87887326Y-36510256D01*
X87887327Y-36510259D01*
X87945818Y-36690277D01*
X87945821Y-36690284D01*
X88040467Y-36854216D01*
X88167129Y-36994888D01*
X88320265Y-37106148D01*
X88320270Y-37106151D01*
X88493192Y-37183142D01*
X88493197Y-37183144D01*
X88678354Y-37222500D01*
X88678355Y-37222500D01*
X88867644Y-37222500D01*
X88867646Y-37222500D01*
X89052803Y-37183144D01*
X89225730Y-37106151D01*
X89378871Y-36994888D01*
X89505533Y-36854216D01*
X89565613Y-36750153D01*
X89616179Y-36701939D01*
X89684786Y-36688715D01*
X89749651Y-36714683D01*
X89790180Y-36771597D01*
X89797000Y-36812154D01*
X89797000Y-37342000D01*
X94353000Y-37342000D01*
X94353000Y-36655172D01*
X94352999Y-36655155D01*
X94346598Y-36595627D01*
X94346596Y-36595620D01*
X94296354Y-36460913D01*
X94296352Y-36460910D01*
X94248305Y-36396727D01*
X94223888Y-36331263D01*
X94238740Y-36262990D01*
X94248300Y-36248112D01*
X94296796Y-36183331D01*
X94347091Y-36048483D01*
X94353500Y-35988873D01*
X94353499Y-34115128D01*
X94347091Y-34055517D01*
X94296796Y-33920669D01*
X94296795Y-33920667D01*
X94296793Y-33920664D01*
X94210547Y-33805455D01*
X94210544Y-33805452D01*
X94095335Y-33719206D01*
X94095328Y-33719202D01*
X93960482Y-33668908D01*
X93960483Y-33668908D01*
X93900883Y-33662501D01*
X93900881Y-33662500D01*
X93900873Y-33662500D01*
X93900864Y-33662500D01*
X90249129Y-33662500D01*
X90249123Y-33662501D01*
X90181804Y-33669738D01*
X90181546Y-33667341D01*
X90123678Y-33664234D01*
X90067009Y-33623364D01*
X90041433Y-33558344D01*
X90055069Y-33489817D01*
X90093948Y-33445635D01*
X90533771Y-33138519D01*
X90536098Y-33136975D01*
X91247544Y-32688280D01*
X91249960Y-32686835D01*
X91981585Y-32272021D01*
X91984107Y-32270667D01*
X92734391Y-31890591D01*
X92736967Y-31889361D01*
X93501590Y-31546062D01*
X93502227Y-31545782D01*
X93506429Y-31543938D01*
X94277378Y-31240369D01*
X94293998Y-31233997D01*
X95067324Y-30970646D01*
X95095242Y-30961428D01*
X95869760Y-30737590D01*
X95908428Y-30726820D01*
X96682914Y-30541842D01*
X96731711Y-30530704D01*
X97505071Y-30383929D01*
X97563274Y-30373509D01*
X98334235Y-30264337D01*
X98401319Y-30255573D01*
X99168658Y-30183401D01*
X99243938Y-30177163D01*
X100006542Y-30141379D01*
X100089287Y-30138447D01*
X100845926Y-30138447D01*
X100935494Y-30139504D01*
G37*
%TD.AperFunction*%
%TA.AperFunction,Conductor*%
G36*
X105950652Y-53656354D02*
G01*
X105956242Y-53661609D01*
X106575181Y-54280548D01*
X106608666Y-54341871D01*
X106611500Y-54368229D01*
X106611500Y-54856001D01*
X106611501Y-54856019D01*
X106622000Y-54958796D01*
X106622001Y-54958799D01*
X106643673Y-55024199D01*
X106677186Y-55125334D01*
X106769096Y-55274345D01*
X106769289Y-55274657D01*
X106842451Y-55347819D01*
X106875936Y-55409142D01*
X106870952Y-55478834D01*
X106842451Y-55523181D01*
X106780288Y-55585343D01*
X106780287Y-55585344D01*
X106774580Y-55594598D01*
X106722632Y-55641322D01*
X106669042Y-55653500D01*
X106225359Y-55653500D01*
X106158320Y-55633815D01*
X106152474Y-55629818D01*
X106116734Y-55603851D01*
X106116729Y-55603848D01*
X105943807Y-55526857D01*
X105943802Y-55526855D01*
X105798001Y-55495865D01*
X105758646Y-55487500D01*
X105569354Y-55487500D01*
X105529228Y-55496029D01*
X105384189Y-55526857D01*
X105383027Y-55527235D01*
X105382318Y-55527255D01*
X105377840Y-55528207D01*
X105377665Y-55527387D01*
X105313185Y-55529223D01*
X105253356Y-55493135D01*
X105222536Y-55430431D01*
X105230508Y-55361017D01*
X105257042Y-55321618D01*
X105304315Y-55274345D01*
X105396356Y-55125124D01*
X105396358Y-55125119D01*
X105451505Y-54958697D01*
X105451506Y-54958690D01*
X105461999Y-54855986D01*
X105462000Y-54855973D01*
X105462000Y-54606000D01*
X104236000Y-54606000D01*
X104168961Y-54586315D01*
X104123206Y-54533511D01*
X104112000Y-54482000D01*
X104112000Y-54230000D01*
X104131685Y-54162961D01*
X104184489Y-54117206D01*
X104236000Y-54106000D01*
X105461999Y-54106000D01*
X105461999Y-53856028D01*
X105461998Y-53856014D01*
X105461870Y-53854760D01*
X105461920Y-53854487D01*
X105461838Y-53852866D01*
X105462225Y-53852846D01*
X105474630Y-53786065D01*
X105522505Y-53735175D01*
X105559446Y-53720852D01*
X105559516Y-53720836D01*
X105689803Y-53693144D01*
X105786523Y-53650081D01*
X105818125Y-53636011D01*
X105887375Y-53626726D01*
X105950652Y-53656354D01*
G37*
%TD.AperFunction*%
%TA.AperFunction,Conductor*%
G36*
X89784739Y-43897136D02*
G01*
X89842787Y-43936022D01*
X89870597Y-44000119D01*
X89859340Y-44069076D01*
X89856380Y-44074850D01*
X89853205Y-44080664D01*
X89802908Y-44215517D01*
X89798309Y-44258300D01*
X89796501Y-44275123D01*
X89796500Y-44275135D01*
X89796500Y-46148870D01*
X89796501Y-46148876D01*
X89802908Y-46208483D01*
X89853202Y-46343328D01*
X89853204Y-46343331D01*
X89901382Y-46407689D01*
X89925799Y-46473154D01*
X89910947Y-46541427D01*
X89901382Y-46556311D01*
X89853204Y-46620668D01*
X89853202Y-46620671D01*
X89802908Y-46755517D01*
X89798899Y-46792811D01*
X89796501Y-46815123D01*
X89796500Y-46815135D01*
X89796500Y-48688870D01*
X89796501Y-48688876D01*
X89802908Y-48748483D01*
X89853202Y-48883328D01*
X89853204Y-48883331D01*
X89901382Y-48947689D01*
X89925799Y-49013154D01*
X89910947Y-49081427D01*
X89901382Y-49096311D01*
X89853204Y-49160668D01*
X89853202Y-49160671D01*
X89802908Y-49295517D01*
X89796501Y-49355116D01*
X89796501Y-49355123D01*
X89796500Y-49355135D01*
X89796500Y-51228870D01*
X89796501Y-51228876D01*
X89802908Y-51288483D01*
X89853202Y-51423328D01*
X89853206Y-51423335D01*
X89939452Y-51538544D01*
X89939455Y-51538547D01*
X90054664Y-51624793D01*
X90054671Y-51624797D01*
X90189517Y-51675091D01*
X90189516Y-51675091D01*
X90196444Y-51675835D01*
X90249127Y-51681500D01*
X93900872Y-51681499D01*
X93900874Y-51681498D01*
X93900887Y-51681498D01*
X93939322Y-51677365D01*
X93949244Y-51676299D01*
X94018004Y-51688704D01*
X94069141Y-51736314D01*
X94086500Y-51799588D01*
X94086500Y-53583042D01*
X94066815Y-53650081D01*
X94027598Y-53688580D01*
X94018344Y-53694287D01*
X94018343Y-53694288D01*
X93924681Y-53787951D01*
X93863358Y-53821436D01*
X93793666Y-53816452D01*
X93749319Y-53787951D01*
X93655657Y-53694289D01*
X93655656Y-53694288D01*
X93506334Y-53602186D01*
X93339797Y-53547001D01*
X93339795Y-53547000D01*
X93237010Y-53536500D01*
X92436998Y-53536500D01*
X92436980Y-53536501D01*
X92334203Y-53547000D01*
X92334200Y-53547001D01*
X92167668Y-53602185D01*
X92167663Y-53602187D01*
X92018342Y-53694289D01*
X91894289Y-53818342D01*
X91858423Y-53876491D01*
X91806475Y-53923215D01*
X91737512Y-53934438D01*
X91702448Y-53924673D01*
X91592807Y-53875857D01*
X91592802Y-53875855D01*
X91447001Y-53844865D01*
X91407646Y-53836500D01*
X91218354Y-53836500D01*
X91185897Y-53843398D01*
X91033197Y-53875855D01*
X91033192Y-53875857D01*
X90860270Y-53952848D01*
X90860265Y-53952851D01*
X90707129Y-54064111D01*
X90580466Y-54204785D01*
X90485821Y-54368715D01*
X90485818Y-54368722D01*
X90427327Y-54548740D01*
X90427326Y-54548744D01*
X90411126Y-54702877D01*
X90407540Y-54737000D01*
X90423340Y-54887328D01*
X90410770Y-54956058D01*
X90363038Y-55007081D01*
X90295298Y-55024199D01*
X90229057Y-55001976D01*
X90212338Y-54987970D01*
X88543819Y-53319451D01*
X88510334Y-53258128D01*
X88507500Y-53231770D01*
X88507500Y-49601705D01*
X88508809Y-49583735D01*
X88509129Y-49581547D01*
X88512289Y-49559977D01*
X88511870Y-49555190D01*
X88507736Y-49507934D01*
X88507500Y-49502528D01*
X88507500Y-49494297D01*
X88507500Y-49494291D01*
X88503693Y-49461724D01*
X88496999Y-49385203D01*
X88496999Y-49385201D01*
X88495539Y-49378129D01*
X88495597Y-49378116D01*
X88493965Y-49370757D01*
X88493906Y-49370772D01*
X88492241Y-49363751D01*
X88492241Y-49363745D01*
X88483542Y-49339844D01*
X88465974Y-49291575D01*
X88441813Y-49218663D01*
X88438764Y-49212124D01*
X88438817Y-49212099D01*
X88435531Y-49205311D01*
X88435479Y-49205338D01*
X88432238Y-49198886D01*
X88432237Y-49198883D01*
X88394897Y-49142110D01*
X88374506Y-49075284D01*
X88374499Y-49073973D01*
X88374499Y-48782129D01*
X88374498Y-48782123D01*
X88374472Y-48781883D01*
X88368091Y-48722517D01*
X88364400Y-48712623D01*
X88359412Y-48642932D01*
X88364402Y-48625940D01*
X88367598Y-48617371D01*
X88373999Y-48557844D01*
X88374000Y-48557827D01*
X88374000Y-48510000D01*
X88320454Y-48510000D01*
X88253415Y-48490315D01*
X88232773Y-48473681D01*
X88231544Y-48472452D01*
X88116335Y-48386206D01*
X88116328Y-48386202D01*
X87981482Y-48335908D01*
X87981483Y-48335908D01*
X87921883Y-48329501D01*
X87921881Y-48329500D01*
X87921873Y-48329500D01*
X87921865Y-48329500D01*
X87233000Y-48329500D01*
X87165961Y-48309815D01*
X87120206Y-48257011D01*
X87109000Y-48205500D01*
X87109000Y-47630000D01*
X87609000Y-47630000D01*
X87609000Y-48010000D01*
X88374000Y-48010000D01*
X88374000Y-47962172D01*
X88373999Y-47962155D01*
X88367598Y-47902627D01*
X88367597Y-47902624D01*
X88364133Y-47893335D01*
X88359148Y-47823643D01*
X88364133Y-47806665D01*
X88367597Y-47797375D01*
X88367598Y-47797372D01*
X88373999Y-47737844D01*
X88374000Y-47737827D01*
X88374000Y-47630000D01*
X87609000Y-47630000D01*
X87109000Y-47630000D01*
X87109000Y-46591729D01*
X87115380Y-46570000D01*
X87609000Y-46570000D01*
X87609000Y-47130000D01*
X88374000Y-47130000D01*
X88374000Y-47022172D01*
X88373999Y-47022155D01*
X88367598Y-46962627D01*
X88367596Y-46962620D01*
X88317354Y-46827913D01*
X88317350Y-46827906D01*
X88231190Y-46712812D01*
X88231187Y-46712809D01*
X88116093Y-46626649D01*
X88116086Y-46626645D01*
X87981379Y-46576403D01*
X87981372Y-46576401D01*
X87921844Y-46570000D01*
X87609000Y-46570000D01*
X87115380Y-46570000D01*
X87128685Y-46524690D01*
X87145319Y-46504048D01*
X87567049Y-46082318D01*
X87628372Y-46048833D01*
X87654730Y-46045999D01*
X87901002Y-46045999D01*
X87901008Y-46045999D01*
X88003797Y-46035499D01*
X88170334Y-45980314D01*
X88319656Y-45888212D01*
X88443712Y-45764156D01*
X88535814Y-45614834D01*
X88590999Y-45448297D01*
X88601500Y-45345509D01*
X88601499Y-44825570D01*
X88621183Y-44758532D01*
X88637814Y-44737894D01*
X89154841Y-44220866D01*
X89216162Y-44187383D01*
X89216498Y-44187310D01*
X89281874Y-44173415D01*
X89454801Y-44096422D01*
X89607942Y-43985159D01*
X89655397Y-43932454D01*
X89714882Y-43895807D01*
X89784739Y-43897136D01*
G37*
%TD.AperFunction*%
%TD*%
M02*
