%TF.GenerationSoftware,KiCad,Pcbnew,7.0.9*%
%TF.CreationDate,2024-04-20T20:01:19-07:00*%
%TF.ProjectId,mini_v1,6d696e69-5f76-4312-9e6b-696361645f70,rev?*%
%TF.SameCoordinates,Original*%
%TF.FileFunction,Copper,L1,Top*%
%TF.FilePolarity,Positive*%
%FSLAX46Y46*%
G04 Gerber Fmt 4.6, Leading zero omitted, Abs format (unit mm)*
G04 Created by KiCad (PCBNEW 7.0.9) date 2024-04-20 20:01:19*
%MOMM*%
%LPD*%
G01*
G04 APERTURE LIST*
%TA.AperFunction,ComponentPad*%
%ADD10C,1.800000*%
%TD*%
%TA.AperFunction,ComponentPad*%
%ADD11R,1.800000X1.800000*%
%TD*%
%TA.AperFunction,ComponentPad*%
%ADD12C,1.320800*%
%TD*%
%TA.AperFunction,ComponentPad*%
%ADD13C,2.006600*%
%TD*%
%TA.AperFunction,ComponentPad*%
%ADD14C,1.524000*%
%TD*%
%TA.AperFunction,ComponentPad*%
%ADD15C,2.280000*%
%TD*%
%TA.AperFunction,ComponentPad*%
%ADD16R,1.700000X1.700000*%
%TD*%
%TA.AperFunction,ComponentPad*%
%ADD17O,1.700000X1.700000*%
%TD*%
%TA.AperFunction,ViaPad*%
%ADD18C,0.800000*%
%TD*%
%TA.AperFunction,Conductor*%
%ADD19C,0.250000*%
%TD*%
%TA.AperFunction,Conductor*%
%ADD20C,0.500000*%
%TD*%
G04 APERTURE END LIST*
D10*
%TO.P,D1,2,A*%
%TO.N,/D2*%
X85217000Y-45212000D03*
D11*
%TO.P,D1,1,K*%
%TO.N,Net-(D1-K)*%
X85217000Y-42672000D03*
%TD*%
D12*
%TO.P,SW1,1,A*%
%TO.N,VCC*%
X87311714Y-54934939D03*
%TO.P,SW1,2,B*%
%TO.N,Net-(BT1-+)*%
X88458867Y-56573244D03*
%TO.P,SW1,3,C*%
%TO.N,unconnected-(SW1-C-Pad3)*%
X89606021Y-58211549D03*
D13*
%TO.P,SW1,4*%
%TO.N,N/C*%
X86106000Y-53213000D03*
%TO.P,SW1,5*%
X90811735Y-59933488D03*
%TD*%
D14*
%TO.P,C2,2*%
%TO.N,GND*%
X93853000Y-63119000D03*
%TO.P,C2,1*%
%TO.N,/3V3*%
X93853000Y-60579000D03*
%TD*%
D15*
%TO.P,BT1,1,+*%
%TO.N,Net-(BT1-+)*%
X112467386Y-55317386D03*
%TO.P,BT1,2,-*%
%TO.N,GND*%
X97978768Y-40828768D03*
%TD*%
D16*
%TO.P,J1,1,Pin_1*%
%TO.N,/1{slash}2 3V3*%
X115824000Y-47884000D03*
D17*
%TO.P,J1,2,Pin_2*%
%TO.N,/Piezo+*%
X115824000Y-45344000D03*
%TD*%
D18*
%TO.N,/D2*%
X111760000Y-40132000D03*
%TO.N,GND*%
X105664000Y-54356000D03*
X89718000Y-39045000D03*
%TO.N,/3V3*%
X89002071Y-43312271D03*
X98044000Y-52832000D03*
%TO.N,/1{slash}2 3V3*%
X105410000Y-52832000D03*
X112395000Y-49276000D03*
%TO.N,VCC*%
X88773000Y-36322000D03*
%TO.N,/A0*%
X105029000Y-36322000D03*
X105664000Y-56388000D03*
%TO.N,/IN2-*%
X96393000Y-59182000D03*
X91313000Y-54737000D03*
%TD*%
D19*
%TO.N,/D2*%
X85217000Y-45212000D02*
X86442000Y-43987000D01*
X86442000Y-43987000D02*
X86442000Y-37627695D01*
X112268000Y-38354000D02*
X112268000Y-39624000D01*
X86442000Y-37627695D02*
X89271695Y-34798000D01*
X89271695Y-34798000D02*
X108712000Y-34798000D01*
X108712000Y-34798000D02*
X112268000Y-38354000D01*
X112268000Y-39624000D02*
X111760000Y-40132000D01*
D20*
%TO.N,/3V3*%
X89002071Y-43312271D02*
X98044000Y-52354200D01*
X98044000Y-52354200D02*
X98044000Y-52832000D01*
%TO.N,GND*%
X104423541Y-57560541D02*
X105693541Y-57560541D01*
X105693541Y-57560541D02*
X106514000Y-56740082D01*
X106514000Y-56740082D02*
X106514000Y-55206000D01*
X89718000Y-39045000D02*
X89718000Y-42855000D01*
X89718000Y-42855000D02*
X104423541Y-57560541D01*
X106514000Y-55206000D02*
X105664000Y-54356000D01*
%TO.N,Net-(BT1-+)*%
X112467386Y-55317386D02*
X105935772Y-61849000D01*
X88458867Y-60010867D02*
X88458867Y-56573244D01*
X105935772Y-61849000D02*
X90297000Y-61849000D01*
X90297000Y-61849000D02*
X88458867Y-60010867D01*
%TO.N,/3V3*%
X98044000Y-52832000D02*
X98044000Y-58733082D01*
X98044000Y-58733082D02*
X96198082Y-60579000D01*
X96198082Y-60579000D02*
X93853000Y-60579000D01*
%TO.N,/1{slash}2 3V3*%
X108839000Y-52832000D02*
X112395000Y-49276000D01*
X105410000Y-52832000D02*
X108839000Y-52832000D01*
%TO.N,VCC*%
X88773000Y-36322000D02*
X87542000Y-37553000D01*
X87559300Y-54687353D02*
X87311714Y-54934939D01*
X87559300Y-52611023D02*
X87559300Y-54687353D01*
X87542000Y-52593723D02*
X87559300Y-52611023D01*
X87542000Y-55022650D02*
X87302171Y-55262479D01*
X87542000Y-37553000D02*
X87542000Y-52593723D01*
%TO.N,/A0*%
X105664000Y-56388000D02*
X103251000Y-53975000D01*
X103251000Y-38100000D02*
X105029000Y-36322000D01*
X103251000Y-53975000D02*
X103251000Y-38100000D01*
%TO.N,/IN2-*%
X91313000Y-54737000D02*
X95758000Y-59182000D01*
X95758000Y-59182000D02*
X96393000Y-59182000D01*
%TD*%
%TA.AperFunction,Conductor*%
%TO.N,GND*%
G36*
X100935494Y-30139504D02*
G01*
X101684919Y-30174669D01*
X101780723Y-30180333D01*
X102521732Y-30250028D01*
X102623087Y-30260843D01*
X103354539Y-30364420D01*
X103460682Y-30380846D01*
X104181382Y-30517626D01*
X104291712Y-30540081D01*
X105000442Y-30709354D01*
X105114318Y-30738191D01*
X105810016Y-30939249D01*
X105926663Y-30974728D01*
X106567183Y-31192853D01*
X106608099Y-31206787D01*
X106727013Y-31249186D01*
X107393082Y-31511457D01*
X107513532Y-31560933D01*
X108163183Y-31852612D01*
X108284524Y-31909292D01*
X108916642Y-32229508D01*
X109038270Y-32293484D01*
X109651796Y-32641339D01*
X109741989Y-32694364D01*
X109773129Y-32712671D01*
X110367075Y-33087261D01*
X110443128Y-33136949D01*
X110487414Y-33165882D01*
X111060828Y-33566279D01*
X111179613Y-33652154D01*
X111731490Y-34077339D01*
X111848187Y-34170402D01*
X112377619Y-34619369D01*
X112491639Y-34719461D01*
X112997764Y-35191184D01*
X113108551Y-35298113D01*
X113267522Y-35460856D01*
X113590532Y-35791529D01*
X113697596Y-35905110D01*
X114068273Y-36322000D01*
X114154584Y-36419072D01*
X114257440Y-36539070D01*
X114688683Y-37072463D01*
X114714904Y-37106151D01*
X114785604Y-37196987D01*
X114786861Y-37198601D01*
X115034459Y-37536051D01*
X115191621Y-37750247D01*
X115284718Y-37882280D01*
X115611559Y-38374548D01*
X115662310Y-38450987D01*
X115749869Y-38588527D01*
X116099662Y-39173091D01*
X116181330Y-39315840D01*
X116502712Y-39914990D01*
X116578131Y-40062576D01*
X116870575Y-40675081D01*
X116939398Y-40827076D01*
X117202423Y-41451696D01*
X117251621Y-41575614D01*
X117264341Y-41607651D01*
X117497484Y-42243052D01*
X117552265Y-42402622D01*
X117755131Y-43047497D01*
X117802513Y-43210155D01*
X117974766Y-43863209D01*
X118014559Y-44028528D01*
X118155890Y-44688365D01*
X118187935Y-44855922D01*
X118298112Y-45521232D01*
X118322257Y-45690458D01*
X118401091Y-46359879D01*
X118417248Y-46530374D01*
X118464599Y-47202488D01*
X118472697Y-47373773D01*
X118490465Y-48131546D01*
X118490465Y-48134452D01*
X118472697Y-48892226D01*
X118464599Y-49063511D01*
X118417248Y-49735625D01*
X118401091Y-49906120D01*
X118322257Y-50575541D01*
X118298112Y-50744767D01*
X118187935Y-51410077D01*
X118155890Y-51577634D01*
X118014559Y-52237471D01*
X117974766Y-52402790D01*
X117802513Y-53055844D01*
X117755131Y-53218502D01*
X117552265Y-53863377D01*
X117497484Y-54022947D01*
X117264341Y-54658348D01*
X117202423Y-54814303D01*
X116939398Y-55438923D01*
X116870575Y-55590918D01*
X116578131Y-56203423D01*
X116502712Y-56351009D01*
X116181330Y-56950159D01*
X116099662Y-57092908D01*
X115749869Y-57677472D01*
X115662310Y-57815012D01*
X115284720Y-58383718D01*
X115191621Y-58515752D01*
X114786868Y-59067389D01*
X114688683Y-59193536D01*
X114257440Y-59726929D01*
X114154584Y-59846927D01*
X113697598Y-60360887D01*
X113661085Y-60399624D01*
X113590532Y-60474470D01*
X113108557Y-60967880D01*
X112997764Y-61074815D01*
X112491639Y-61546538D01*
X112377619Y-61646630D01*
X111848187Y-62095597D01*
X111731490Y-62188660D01*
X111179613Y-62613845D01*
X111060828Y-62699720D01*
X110487414Y-63100117D01*
X110367075Y-63178738D01*
X109773129Y-63553328D01*
X109651780Y-63624670D01*
X109038296Y-63972501D01*
X108997474Y-63993974D01*
X108916621Y-64036502D01*
X108284534Y-64356702D01*
X108251250Y-64372250D01*
X108163160Y-64413397D01*
X107513547Y-64705060D01*
X107393066Y-64754548D01*
X106727016Y-65016812D01*
X106608099Y-65059212D01*
X105926676Y-65291267D01*
X105809973Y-65326762D01*
X105114324Y-65527806D01*
X105000436Y-65556647D01*
X104291727Y-65725915D01*
X104181325Y-65748384D01*
X103460694Y-65885151D01*
X103354502Y-65901585D01*
X102623087Y-66005156D01*
X102521715Y-66015972D01*
X101780748Y-66085664D01*
X101684881Y-66091332D01*
X100935502Y-66126495D01*
X100866011Y-66127315D01*
X100845926Y-66127553D01*
X100089287Y-66127553D01*
X100006521Y-66124619D01*
X99243965Y-66088837D01*
X99168582Y-66082591D01*
X98401338Y-66010428D01*
X98343029Y-66002810D01*
X98334154Y-66001650D01*
X98219234Y-65985377D01*
X97563293Y-65892493D01*
X97505023Y-65882061D01*
X96731729Y-65735299D01*
X96682895Y-65724153D01*
X95908442Y-65539182D01*
X95869730Y-65528400D01*
X95095267Y-65304578D01*
X95074137Y-65297603D01*
X95067269Y-65295335D01*
X94294023Y-65032011D01*
X94280951Y-65027000D01*
X94277345Y-65025617D01*
X93506446Y-64722068D01*
X93501590Y-64719937D01*
X92736998Y-64376652D01*
X92734374Y-64375399D01*
X91984140Y-63995349D01*
X91981578Y-63993974D01*
X91249991Y-63579182D01*
X91247513Y-63577700D01*
X90536128Y-63129043D01*
X90533742Y-63127459D01*
X90089022Y-62816925D01*
X90045327Y-62762406D01*
X90038043Y-62692917D01*
X90069485Y-62630522D01*
X90129668Y-62595029D01*
X90188611Y-62594602D01*
X90206333Y-62598801D01*
X90209279Y-62599500D01*
X90209288Y-62599500D01*
X90216452Y-62600338D01*
X90216444Y-62600397D01*
X90223945Y-62601164D01*
X90223951Y-62601105D01*
X90231140Y-62601734D01*
X90231144Y-62601733D01*
X90231145Y-62601734D01*
X90307918Y-62599500D01*
X92524081Y-62599500D01*
X92591120Y-62619185D01*
X92636875Y-62671989D01*
X92646819Y-62741147D01*
X92643856Y-62755594D01*
X92605425Y-62899016D01*
X92605424Y-62899023D01*
X92586179Y-63118999D01*
X92586179Y-63119000D01*
X92605424Y-63338976D01*
X92605426Y-63338986D01*
X92662575Y-63552270D01*
X92662580Y-63552284D01*
X92755899Y-63752407D01*
X92755900Y-63752409D01*
X92801258Y-63817187D01*
X93468096Y-63150349D01*
X93468051Y-63150898D01*
X93499266Y-63274162D01*
X93568813Y-63380612D01*
X93669157Y-63458713D01*
X93789422Y-63500000D01*
X93825553Y-63500000D01*
X93154811Y-64170741D01*
X93219582Y-64216094D01*
X93219592Y-64216100D01*
X93419715Y-64309419D01*
X93419729Y-64309424D01*
X93633013Y-64366573D01*
X93633023Y-64366575D01*
X93852999Y-64385821D01*
X93853001Y-64385821D01*
X94072976Y-64366575D01*
X94072986Y-64366573D01*
X94286270Y-64309424D01*
X94286284Y-64309419D01*
X94486408Y-64216100D01*
X94486420Y-64216093D01*
X94551186Y-64170742D01*
X94551187Y-64170740D01*
X93880448Y-63500000D01*
X93884569Y-63500000D01*
X93978421Y-63484339D01*
X94090251Y-63423820D01*
X94176371Y-63330269D01*
X94227448Y-63213823D01*
X94233105Y-63145551D01*
X94904741Y-63817187D01*
X94904742Y-63817186D01*
X94950093Y-63752420D01*
X94950100Y-63752408D01*
X95043419Y-63552284D01*
X95043424Y-63552270D01*
X95100573Y-63338986D01*
X95100575Y-63338976D01*
X95119821Y-63119000D01*
X95119821Y-63118999D01*
X95100575Y-62899023D01*
X95100574Y-62899016D01*
X95062144Y-62755594D01*
X95063807Y-62685744D01*
X95102969Y-62627881D01*
X95167198Y-62600377D01*
X95181919Y-62599500D01*
X105872067Y-62599500D01*
X105890037Y-62600809D01*
X105913795Y-62604289D01*
X105965840Y-62599735D01*
X105971242Y-62599500D01*
X105979476Y-62599500D01*
X105979481Y-62599500D01*
X105991099Y-62598141D01*
X106012048Y-62595693D01*
X106024800Y-62594577D01*
X106088569Y-62588999D01*
X106088577Y-62588996D01*
X106095638Y-62587539D01*
X106095650Y-62587598D01*
X106103015Y-62585965D01*
X106103001Y-62585906D01*
X106110018Y-62584241D01*
X106110027Y-62584241D01*
X106182195Y-62557974D01*
X106255106Y-62533814D01*
X106255115Y-62533807D01*
X106261654Y-62530760D01*
X106261680Y-62530816D01*
X106268462Y-62527532D01*
X106268435Y-62527478D01*
X106274878Y-62524240D01*
X106274889Y-62524237D01*
X106339055Y-62482034D01*
X106404428Y-62441712D01*
X106404434Y-62441705D01*
X106410097Y-62437229D01*
X106410134Y-62437277D01*
X106415976Y-62432518D01*
X106415936Y-62432471D01*
X106421463Y-62427832D01*
X106421468Y-62427830D01*
X106474158Y-62371981D01*
X111913679Y-56932458D01*
X111975000Y-56898975D01*
X112030305Y-56899567D01*
X112209962Y-56942699D01*
X112467386Y-56962959D01*
X112724810Y-56942699D01*
X112975896Y-56882419D01*
X113214461Y-56783602D01*
X113434630Y-56648683D01*
X113630982Y-56480982D01*
X113798683Y-56284630D01*
X113933602Y-56064461D01*
X114032419Y-55825896D01*
X114092699Y-55574810D01*
X114112959Y-55317386D01*
X114092699Y-55059962D01*
X114032419Y-54808876D01*
X113933602Y-54570311D01*
X113798683Y-54350142D01*
X113630982Y-54153790D01*
X113434630Y-53986089D01*
X113214461Y-53851170D01*
X113214460Y-53851169D01*
X113214456Y-53851167D01*
X112975898Y-53752354D01*
X112975900Y-53752354D01*
X112975896Y-53752353D01*
X112975892Y-53752352D01*
X112975886Y-53752350D01*
X112724813Y-53692073D01*
X112467386Y-53671813D01*
X112209958Y-53692073D01*
X111958885Y-53752350D01*
X111958873Y-53752354D01*
X111720315Y-53851167D01*
X111500141Y-53986089D01*
X111303790Y-54153790D01*
X111136089Y-54350141D01*
X111001167Y-54570315D01*
X110902354Y-54808873D01*
X110902350Y-54808885D01*
X110842073Y-55059958D01*
X110821813Y-55317386D01*
X110842073Y-55574812D01*
X110858410Y-55642858D01*
X110875756Y-55715112D01*
X110885204Y-55754463D01*
X110881713Y-55824245D01*
X110852311Y-55871091D01*
X105661223Y-61062181D01*
X105599900Y-61095666D01*
X105573542Y-61098500D01*
X97039312Y-61098500D01*
X96972273Y-61078815D01*
X96926518Y-61026011D01*
X96916574Y-60956853D01*
X96945599Y-60893297D01*
X96951631Y-60886819D01*
X97692901Y-60145548D01*
X98529638Y-59308809D01*
X98543267Y-59297032D01*
X98562530Y-59282692D01*
X98562532Y-59282688D01*
X98562534Y-59282688D01*
X98580663Y-59261081D01*
X98596113Y-59242667D01*
X98599767Y-59238681D01*
X98605589Y-59232860D01*
X98625928Y-59207136D01*
X98637340Y-59193536D01*
X98675302Y-59148296D01*
X98675304Y-59148291D01*
X98679272Y-59142261D01*
X98679323Y-59142294D01*
X98683369Y-59135942D01*
X98683317Y-59135910D01*
X98687109Y-59129761D01*
X98687111Y-59129759D01*
X98719569Y-59060151D01*
X98754040Y-58991515D01*
X98754043Y-58991499D01*
X98756510Y-58984726D01*
X98756568Y-58984747D01*
X98759043Y-58977628D01*
X98758985Y-58977609D01*
X98761256Y-58970754D01*
X98776784Y-58895549D01*
X98794500Y-58820802D01*
X98795339Y-58813630D01*
X98795397Y-58813636D01*
X98796164Y-58806138D01*
X98796104Y-58806133D01*
X98796733Y-58798942D01*
X98794500Y-58722185D01*
X98794500Y-53366321D01*
X98811113Y-53304321D01*
X98871179Y-53200284D01*
X98929674Y-53020256D01*
X98949460Y-52832000D01*
X98929674Y-52643744D01*
X98871179Y-52463716D01*
X98810292Y-52358257D01*
X98794518Y-52310653D01*
X98794500Y-52310498D01*
X98794500Y-52310491D01*
X98790693Y-52277924D01*
X98783999Y-52201403D01*
X98783999Y-52201401D01*
X98782539Y-52194329D01*
X98782597Y-52194316D01*
X98780965Y-52186957D01*
X98780906Y-52186972D01*
X98779242Y-52179953D01*
X98779241Y-52179945D01*
X98752974Y-52107776D01*
X98728814Y-52034866D01*
X98728809Y-52034859D01*
X98725760Y-52028318D01*
X98725815Y-52028291D01*
X98722533Y-52021513D01*
X98722480Y-52021540D01*
X98719235Y-52015080D01*
X98677028Y-51950908D01*
X98636710Y-51885542D01*
X98632234Y-51879882D01*
X98632281Y-51879844D01*
X98627519Y-51873999D01*
X98627474Y-51874038D01*
X98622834Y-51868508D01*
X98566964Y-51815796D01*
X89914841Y-43163673D01*
X89884592Y-43114312D01*
X89829250Y-42943987D01*
X89734604Y-42780055D01*
X89607942Y-42639383D01*
X89547073Y-42595159D01*
X89454805Y-42528122D01*
X89454800Y-42528119D01*
X89281878Y-42451128D01*
X89281873Y-42451126D01*
X89136072Y-42420136D01*
X89096717Y-42411771D01*
X88907425Y-42411771D01*
X88874968Y-42418669D01*
X88722268Y-42451126D01*
X88722263Y-42451128D01*
X88549341Y-42528119D01*
X88549337Y-42528122D01*
X88489384Y-42571680D01*
X88423578Y-42595159D01*
X88355524Y-42579333D01*
X88306830Y-42529227D01*
X88292500Y-42471361D01*
X88292500Y-41078769D01*
X96353372Y-41078769D01*
X96353950Y-41086109D01*
X96414212Y-41337123D01*
X96414212Y-41337124D01*
X96512996Y-41575611D01*
X96512998Y-41575614D01*
X96647875Y-41795713D01*
X96647879Y-41795718D01*
X96815527Y-41992008D01*
X97011817Y-42159656D01*
X97011822Y-42159660D01*
X97231921Y-42294537D01*
X97231924Y-42294539D01*
X97470412Y-42393323D01*
X97721426Y-42453585D01*
X97728766Y-42454163D01*
X97728768Y-42454162D01*
X97728768Y-41550570D01*
X97889937Y-41588768D01*
X98023035Y-41588768D01*
X98155229Y-41573317D01*
X98228768Y-41546550D01*
X98228768Y-42454162D01*
X98228769Y-42454163D01*
X98236109Y-42453585D01*
X98487123Y-42393323D01*
X98487124Y-42393323D01*
X98725611Y-42294539D01*
X98725614Y-42294537D01*
X98945713Y-42159660D01*
X98945718Y-42159656D01*
X99142008Y-41992008D01*
X99309656Y-41795718D01*
X99309660Y-41795713D01*
X99444537Y-41575614D01*
X99444539Y-41575611D01*
X99543323Y-41337124D01*
X99543323Y-41337123D01*
X99603585Y-41086109D01*
X99604163Y-41078769D01*
X99604162Y-41078768D01*
X98697251Y-41078768D01*
X98732317Y-40961639D01*
X98742647Y-40784277D01*
X98711797Y-40609314D01*
X98698621Y-40578768D01*
X99604162Y-40578768D01*
X99604163Y-40578766D01*
X99603585Y-40571426D01*
X99543323Y-40320412D01*
X99543323Y-40320411D01*
X99444539Y-40081924D01*
X99444537Y-40081921D01*
X99309660Y-39861822D01*
X99309656Y-39861817D01*
X99142008Y-39665527D01*
X98945718Y-39497879D01*
X98945713Y-39497875D01*
X98725614Y-39362998D01*
X98725611Y-39362996D01*
X98487123Y-39264212D01*
X98236113Y-39203951D01*
X98228768Y-39203372D01*
X98228768Y-40106965D01*
X98067599Y-40068768D01*
X97934501Y-40068768D01*
X97802307Y-40084219D01*
X97728768Y-40110985D01*
X97728768Y-39203372D01*
X97721422Y-39203951D01*
X97470412Y-39264212D01*
X97470411Y-39264212D01*
X97231924Y-39362996D01*
X97231921Y-39362998D01*
X97011822Y-39497875D01*
X97011817Y-39497879D01*
X96815527Y-39665527D01*
X96647879Y-39861817D01*
X96647875Y-39861822D01*
X96512998Y-40081921D01*
X96512996Y-40081924D01*
X96414212Y-40320411D01*
X96414212Y-40320412D01*
X96353950Y-40571426D01*
X96353372Y-40578766D01*
X96353374Y-40578768D01*
X97260285Y-40578768D01*
X97225219Y-40695897D01*
X97214889Y-40873259D01*
X97245739Y-41048222D01*
X97258915Y-41078768D01*
X96353374Y-41078768D01*
X96353372Y-41078769D01*
X88292500Y-41078769D01*
X88292500Y-37915229D01*
X88312185Y-37848190D01*
X88328815Y-37827552D01*
X88925771Y-37230595D01*
X88987092Y-37197112D01*
X88987448Y-37197034D01*
X89052803Y-37183144D01*
X89225730Y-37106151D01*
X89378871Y-36994888D01*
X89505533Y-36854216D01*
X89600179Y-36690284D01*
X89658674Y-36510256D01*
X89678460Y-36322000D01*
X89658674Y-36133744D01*
X89600179Y-35953716D01*
X89505533Y-35789784D01*
X89422689Y-35697777D01*
X89392460Y-35634787D01*
X89401085Y-35565452D01*
X89427154Y-35527130D01*
X89494469Y-35459816D01*
X89555792Y-35426333D01*
X89582148Y-35423500D01*
X104352025Y-35423500D01*
X104419064Y-35443185D01*
X104464819Y-35495989D01*
X104474763Y-35565147D01*
X104445738Y-35628703D01*
X104424909Y-35647819D01*
X104423128Y-35649112D01*
X104296466Y-35789785D01*
X104201821Y-35953715D01*
X104201819Y-35953719D01*
X104146478Y-36124041D01*
X104116228Y-36173403D01*
X102765358Y-37524272D01*
X102751729Y-37536051D01*
X102732468Y-37550390D01*
X102698898Y-37590397D01*
X102695253Y-37594376D01*
X102689409Y-37600222D01*
X102669059Y-37625959D01*
X102619695Y-37684789D01*
X102615729Y-37690819D01*
X102615682Y-37690788D01*
X102611630Y-37697147D01*
X102611679Y-37697177D01*
X102607889Y-37703321D01*
X102575424Y-37772941D01*
X102540960Y-37841566D01*
X102538488Y-37848357D01*
X102538432Y-37848336D01*
X102535960Y-37855450D01*
X102536015Y-37855469D01*
X102533742Y-37862327D01*
X102525975Y-37899946D01*
X102518207Y-37937565D01*
X102511094Y-37967579D01*
X102500498Y-38012286D01*
X102499661Y-38019454D01*
X102499601Y-38019447D01*
X102498835Y-38026945D01*
X102498895Y-38026951D01*
X102498265Y-38034140D01*
X102500500Y-38110916D01*
X102500500Y-53911294D01*
X102499191Y-53929263D01*
X102495710Y-53953025D01*
X102500264Y-54005064D01*
X102500500Y-54010470D01*
X102500500Y-54018709D01*
X102504306Y-54051274D01*
X102511000Y-54127791D01*
X102512461Y-54134867D01*
X102512403Y-54134878D01*
X102514034Y-54142237D01*
X102514092Y-54142224D01*
X102515757Y-54149250D01*
X102542025Y-54221424D01*
X102566185Y-54294331D01*
X102569236Y-54300874D01*
X102569182Y-54300898D01*
X102572470Y-54307688D01*
X102572521Y-54307663D01*
X102575761Y-54314113D01*
X102575762Y-54314114D01*
X102575763Y-54314117D01*
X102589448Y-54334924D01*
X102617965Y-54378283D01*
X102658287Y-54443655D01*
X102662766Y-54449319D01*
X102662719Y-54449356D01*
X102667482Y-54455202D01*
X102667528Y-54455164D01*
X102672173Y-54460700D01*
X102728018Y-54513386D01*
X103744229Y-55529597D01*
X104751228Y-56536595D01*
X104781478Y-56585958D01*
X104836818Y-56756277D01*
X104836821Y-56756284D01*
X104931467Y-56920216D01*
X105031185Y-57030964D01*
X105058129Y-57060888D01*
X105211265Y-57172148D01*
X105211270Y-57172151D01*
X105384192Y-57249142D01*
X105384197Y-57249144D01*
X105569354Y-57288500D01*
X105569355Y-57288500D01*
X105758644Y-57288500D01*
X105758646Y-57288500D01*
X105943803Y-57249144D01*
X106116730Y-57172151D01*
X106269871Y-57060888D01*
X106396533Y-56920216D01*
X106491179Y-56756284D01*
X106549674Y-56576256D01*
X106569460Y-56388000D01*
X106549674Y-56199744D01*
X106491179Y-56019716D01*
X106396533Y-55855784D01*
X106269871Y-55715112D01*
X106269870Y-55715111D01*
X106116734Y-55603851D01*
X106116729Y-55603848D01*
X105943807Y-55526857D01*
X105943803Y-55526856D01*
X105878669Y-55513011D01*
X105817188Y-55479818D01*
X105816770Y-55479402D01*
X104037819Y-53700451D01*
X104004334Y-53639128D01*
X104001500Y-53612770D01*
X104001500Y-52832000D01*
X104504540Y-52832000D01*
X104524326Y-53020256D01*
X104524327Y-53020259D01*
X104582818Y-53200277D01*
X104582821Y-53200284D01*
X104677467Y-53364216D01*
X104768244Y-53465034D01*
X104804129Y-53504888D01*
X104957265Y-53616148D01*
X104957270Y-53616151D01*
X105130192Y-53693142D01*
X105130197Y-53693144D01*
X105315354Y-53732500D01*
X105315355Y-53732500D01*
X105504644Y-53732500D01*
X105504646Y-53732500D01*
X105689803Y-53693144D01*
X105862730Y-53616151D01*
X105867384Y-53612770D01*
X105876452Y-53606182D01*
X105942258Y-53582702D01*
X105949337Y-53582500D01*
X108775295Y-53582500D01*
X108793265Y-53583809D01*
X108817023Y-53587289D01*
X108869068Y-53582735D01*
X108874470Y-53582500D01*
X108882704Y-53582500D01*
X108882709Y-53582500D01*
X108894327Y-53581141D01*
X108915276Y-53578693D01*
X108928028Y-53577577D01*
X108991797Y-53571999D01*
X108991805Y-53571996D01*
X108998866Y-53570539D01*
X108998878Y-53570598D01*
X109006243Y-53568965D01*
X109006229Y-53568906D01*
X109013246Y-53567241D01*
X109013255Y-53567241D01*
X109085423Y-53540974D01*
X109158334Y-53516814D01*
X109158343Y-53516807D01*
X109164882Y-53513760D01*
X109164908Y-53513816D01*
X109171690Y-53510532D01*
X109171663Y-53510478D01*
X109178106Y-53507240D01*
X109178117Y-53507237D01*
X109242283Y-53465034D01*
X109307656Y-53424712D01*
X109307662Y-53424705D01*
X109313325Y-53420229D01*
X109313362Y-53420277D01*
X109319204Y-53415518D01*
X109319164Y-53415471D01*
X109324691Y-53410832D01*
X109324696Y-53410830D01*
X109377386Y-53354981D01*
X112547770Y-50184595D01*
X112609091Y-50151112D01*
X112609427Y-50151039D01*
X112674803Y-50137144D01*
X112847730Y-50060151D01*
X113000871Y-49948888D01*
X113127533Y-49808216D01*
X113222179Y-49644284D01*
X113280674Y-49464256D01*
X113300460Y-49276000D01*
X113280674Y-49087744D01*
X113222179Y-48907716D01*
X113127533Y-48743784D01*
X113000871Y-48603112D01*
X113000870Y-48603111D01*
X112847734Y-48491851D01*
X112847729Y-48491848D01*
X112674807Y-48414857D01*
X112674802Y-48414855D01*
X112529001Y-48383865D01*
X112489646Y-48375500D01*
X112300354Y-48375500D01*
X112267897Y-48382398D01*
X112115197Y-48414855D01*
X112115192Y-48414857D01*
X111942270Y-48491848D01*
X111942265Y-48491851D01*
X111789129Y-48603111D01*
X111662466Y-48743785D01*
X111567821Y-48907715D01*
X111567819Y-48907719D01*
X111512478Y-49078041D01*
X111482228Y-49127403D01*
X108564451Y-52045181D01*
X108503128Y-52078666D01*
X108476770Y-52081500D01*
X105949337Y-52081500D01*
X105882298Y-52061815D01*
X105876452Y-52057818D01*
X105862734Y-52047851D01*
X105862729Y-52047848D01*
X105689807Y-51970857D01*
X105689802Y-51970855D01*
X105544001Y-51939865D01*
X105504646Y-51931500D01*
X105315354Y-51931500D01*
X105282897Y-51938398D01*
X105130197Y-51970855D01*
X105130192Y-51970857D01*
X104957270Y-52047848D01*
X104957265Y-52047851D01*
X104804129Y-52159111D01*
X104677466Y-52299785D01*
X104582821Y-52463715D01*
X104582818Y-52463722D01*
X104524327Y-52643740D01*
X104524326Y-52643744D01*
X104504540Y-52832000D01*
X104001500Y-52832000D01*
X104001500Y-45344000D01*
X114468341Y-45344000D01*
X114488936Y-45579403D01*
X114488938Y-45579413D01*
X114550094Y-45807655D01*
X114550096Y-45807659D01*
X114550097Y-45807663D01*
X114649965Y-46021830D01*
X114649967Y-46021834D01*
X114687302Y-46075153D01*
X114785501Y-46215396D01*
X114785506Y-46215402D01*
X114907430Y-46337326D01*
X114940915Y-46398649D01*
X114935931Y-46468341D01*
X114894059Y-46524274D01*
X114863083Y-46541189D01*
X114731669Y-46590203D01*
X114731664Y-46590206D01*
X114616455Y-46676452D01*
X114616452Y-46676455D01*
X114530206Y-46791664D01*
X114530202Y-46791671D01*
X114479908Y-46926517D01*
X114473501Y-46986116D01*
X114473501Y-46986123D01*
X114473500Y-46986135D01*
X114473500Y-48781870D01*
X114473501Y-48781876D01*
X114479908Y-48841483D01*
X114530202Y-48976328D01*
X114530206Y-48976335D01*
X114616452Y-49091544D01*
X114616455Y-49091547D01*
X114731664Y-49177793D01*
X114731671Y-49177797D01*
X114866517Y-49228091D01*
X114866516Y-49228091D01*
X114873444Y-49228835D01*
X114926127Y-49234500D01*
X116721872Y-49234499D01*
X116781483Y-49228091D01*
X116916331Y-49177796D01*
X117031546Y-49091546D01*
X117117796Y-48976331D01*
X117168091Y-48841483D01*
X117174500Y-48781873D01*
X117174499Y-46986128D01*
X117168091Y-46926517D01*
X117117796Y-46791669D01*
X117117795Y-46791668D01*
X117117793Y-46791664D01*
X117031547Y-46676455D01*
X117031544Y-46676452D01*
X116916335Y-46590206D01*
X116916328Y-46590202D01*
X116784917Y-46541189D01*
X116728983Y-46499318D01*
X116704566Y-46433853D01*
X116719418Y-46365580D01*
X116740563Y-46337332D01*
X116862495Y-46215401D01*
X116998035Y-46021830D01*
X117097903Y-45807663D01*
X117159063Y-45579408D01*
X117179659Y-45344000D01*
X117159063Y-45108592D01*
X117097903Y-44880337D01*
X116998035Y-44666171D01*
X116862495Y-44472599D01*
X116862494Y-44472597D01*
X116695402Y-44305506D01*
X116695395Y-44305501D01*
X116501834Y-44169967D01*
X116501830Y-44169965D01*
X116465571Y-44153057D01*
X116287663Y-44070097D01*
X116287659Y-44070096D01*
X116287655Y-44070094D01*
X116059413Y-44008938D01*
X116059403Y-44008936D01*
X115824001Y-43988341D01*
X115823999Y-43988341D01*
X115588596Y-44008936D01*
X115588586Y-44008938D01*
X115360344Y-44070094D01*
X115360335Y-44070098D01*
X115146171Y-44169964D01*
X115146169Y-44169965D01*
X114952597Y-44305505D01*
X114785505Y-44472597D01*
X114649965Y-44666169D01*
X114649964Y-44666171D01*
X114550098Y-44880335D01*
X114550094Y-44880344D01*
X114488938Y-45108586D01*
X114488936Y-45108596D01*
X114468341Y-45343999D01*
X114468341Y-45344000D01*
X104001500Y-45344000D01*
X104001500Y-38462229D01*
X104021185Y-38395190D01*
X104037814Y-38374552D01*
X105181771Y-37230595D01*
X105243092Y-37197112D01*
X105243448Y-37197034D01*
X105308803Y-37183144D01*
X105481730Y-37106151D01*
X105634871Y-36994888D01*
X105761533Y-36854216D01*
X105856179Y-36690284D01*
X105914674Y-36510256D01*
X105934460Y-36322000D01*
X105914674Y-36133744D01*
X105856179Y-35953716D01*
X105761533Y-35789784D01*
X105634871Y-35649112D01*
X105633090Y-35647818D01*
X105632309Y-35646805D01*
X105630042Y-35644764D01*
X105630415Y-35644349D01*
X105590424Y-35592490D01*
X105584444Y-35522876D01*
X105617050Y-35461081D01*
X105677888Y-35426723D01*
X105705975Y-35423500D01*
X108401548Y-35423500D01*
X108468587Y-35443185D01*
X108489229Y-35459819D01*
X111606181Y-38576771D01*
X111639666Y-38638094D01*
X111642500Y-38664452D01*
X111642500Y-39135944D01*
X111622815Y-39202983D01*
X111570011Y-39248738D01*
X111544282Y-39257234D01*
X111480196Y-39270856D01*
X111480192Y-39270857D01*
X111307270Y-39347848D01*
X111307265Y-39347851D01*
X111154129Y-39459111D01*
X111027466Y-39599785D01*
X110932821Y-39763715D01*
X110932818Y-39763722D01*
X110874327Y-39943740D01*
X110874326Y-39943744D01*
X110854540Y-40132000D01*
X110874326Y-40320256D01*
X110874327Y-40320259D01*
X110932818Y-40500277D01*
X110932821Y-40500284D01*
X111027467Y-40664216D01*
X111055993Y-40695897D01*
X111154129Y-40804888D01*
X111307265Y-40916148D01*
X111307270Y-40916151D01*
X111480192Y-40993142D01*
X111480197Y-40993144D01*
X111665354Y-41032500D01*
X111665355Y-41032500D01*
X111854644Y-41032500D01*
X111854646Y-41032500D01*
X112039803Y-40993144D01*
X112212730Y-40916151D01*
X112365871Y-40804888D01*
X112492533Y-40664216D01*
X112587179Y-40500284D01*
X112645674Y-40320256D01*
X112663170Y-40153783D01*
X112689755Y-40089170D01*
X112696100Y-40081861D01*
X112717227Y-40059364D01*
X112727671Y-40048918D01*
X112738120Y-40038471D01*
X112742379Y-40032978D01*
X112746152Y-40028561D01*
X112778062Y-39994582D01*
X112787713Y-39977024D01*
X112798396Y-39960761D01*
X112810673Y-39944936D01*
X112829185Y-39902153D01*
X112831738Y-39896941D01*
X112854197Y-39856092D01*
X112859180Y-39836680D01*
X112865481Y-39818280D01*
X112873437Y-39799896D01*
X112880729Y-39753852D01*
X112881906Y-39748171D01*
X112893500Y-39703019D01*
X112893500Y-39682983D01*
X112895027Y-39663582D01*
X112898160Y-39643804D01*
X112893775Y-39597418D01*
X112893500Y-39591580D01*
X112893500Y-38436737D01*
X112895224Y-38421123D01*
X112894938Y-38421096D01*
X112895672Y-38413333D01*
X112893500Y-38344202D01*
X112893500Y-38314651D01*
X112893500Y-38314650D01*
X112892629Y-38307759D01*
X112892172Y-38301945D01*
X112890709Y-38255374D01*
X112890709Y-38255372D01*
X112885120Y-38236137D01*
X112881174Y-38217084D01*
X112878664Y-38197208D01*
X112861501Y-38153859D01*
X112859614Y-38148346D01*
X112846617Y-38103610D01*
X112846616Y-38103608D01*
X112836421Y-38086369D01*
X112827860Y-38068893D01*
X112820486Y-38050269D01*
X112820486Y-38050267D01*
X112803545Y-38026951D01*
X112793083Y-38012550D01*
X112789900Y-38007705D01*
X112766170Y-37967579D01*
X112766165Y-37967573D01*
X112752005Y-37953413D01*
X112739370Y-37938620D01*
X112727593Y-37922412D01*
X112691693Y-37892713D01*
X112687381Y-37888790D01*
X109212803Y-34414212D01*
X109202980Y-34401950D01*
X109202759Y-34402134D01*
X109197786Y-34396123D01*
X109147364Y-34348773D01*
X109136919Y-34338328D01*
X109126475Y-34327883D01*
X109120986Y-34323625D01*
X109116561Y-34319847D01*
X109082582Y-34287938D01*
X109082580Y-34287936D01*
X109082577Y-34287935D01*
X109065029Y-34278288D01*
X109048763Y-34267604D01*
X109032933Y-34255325D01*
X108990168Y-34236818D01*
X108984922Y-34234248D01*
X108944093Y-34211803D01*
X108944092Y-34211802D01*
X108924693Y-34206822D01*
X108906281Y-34200518D01*
X108887898Y-34192562D01*
X108887892Y-34192560D01*
X108841874Y-34185272D01*
X108836152Y-34184087D01*
X108791021Y-34172500D01*
X108791019Y-34172500D01*
X108770984Y-34172500D01*
X108751586Y-34170973D01*
X108744162Y-34169797D01*
X108731805Y-34167840D01*
X108731804Y-34167840D01*
X108685416Y-34172225D01*
X108679578Y-34172500D01*
X89491117Y-34172500D01*
X89424078Y-34152815D01*
X89378323Y-34100011D01*
X89368379Y-34030853D01*
X89397404Y-33967297D01*
X89415433Y-33950276D01*
X89841878Y-33621727D01*
X89844148Y-33620062D01*
X90533771Y-33138519D01*
X90536098Y-33136975D01*
X91247544Y-32688280D01*
X91249960Y-32686835D01*
X91981585Y-32272021D01*
X91984107Y-32270667D01*
X92734391Y-31890591D01*
X92736967Y-31889361D01*
X93501590Y-31546062D01*
X93502227Y-31545782D01*
X93506429Y-31543938D01*
X94277378Y-31240369D01*
X94293998Y-31233997D01*
X95067324Y-30970646D01*
X95095242Y-30961428D01*
X95869760Y-30737590D01*
X95908428Y-30726820D01*
X96682914Y-30541842D01*
X96731711Y-30530704D01*
X97505071Y-30383929D01*
X97563274Y-30373509D01*
X98334235Y-30264337D01*
X98401319Y-30255573D01*
X99168658Y-30183401D01*
X99243938Y-30177163D01*
X100006542Y-30141379D01*
X100089287Y-30138447D01*
X100845926Y-30138447D01*
X100935494Y-30139504D01*
G37*
%TD.AperFunction*%
%TD*%
M02*
