%TF.GenerationSoftware,KiCad,Pcbnew,7.0.9*%
%TF.CreationDate,2024-04-20T20:01:19-07:00*%
%TF.ProjectId,mini_v1,6d696e69-5f76-4312-9e6b-696361645f70,rev?*%
%TF.SameCoordinates,Original*%
%TF.FileFunction,Soldermask,Bot*%
%TF.FilePolarity,Negative*%
%FSLAX46Y46*%
G04 Gerber Fmt 4.6, Leading zero omitted, Abs format (unit mm)*
G04 Created by KiCad (PCBNEW 7.0.9) date 2024-04-20 20:01:19*
%MOMM*%
%LPD*%
G01*
G04 APERTURE LIST*
G04 Aperture macros list*
%AMRoundRect*
0 Rectangle with rounded corners*
0 $1 Rounding radius*
0 $2 $3 $4 $5 $6 $7 $8 $9 X,Y pos of 4 corners*
0 Add a 4 corners polygon primitive as box body*
4,1,4,$2,$3,$4,$5,$6,$7,$8,$9,$2,$3,0*
0 Add four circle primitives for the rounded corners*
1,1,$1+$1,$2,$3*
1,1,$1+$1,$4,$5*
1,1,$1+$1,$6,$7*
1,1,$1+$1,$8,$9*
0 Add four rect primitives between the rounded corners*
20,1,$1+$1,$2,$3,$4,$5,0*
20,1,$1+$1,$4,$5,$6,$7,0*
20,1,$1+$1,$6,$7,$8,$9,0*
20,1,$1+$1,$8,$9,$2,$3,0*%
G04 Aperture macros list end*
%ADD10RoundRect,0.250000X0.242612X-0.529784X0.580112X0.054784X-0.242612X0.529784X-0.580112X-0.054784X0*%
%ADD11C,1.800000*%
%ADD12R,1.800000X1.800000*%
%ADD13C,1.320800*%
%ADD14C,2.006600*%
%ADD15C,1.524000*%
%ADD16C,2.484000*%
%ADD17RoundRect,0.250000X-0.350000X-0.450000X0.350000X-0.450000X0.350000X0.450000X-0.350000X0.450000X0*%
%ADD18RoundRect,0.250000X-0.337500X-0.475000X0.337500X-0.475000X0.337500X0.475000X-0.337500X0.475000X0*%
%ADD19RoundRect,0.250000X0.450000X-0.350000X0.450000X0.350000X-0.450000X0.350000X-0.450000X-0.350000X0*%
%ADD20R,1.700000X1.700000*%
%ADD21O,1.700000X1.700000*%
%ADD22RoundRect,0.250000X0.350000X0.450000X-0.350000X0.450000X-0.350000X-0.450000X0.350000X-0.450000X0*%
%ADD23RoundRect,0.250000X0.475000X-0.337500X0.475000X0.337500X-0.475000X0.337500X-0.475000X-0.337500X0*%
%ADD24R,1.981200X0.558800*%
%ADD25RoundRect,0.250000X-0.450000X0.350000X-0.450000X-0.350000X0.450000X-0.350000X0.450000X0.350000X0*%
%ADD26R,3.556000X1.778000*%
%ADD27RoundRect,0.102000X-0.515000X-0.310000X0.515000X-0.310000X0.515000X0.310000X-0.515000X0.310000X0*%
%ADD28RoundRect,0.102000X-0.515000X-0.250000X0.515000X-0.250000X0.515000X0.250000X-0.515000X0.250000X0*%
G04 APERTURE END LIST*
D10*
%TO.C,R3*%
X85471000Y-40513000D03*
X86508500Y-38715998D03*
%TD*%
D11*
%TO.C,D1*%
X85217000Y-45212000D03*
D12*
X85217000Y-42672000D03*
%TD*%
D13*
%TO.C,SW1*%
X87311714Y-54934939D03*
X88458867Y-56573244D03*
X89606021Y-58211549D03*
D14*
X86106000Y-53213000D03*
X90811735Y-59933488D03*
%TD*%
D15*
%TO.C,C2*%
X93853000Y-63119000D03*
X93853000Y-60579000D03*
%TD*%
D16*
%TO.C,BT1*%
X112467386Y-55317386D03*
X97978768Y-40828768D03*
%TD*%
D17*
%TO.C,R1*%
X98060000Y-54356000D03*
X100060000Y-54356000D03*
%TD*%
D18*
%TO.C,C3*%
X92769500Y-58928000D03*
X94844500Y-58928000D03*
%TD*%
D19*
%TO.C,Rf2*%
X107823000Y-58404000D03*
X107823000Y-56404000D03*
%TD*%
D20*
%TO.C,J1*%
X115824000Y-47884000D03*
D21*
X115824000Y-45344000D03*
%TD*%
D22*
%TO.C,Rs1*%
X94837000Y-56881000D03*
X92837000Y-56881000D03*
%TD*%
D23*
%TO.C,C1*%
X87376000Y-42883000D03*
X87376000Y-44958000D03*
%TD*%
D17*
%TO.C,Rf1*%
X92837000Y-54737000D03*
X94837000Y-54737000D03*
%TD*%
D24*
%TO.C,U2*%
X103632000Y-56896000D03*
X103632000Y-58166000D03*
X103632000Y-59436000D03*
X103632000Y-60706000D03*
X98704400Y-60706000D03*
X98704400Y-59436000D03*
X98704400Y-58166000D03*
X98704400Y-56896000D03*
%TD*%
D17*
%TO.C,R2*%
X102362000Y-54356000D03*
X104362000Y-54356000D03*
%TD*%
D25*
%TO.C,Rb1*%
X112395000Y-45593000D03*
X112395000Y-47593000D03*
%TD*%
D26*
%TO.C,U1*%
X108839000Y-35052000D03*
X108839000Y-37592000D03*
X108839000Y-40132000D03*
X108839000Y-42672000D03*
X108839000Y-45212000D03*
X108839000Y-47752000D03*
X108839000Y-50292000D03*
X92075000Y-35052000D03*
X92075000Y-37592000D03*
X92075000Y-40132000D03*
X92075000Y-42672000D03*
X92075000Y-45212000D03*
X92075000Y-47752000D03*
X92075000Y-50292000D03*
%TD*%
D17*
%TO.C,Rg1*%
X107712000Y-54356000D03*
X109712000Y-54356000D03*
%TD*%
D27*
%TO.C,MK1*%
X87359000Y-49140000D03*
D28*
X87359000Y-48260000D03*
D27*
X87359000Y-47380000D03*
X85149000Y-47380000D03*
D28*
X85149000Y-48260000D03*
D27*
X85149000Y-49140000D03*
%TD*%
M02*
